<svg width="1920" height="163" viewBox="0 0 1920 163" preserveAspectRatio="none" fill="none" xmlns="http://www.w3.org/2000/svg">
<path d="M1839.24 67.1347C1844.43 67.1347 1849.99 67.1347 1850.36 70.4531C1847.02 70.4531 1847.02 70.8218 1842.95 70.4531C1844.43 67.8721 1836.65 69.347 1839.24 67.1347ZM1682.55 106.956C1680.32 108.431 1673.66 108.799 1672.17 110.274C1674.77 109.537 1682.18 109.168 1682.55 106.956ZM1807.39 78.5648C1807.02 78.1961 1807.76 77.8273 1808.13 77.0899H1808.5C1808.5 76.3525 1809.61 76.3525 1809.24 75.6151C1808.87 75.6151 1808.13 75.9838 1808.13 75.9838C1807.76 75.9838 1807.39 75.6151 1806.64 75.6151C1806.27 74.8776 1807.39 73.4028 1802.94 74.8776C1804.05 75.6151 1804.42 76.7212 1805.53 77.0899C1803.68 77.0899 1800.35 75.9838 1798.5 75.9838C1798.12 78.9335 1806.64 76.3525 1807.39 78.5648ZM1871.1 68.6095C1869.99 66.3972 1866.29 66.766 1868.14 64.185C1863.32 65.6598 1864.8 62.3414 1859.62 64.185C1864.06 65.2911 1861.84 69.7157 1871.1 68.6095ZM1499.18 143.458C1498.81 141.246 1494.73 143.458 1493.62 144.196C1495.1 144.196 1495.47 144.564 1496.58 144.564C1496.21 144.196 1497.33 143.827 1499.18 143.458ZM1822.94 71.1905C1822.94 71.9279 1820.35 71.9279 1819.98 72.6654C1822.2 72.6654 1824.43 73.0341 1826.28 73.4028C1827.02 71.9279 1825.54 71.1905 1822.94 71.1905ZM1762.19 84.4642C1762.19 83.7267 1763.3 83.7267 1762.93 82.9893C1758.12 84.4642 1755.89 82.6206 1754.04 84.8329C1756.64 85.939 1758.12 84.8329 1762.19 84.4642ZM1692.18 94.0507L1688.1 94.7881C1687.73 96.6317 1693.29 95.5256 1692.18 94.0507ZM1691.81 97.0004C1694.77 97.3691 1695.88 97.0004 1699.59 95.5256C1699.22 92.9446 1694.4 96.6317 1693.29 95.1568C1693.29 95.8943 1691.81 96.263 1691.81 97.0004ZM267.829 97.3691C270.052 95.5256 275.238 98.1065 277.831 96.263C274.497 95.5256 272.645 95.8943 267.829 95.1568V97.3691ZM237.083 107.324C233.378 106.587 232.637 105.112 228.562 105.85C232.267 105.85 235.971 109.168 237.083 107.324ZM247.826 87.0452C245.973 87.7826 243.751 88.1513 243.751 89.9949C247.455 89.2574 245.973 88.52 247.826 87.0452ZM206.706 106.587C207.818 107.324 208.188 108.062 211.152 108.062C211.152 105.85 207.077 106.218 206.706 106.587ZM1208.75 111.38C1209.12 109.905 1213.2 113.224 1212.46 110.643C1209.86 110.643 1210.23 109.905 1208.01 109.905V110.643C1207.64 111.38 1208.01 111.38 1208.75 111.38ZM212.634 113.592C211.522 113.592 210.781 113.224 210.04 112.855C208.188 114.699 206.706 112.118 206.706 111.011C205.966 112.118 203.743 111.749 203.373 112.855C205.595 112.855 211.522 115.436 212.634 113.592ZM14.0768 84.0955C14.4473 83.7267 15.1881 84.0955 15.929 84.4642C16.2994 83.358 18.1515 82.6206 19.6333 81.1458C16.2993 80.0396 17.7811 82.2519 15.929 82.2519C14.4471 81.5145 16.2993 80.0396 13.3358 80.0396C15.188 82.2519 13.7063 82.6206 14.0768 84.0955ZM0.370361 98.844C-0.00012207 98.844 -0.00012207 98.844 0.370361 98.844L0 94.7881C2.59314 94.7881 5.18604 95.1568 7.77917 96.263C8.8905 94.7881 5.927 94.4194 3.33386 94.0507C5.18604 94.0507 6.29736 92.5759 3.33386 91.8384C6.29736 93.3133 12.2246 91.8384 14.0768 94.7881C14.8176 95.1568 14.4471 92.5759 13.3358 91.8384C15.188 91.101 18.5221 91.4697 21.4856 91.4697C21.4856 90.7323 18.8923 90.3636 20.0037 89.2574C23.3376 90.3636 24.8196 89.9949 27.0422 91.101C31.4875 90.3636 24.449 88.1513 24.8195 86.3077C22.5968 86.3077 22.2264 85.939 19.2629 86.3077C15.929 84.4642 23.7083 85.939 20.3743 84.0955C21.8561 83.7267 22.5968 83.358 24.8195 83.7267C23.3376 82.9893 23.3378 81.8832 20.3743 81.5145C20.0038 79.6709 20.7446 78.9335 23.3378 79.3022C18.522 76.3525 20.0038 80.0396 15.929 79.6709C15.929 79.6709 12.9653 75.6151 17.7811 76.7212C13.7063 75.6151 8.52002 74.1402 5.18604 74.8776C5.55652 73.0341 3.33411 72.6654 0.740967 70.8218C4.07495 71.5592 4.07471 71.9279 7.03821 71.9279V73.4028C12.2244 74.1402 11.4835 73.0341 15.188 74.8776C13.7062 72.6654 8.52026 71.5592 2.59314 70.8218C1.85229 70.8218 1.85217 70.0844 1.85217 69.7157V68.9782C3.33398 68.9782 3.33398 69.7157 4.44531 70.0844C4.8158 68.9782 2.59302 68.6095 1.85217 67.8721C2.22266 67.1347 3.33386 67.1347 4.81567 67.1347C7.40881 68.9782 9.63147 68.2408 12.9655 70.0844C13.3359 71.5592 8.89062 69.7157 8.52014 70.4531C10.7428 71.9279 15.1881 71.1905 18.5221 71.9279V69.7157C17.7812 69.3469 13.3358 67.1347 17.7811 67.8721C16.6698 66.0285 15.929 67.5034 13.3358 67.1347C12.2245 66.3972 12.9652 65.2911 14.447 64.9224C11.4835 61.9727 5.55664 63.8163 6.29749 66.3972C4.44531 64.5537 5.18616 65.2911 1.85217 64.185C1.11133 62.3414 4.81567 64.185 6.29749 64.185C5.55664 63.0788 6.66785 61.9727 3.70435 61.604C6.66785 60.1291 7.03821 57.5481 5.18604 54.5984C6.66785 55.7046 7.77917 57.1794 9.63135 58.2856C13.7062 58.6543 11.1132 57.1794 10.7427 55.7046C13.7062 56.0733 14.8175 57.1794 17.0402 58.2856C17.781 60.1291 12.9653 57.9168 12.5948 58.6543C12.9653 59.3917 14.0765 59.7604 14.447 60.4978C17.0402 60.4978 17.4108 59.3917 19.2629 58.6543C21.8561 59.7604 17.7811 60.4978 18.8925 62.3414C21.4856 63.0788 20.7446 61.604 23.3378 62.3414C21.856 64.185 27.0422 67.1347 31.1171 68.6095C30.7466 69.3469 27.783 68.2408 28.1534 69.7157C28.5239 71.5592 32.2284 72.6654 34.0806 74.1402C33.7101 75.9838 30.7467 73.0341 29.6354 74.1402C29.6354 73.4028 28.5239 71.9279 24.4491 71.1905C29.2649 73.7715 32.2283 76.7212 35.5623 79.6709C34.8214 81.8832 30.7466 81.1458 25.5604 80.0396C24.4491 80.0396 24.8196 80.777 23.7083 80.777C24.0787 81.8832 28.5239 82.2519 28.1534 81.1458C29.2648 82.9893 31.8579 84.0955 34.451 84.4642C34.0806 84.8329 33.3397 85.2016 31.8579 84.8329C32.5988 85.2016 33.3397 85.939 34.451 86.3077C37.0442 86.3077 33.3396 84.8329 35.5623 84.8329C40.0076 87.7826 44.453 87.0452 50.0096 87.4139C48.1575 88.1513 49.6392 89.6261 51.4913 90.3636C56.3071 91.4697 61.1228 88.52 62.2341 92.2071C59.641 93.682 46.3051 89.6262 48.5277 92.9446C47.0459 93.3133 42.2303 91.101 40.3782 92.9446C40.7487 94.0507 43.712 94.0507 42.9712 95.1568C46.3052 95.5256 47.046 94.4194 51.1208 95.1568C48.1573 95.5256 49.639 98.1065 54.4548 98.4753C53.714 98.844 52.9731 98.844 51.8618 98.844C53.3436 99.9501 54.0845 101.425 56.3071 102.162C60.382 101.794 64.0863 101.056 65.5681 98.844C67.0499 99.2127 65.9385 100.319 67.0498 101.056C74.4586 102.9 74.0884 99.2127 79.645 99.5814C79.645 99.2127 78.1632 98.844 77.0519 98.844C80.3859 97.7378 83.3494 95.8943 81.8676 93.682C86.3129 94.4194 82.6085 97.7378 87.0538 98.1065C86.6833 98.4753 84.8312 98.1065 83.3494 97.7378C82.6085 99.2127 84.0902 100.319 85.9424 101.056C85.5719 101.425 83.7198 101.056 82.238 100.688C85.2015 103.637 84.8311 101.425 82.9789 104.375C85.2015 105.481 88.5356 106.218 87.0538 108.431C91.4991 110.274 94.833 110.274 100.39 111.38C101.13 110.274 99.2783 109.905 99.6488 109.168C103.724 110.643 100.39 112.118 103.724 113.961C105.205 114.33 104.465 112.486 105.576 112.486C106.687 113.224 107.428 113.961 107.058 115.067C108.91 115.067 107.428 113.224 108.91 113.224C112.244 113.961 111.873 113.592 114.096 114.699C120.023 113.961 122.616 110.274 124.098 107.324C126.321 107.693 128.173 109.168 127.802 106.956C130.025 107.324 134.841 107.693 132.248 108.431C135.211 108.431 132.248 107.324 134.1 106.956C135.952 107.693 135.582 109.537 138.545 109.905C140.768 110.274 138.916 108.431 137.804 108.431C139.656 108.431 141.138 108.431 144.843 109.537C141.509 108.062 145.583 108.431 146.695 109.905C147.806 109.537 148.177 108.799 151.14 109.537C149.658 108.062 147.806 108.799 144.102 108.062C146.324 107.324 142.99 106.587 141.509 105.85C141.138 104.743 144.102 105.85 144.102 104.743C145.584 107.324 146.324 104.743 148.547 106.587C149.658 104.743 150.399 106.587 152.251 104.375C152.251 104.006 151.511 103.637 151.511 103.269C147.065 104.375 142.62 103.269 138.545 103.269C138.545 102.9 139.286 102.9 139.286 102.531C133.729 101.425 132.248 102.531 127.062 102.162C127.062 100.688 124.839 99.9501 121.875 99.5814C120.764 98.1065 124.839 99.5814 123.728 98.1065C126.691 98.4753 126.321 99.2127 128.173 98.844C127.061 97.3691 123.728 98.1065 121.875 97.7378C121.875 97.0004 122.246 96.6317 121.134 96.263C125.209 97.3691 126.691 94.4194 126.691 91.4697C129.284 91.4697 130.766 90.7323 129.284 89.2574C132.618 89.6262 133.729 89.6262 136.323 90.7323C137.804 89.2574 146.324 91.4697 143.361 87.4139C144.472 87.0452 146.324 87.4139 148.547 87.7826C148.547 88.1513 147.065 87.7826 145.954 87.7826C145.584 88.8887 146.695 89.2574 148.547 89.6262C147.806 90.7323 144.102 89.6262 144.102 91.101C146.324 92.2071 152.992 94.4194 154.474 93.3133C155.215 94.7881 156.697 95.1568 159.66 94.7881C159.66 95.5256 160.401 95.8943 161.513 96.263C160.031 97.7378 160.401 95.1568 158.179 95.1568C157.067 95.5256 160.031 97.7378 163.365 98.1065C162.624 98.4753 162.253 98.844 162.624 99.9501C167.81 99.9501 170.403 103.269 176.33 104.006C179.294 104.375 174.108 101.794 178.182 102.9C180.035 103.637 177.442 105.112 184.109 105.481C183.369 106.956 185.962 107.324 185.591 108.799C188.184 109.168 189.666 108.799 188.925 106.956C191.518 106.587 194.111 107.324 194.111 109.168C191.889 108.799 193.371 107.324 190.037 107.324C189.666 108.799 194.852 109.905 195.964 109.168C195.964 108.431 197.075 110.274 193.371 110.274C197.445 113.592 207.077 112.118 208.929 116.542C211.152 115.067 211.522 116.542 214.115 116.173C213.745 115.805 213.374 115.436 212.263 115.067C214.486 114.699 218.561 115.805 223.376 115.805V113.961C221.524 113.592 221.895 114.33 221.524 115.067C219.302 115.067 218.561 112.118 216.338 113.592C216.708 113.592 217.449 110.274 216.338 109.905C213.745 108.062 204.113 109.905 200.779 109.168C204.854 108.431 212.634 107.324 218.931 108.431C220.042 108.431 217.82 106.956 218.19 106.587C218.19 105.85 223.006 106.587 220.042 105.481C220.783 104.375 222.635 106.218 224.117 105.85C222.265 104.006 216.708 103.269 217.449 101.425C213.745 101.425 213.375 99.9501 210.781 99.9501C208.929 101.794 219.672 102.9 218.561 105.112C215.968 104.743 216.708 103.637 214.486 103.269C212.634 103.637 216.338 105.481 216.338 106.587C212.634 105.481 211.152 103.269 209.67 101.425C207.818 101.794 208.188 101.056 205.595 101.425C207.077 101.056 206.707 99.5814 203.743 99.5814C205.225 99.5814 203.743 97.3691 205.595 97.3691C203.002 97.3691 204.484 94.0507 202.261 92.9446C198.186 94.0507 195.593 93.3133 191.148 92.2071C188.925 92.9446 192.259 93.3133 191.889 94.4194C190.407 93.682 188.184 92.9446 188.555 91.4697C191.518 90.7323 196.334 89.6261 199.668 90.3636C199.668 89.2574 197.445 89.2574 195.593 88.8887C197.816 87.7826 201.891 89.6262 201.52 91.4697C205.595 90.7323 207.077 91.8384 210.781 91.4697C210.041 89.9949 209.67 90.7323 207.447 90.7323C207.818 89.9949 209.67 89.9949 210.04 89.2574C211.152 89.9949 211.893 91.8384 210.781 91.8384L212.634 92.2071C215.227 92.5759 210.411 90.7323 213.374 91.101C213.745 90.3636 213.374 92.2071 214.856 92.9446C217.079 92.5759 219.672 91.101 222.635 93.682C220.042 93.3133 217.079 92.9446 215.968 93.3133C220.413 93.682 225.229 97.3691 229.303 97.3691C228.192 96.263 225.969 95.8943 225.229 94.7881C227.451 92.9446 235.231 95.1568 240.417 94.0507C239.676 93.682 239.676 92.9446 239.676 92.2071C243.751 92.2071 243.751 92.2071 247.085 92.5759C246.344 91.4697 243.01 91.4697 243.01 89.9949C245.603 90.3636 250.048 92.9446 251.16 91.101C250.419 89.6262 249.307 91.4697 247.826 90.7323C250.419 88.8887 251.159 89.2574 254.493 89.2574C250.789 89.9949 253.012 90.7323 254.493 92.2071C257.087 92.5759 255.975 91.101 258.568 91.4697C260.421 92.9446 265.236 93.3133 267.089 95.1568C261.161 92.9446 250.789 91.8384 243.751 93.3133C245.603 93.3133 250.789 94.4194 255.234 93.682C254.864 94.7881 258.568 94.4194 257.827 95.5256C265.977 95.8943 270.793 97.0004 275.238 95.8943C276.35 95.8943 275.979 96.6317 275.979 97.3691C280.054 96.263 282.647 98.1065 285.611 96.263C286.722 94.7881 281.906 95.8943 283.018 94.4194C285.24 93.3133 285.611 95.1568 287.833 95.1568C290.056 94.7881 286.722 94.0507 287.833 92.9446C291.167 92.5759 292.279 93.3133 294.501 94.4194C304.133 93.682 307.096 92.5759 302.28 89.2574C299.687 89.2574 298.947 90.3636 297.465 91.4697C298.206 92.9446 300.058 91.101 301.54 91.4697C300.428 92.9446 298.947 92.2071 297.465 92.5759C297.094 91.8384 296.724 91.4697 294.131 91.101C294.501 90.3636 295.983 90.7323 297.465 90.7323C297.465 90.3636 297.465 89.9949 298.206 89.9949C297.094 88.8887 293.02 88.52 292.649 90.3636C291.908 89.2574 286.722 88.8887 287.092 90.7323C285.611 88.52 282.647 88.1513 278.943 88.8887C279.313 89.6262 282.277 89.2574 281.536 90.7323C277.09 91.4697 273.386 89.9949 270.052 89.2574C271.534 83.358 250.419 82.9893 242.639 81.5145C243.751 80.777 245.973 80.777 246.714 79.6709C243.01 80.777 240.787 80.777 235.971 80.777V78.9335C238.935 80.777 243.38 80.0396 244.121 78.1961C241.158 77.4586 239.305 78.1961 241.528 75.9838C237.823 75.2464 239.305 77.4586 238.935 78.5648C236.342 77.4586 234.49 77.4586 232.267 78.5648C229.674 77.8273 231.526 75.2464 229.674 74.1402C230.415 72.6654 231.896 71.9279 235.601 72.6654V70.0844C237.824 70.0844 237.824 70.8218 239.676 70.8218C236.342 68.9782 239.676 67.1347 243.751 67.1347C244.491 68.2408 242.269 67.8721 242.269 68.9782C257.457 68.6095 270.422 73.0341 280.424 75.6151C282.277 74.8776 283.758 74.1402 287.463 74.5089C287.463 75.2464 288.204 75.6151 288.945 75.9838C288.945 76.3525 287.463 76.3525 286.722 76.3525C290.797 79.3022 293.39 78.9335 301.91 78.9335C302.281 77.4586 298.576 78.1961 299.317 76.7212C301.169 77.4586 300.799 77.8273 303.392 77.4586C303.762 78.1961 302.651 78.1961 302.651 78.9335C306.355 77.8273 307.837 81.1458 311.542 79.6709C314.505 80.0396 308.948 81.1458 311.542 81.5145C311.171 82.6206 307.467 81.5145 305.985 81.8832C306.355 84.4642 311.542 82.6206 313.394 83.358C309.319 84.4642 315.987 84.8329 313.764 85.939C318.95 86.3077 318.95 84.4642 321.914 86.6764C323.766 86.6764 324.137 85.939 324.877 85.2016C325.248 84.4642 322.284 84.0955 321.173 84.4642C323.766 82.6206 328.952 86.6764 335.25 87.0452C333.398 88.52 330.805 88.52 327.841 88.1513C324.878 87.7826 321.173 87.7826 317.839 88.52C314.135 86.3077 313.023 89.6262 308.948 88.1513C309.319 87.0452 311.912 87.4139 313.764 87.0452C311.171 85.2016 306.726 86.6765 302.28 85.939C305.244 87.7826 308.578 89.2574 312.282 90.7323C314.875 91.101 313.764 89.6261 316.357 89.9949V91.4697C319.691 91.8384 318.95 89.9949 322.655 90.7323C319.321 91.8384 323.025 92.2071 323.025 93.682C327.47 93.682 324.507 92.5759 325.989 91.4697C331.916 91.101 335.991 92.2071 341.177 91.8384C342.288 91.8384 341.547 90.7323 341.918 89.9949C339.695 90.7323 335.991 91.4697 334.138 90.3636C335.25 90.7323 343.4 88.8887 338.584 88.1513C341.177 87.4139 341.547 87.4139 344.511 85.939C344.881 86.6765 343.77 87.0452 343.77 87.7826C344.881 87.7826 345.252 87.4139 345.993 87.4139C345.993 84.8329 345.252 85.2016 343.029 83.358C344.14 84.4642 345.993 82.2519 347.104 83.7267C349.697 81.8832 352.29 79.6709 355.624 78.5648C358.958 77.0899 363.033 76.7212 367.849 76.3525C371.183 73.0341 379.332 71.9279 382.666 68.2408C385.26 67.8721 389.334 68.2408 388.594 66.3972C390.075 66.3972 391.186 66.3972 391.557 67.1347C394.15 66.766 388.593 66.0285 391.187 65.2911C394.521 64.5537 390.816 66.0285 392.668 66.0285C393.409 64.9224 394.15 64.185 395.261 63.0788C397.854 62.3414 401.559 62.3414 405.634 61.604C409.338 60.8666 413.413 60.4978 415.636 59.3917C416.747 59.3917 417.488 59.7604 418.229 60.4978C431.194 55.7046 442.678 58.6543 455.643 55.3359C457.866 56.8107 459.718 55.7046 464.534 54.9671C464.534 55.7046 465.645 55.7046 465.645 56.442C473.795 53.4923 480.463 56.0733 489.354 53.861L489.724 54.9671C494.54 52.3862 494.91 54.9671 499.356 52.3862C500.837 53.4923 503.801 53.1236 506.023 51.6487C505.653 53.1236 507.505 52.3862 507.505 53.4923C510.098 53.1236 508.617 52.0174 511.21 51.6487C514.544 52.3862 518.989 52.7549 523.434 52.3862C528.25 52.3862 533.066 51.6487 537.881 50.1739C541.215 52.0174 546.031 52.0174 551.588 52.0174C550.847 53.1236 551.217 54.2297 550.847 55.3359C558.256 56.8107 571.221 49.8052 578.26 51.6487C564.553 53.861 548.624 58.2856 537.141 60.8665C520.1 69.3469 499.726 70.8218 481.204 75.2463C472.684 75.2463 464.534 76.3525 456.755 77.8273C452.68 78.5648 448.605 79.6709 444.53 80.777C440.455 81.8832 436.38 82.9893 431.935 84.4642C432.306 86.3077 436.751 85.2016 436.751 87.7826C431.565 88.1513 427.86 88.8887 423.785 89.2574C420.081 89.6262 416.006 90.3636 411.19 91.8384C411.931 92.5759 412.672 92.5759 413.783 92.9446C415.265 89.9949 423.044 93.3133 423.044 91.4697C427.119 92.5759 431.565 91.4697 436.01 91.101C440.455 90.3636 444.901 90.3636 449.346 91.4697C450.457 91.101 447.864 89.6262 450.457 88.8887C450.457 91.4697 457.495 89.2574 460.089 87.4139C456.755 91.101 468.609 88.1513 472.313 88.1513C472.313 88.52 470.831 88.8887 470.831 89.2574C473.425 89.6262 476.018 88.52 477.129 87.0452C478.981 86.6764 477.87 88.52 478.611 88.8887C486.02 87.0452 492.317 89.2574 500.467 85.939C500.467 87.4139 502.319 87.0452 501.949 88.1513C504.171 87.7826 506.764 86.6764 507.135 87.7826C508.246 87.7826 509.728 85.939 507.505 86.3077C507.876 84.8329 509.357 87.0452 511.951 85.939C513.803 86.3077 511.58 87.0452 513.432 87.4139C516.396 85.2016 522.323 85.939 523.064 83.7267C524.916 86.3077 528.25 84.8329 532.695 84.8329C532.325 85.939 527.88 85.939 526.027 86.6764C525.657 88.52 528.62 88.52 530.843 87.7826C529.732 90.3636 524.916 87.7826 521.582 90.3636C523.434 90.7323 528.25 88.8887 528.25 91.101C530.843 90.3636 530.102 89.2574 533.807 88.8887C536.4 87.7826 531.584 88.8887 532.325 87.4139C536.029 88.1513 537.141 87.7826 540.475 89.2574C538.622 89.6262 537.141 89.9949 537.511 91.101C537.511 91.8384 538.622 91.4697 538.993 92.2071C542.327 89.9949 542.697 91.8384 546.772 89.9949C544.549 91.4697 545.661 92.9446 550.106 91.4697C552.699 91.4697 545.661 92.9446 544.179 93.3133C549.365 93.682 553.07 92.5759 558.626 91.101C558.997 92.5759 561.59 92.5759 557.515 93.682C562.701 93.3133 566.776 91.4697 567.146 88.52C569.74 88.1513 574.555 88.8887 575.296 87.0452C576.037 85.2016 572.333 87.4139 572.333 86.3077C574.555 84.0955 576.778 87.7826 580.482 87.4139C581.594 87.4139 583.075 85.5703 580.853 85.939C581.964 84.8329 584.928 86.3077 582.334 87.4139C584.557 88.1513 588.632 84.4642 588.262 87.7826C590.484 86.6764 589.743 85.2016 590.114 84.4642C591.966 84.0955 598.264 82.9893 601.227 82.6206C600.116 84.4642 596.782 83.358 594.189 84.4642C594.189 85.2016 594.93 85.5703 596.411 85.2016C594.559 87.4139 593.077 86.3077 592.707 85.5703C590.484 85.939 590.855 87.0452 590.484 87.7826C605.672 84.0955 630.862 82.9893 647.532 77.4586C646.05 81.1458 663.091 77.4586 664.943 75.2463C666.425 75.2463 666.795 76.3525 668.277 76.3525C669.759 74.1402 671.611 75.9838 674.574 74.5089C678.279 74.5089 670.87 75.2464 673.093 76.3525C676.427 77.8273 676.797 74.1402 680.502 74.5089C680.502 74.8776 678.649 75.2463 679.02 75.6151C681.983 75.9838 690.133 74.8776 689.022 72.2966C692.356 74.1402 691.615 75.9838 697.542 75.9838C700.505 75.6151 699.024 74.5089 701.987 74.1402C703.469 75.2464 708.655 74.5089 710.878 73.7715C713.471 77.8273 724.955 72.6654 729.4 73.7715C734.586 71.1905 751.997 69.3469 754.96 70.4531C753.479 72.2967 751.626 71.5592 749.774 70.8218C747.552 71.5592 752.367 72.2966 747.552 73.0341C748.663 72.2966 748.292 71.1905 746.811 70.8218C746.07 72.2967 741.254 71.9279 737.92 72.2966C737.179 72.6654 736.438 73.0341 736.438 73.4028C738.291 75.6151 749.033 73.4028 750.515 72.2966C752.367 72.2966 757.183 73.0341 758.665 71.5592C762.74 71.9279 755.331 73.0341 753.108 73.4028L753.479 75.2463C756.072 74.8776 755.331 73.4028 757.924 73.0341C754.219 75.6151 760.887 74.1402 765.333 73.0341C765.703 74.8776 757.924 74.5089 754.96 75.6151C756.813 76.7212 756.072 76.7212 758.665 77.0899C757.553 74.8776 775.705 72.6654 779.039 73.7715C786.078 71.1905 799.413 71.9279 804.229 69.7157C802.747 68.9782 800.525 69.3469 798.302 70.0844C796.82 68.9782 800.154 68.9782 802.007 68.6095C802.377 67.1347 800.154 67.5034 798.672 67.1347C798.302 68.9782 794.227 67.5034 794.968 68.9782C793.486 68.9782 792.745 68.2408 792.375 67.5034L797.191 66.766C796.82 65.6598 791.634 67.5034 791.634 65.6598C802.747 65.2911 800.895 66.0285 813.49 63.8163C812.379 65.2911 809.786 65.2911 812.008 66.766C808.674 67.8721 807.563 67.1347 805.341 68.6095C806.822 70.0844 807.193 69.7157 807.934 70.8218C809.045 70.4531 808.304 70.4531 807.934 70.4531C809.786 68.6095 816.454 70.4531 816.454 68.6095C818.306 69.3469 818.676 69.3469 821.64 68.2408C820.158 69.7157 826.826 69.3469 822.01 70.0844C826.456 69.7157 834.605 68.6095 841.644 68.2408C838.31 69.3469 838.31 69.7157 840.903 70.0844C847.2 69.7157 853.498 69.3469 859.795 68.9782C863.87 68.6095 867.204 67.8721 868.686 67.5034C874.613 68.9782 889.431 67.1347 896.099 67.1347C896.469 67.5034 897.581 67.8721 898.321 67.8721C899.803 67.8721 901.655 67.8721 903.137 67.8721C902.026 67.5034 899.433 67.1347 901.655 66.3972C902.767 67.1347 903.878 68.2408 907.583 67.5034L907.212 67.8721C907.212 67.8721 907.212 67.8721 907.583 67.8721C907.583 66.766 910.916 66.766 913.139 67.1347C912.028 67.8721 909.805 67.5034 910.546 67.8721H910.916C912.028 67.8721 913.139 67.8721 913.88 67.8721C914.621 67.5034 914.991 66.766 916.844 66.766L919.807 68.2408C932.772 67.8721 942.774 67.8721 954.258 67.8721C954.258 67.1347 953.147 66.766 951.295 66.766C950.924 65.6598 954.629 66.3972 956.11 66.3972C954.258 67.1347 956.11 67.8721 959.074 67.5034V67.8721C961.667 67.8721 964.63 67.8721 967.224 67.8721C966.483 68.2408 966.483 68.9782 967.964 68.9782L971.298 67.8721H971.669C972.039 67.5034 972.41 67.1347 972.41 66.766C971.669 65.6598 964.63 67.8721 965.371 65.2911C963.519 65.2911 963.149 66.0285 960.556 66.0285C961.297 65.6598 962.408 65.2911 963.519 65.2911C961.667 63.8163 959.444 64.9224 954.629 64.5537C956.11 63.8163 958.333 63.4475 959.444 62.7101C963.89 63.8163 969.446 63.4475 970.928 62.7101C972.78 62.7101 972.78 63.8163 975.003 64.185C978.337 64.185 977.596 62.7101 979.448 62.3414C982.412 63.4475 983.523 63.0788 987.227 63.0788C988.339 64.5537 984.264 63.8163 984.634 64.9224C984.634 66.0285 986.116 66.3972 987.598 66.766C988.339 66.3972 989.08 66.3972 990.561 66.3972C990.932 65.6598 986.857 65.2911 989.45 64.9224C993.155 66.3972 994.266 67.5034 999.452 67.1347C1000.19 67.1347 1000.19 66.766 1001.3 66.766C1002.42 65.2911 998.341 66.3972 999.082 64.9224C1002.42 65.6598 1005.01 67.8721 1008.71 66.0285C1007.6 64.9224 1005.75 66.766 1002.79 66.0285C1000.56 63.8162 1007.23 65.2911 1007.6 64.185C1009.45 66.3972 1013.16 65.2911 1017.23 64.9224C1016.12 66.3972 1012.42 65.2911 1012.79 66.3972C1015.01 66.766 1020.57 66.3972 1021.68 69.3469C1020.2 68.9782 1015.38 66.766 1015.01 68.9782C1013.16 68.6095 1013.16 67.5034 1012.05 66.766C1009.08 66.3972 1002.05 68.9782 1003.53 66.3972C1001.67 66.3972 1001.3 67.1347 1001.67 68.2408C1002.05 68.9782 1008.34 68.9782 1008.34 68.2408C1009.45 68.6095 1008.71 68.9782 1008.34 69.3469C1013.9 69.7157 1019.09 69.7157 1024.64 70.0844C1025.01 68.9782 1022.79 68.6095 1023.53 67.5034C1024.27 67.1347 1026.86 67.5034 1026.12 66.3972C1033.53 67.1347 1038.72 68.9782 1044.65 70.0844C1046.87 69.7157 1051.31 69.7157 1055.76 70.4531C1059.83 70.8218 1063.91 71.9279 1066.13 73.4028C1063.54 72.2966 1054.65 70.8218 1051.31 72.2966C1056.5 72.6654 1062.06 73.4028 1067.24 73.7715C1070.58 73.7715 1073.91 74.1402 1077.24 74.1402L1076.87 73.7715C1078.73 73.7715 1078.73 73.4028 1080.58 73.4028C1079.84 73.7715 1079.47 74.1402 1079.47 74.1402C1085.39 74.5089 1091.69 74.8776 1097.62 75.6151C1097.62 75.6151 1097.62 75.2464 1097.62 74.8776C1100.21 74.5089 1100.21 75.6151 1102.43 75.6151C1102.06 75.6151 1101.69 75.9838 1100.95 75.9838C1103.92 76.3525 1106.88 77.0899 1109.84 77.4586C1115.4 76.3525 1119.85 79.3022 1125.03 78.1961C1133.18 81.1458 1142.44 78.9335 1150.59 82.2519C1170.23 82.6206 1189.12 87.4139 1208.38 88.1513L1210.97 89.6262C1226.16 89.9949 1243.57 94.7881 1256.17 94.4194C1260.98 97.3691 1268.02 95.1568 1270.62 97.7378L1273.95 97.0004C1278.02 99.2127 1283.21 98.4753 1289.14 99.5814C1300.25 101.056 1317.66 105.112 1322.11 103.637C1334.7 105.481 1347.67 106.956 1360.63 108.799C1373.23 110.274 1386.19 111.749 1398.79 113.592C1399.53 113.224 1399.16 112.855 1399.53 112.855C1413.98 115.436 1428.42 117.648 1443.24 117.28C1444.72 118.017 1445.83 118.754 1447.32 119.492C1453.61 118.754 1458.8 119.861 1462.87 120.598C1463.99 120.229 1462.5 119.861 1463.25 119.492C1466.58 119.492 1469.54 122.073 1472.88 121.335C1479.92 120.967 1486.95 121.704 1493.62 122.073C1499.92 122.442 1506.59 123.548 1512.88 124.285C1512.14 123.916 1513.25 123.548 1513.63 122.81C1529.92 125.391 1546.97 125.391 1563.63 125.391C1565.49 126.129 1563.63 126.497 1566.23 127.235C1569.56 125.391 1572.53 126.866 1575.86 125.023C1580.3 127.235 1585.12 125.391 1589.2 127.235C1595.86 125.391 1608.46 127.235 1617.35 126.866C1616.98 133.134 1630.31 129.447 1635.87 131.291C1638.46 130.553 1635.87 130.185 1637.35 129.447C1638.09 129.447 1638.83 129.816 1639.58 129.816C1641.43 129.447 1643.28 129.447 1645.13 129.447C1645.5 129.816 1645.87 129.447 1646.24 129.447C1646.98 129.447 1647.73 129.816 1648.1 129.816C1649.95 129.447 1650.32 129.816 1651.8 129.447C1651.8 128.341 1649.95 129.078 1651.43 127.604C1652.54 127.604 1652.17 128.341 1653.65 127.972C1655.13 126.129 1654.76 125.391 1658.1 124.654C1658.1 123.548 1657.73 122.442 1656.62 122.442C1655.87 122.81 1655.87 123.179 1654.76 123.179C1652.17 123.916 1656.25 123.548 1655.13 125.023C1652.54 125.023 1652.17 124.654 1649.21 125.76C1651.8 126.497 1647.73 128.341 1647.35 126.497C1644.76 127.604 1648.84 127.235 1646.61 128.341C1641.8 129.816 1642.91 127.235 1641.06 126.866C1635.5 128.341 1634.39 127.235 1628.09 127.604C1628.46 125.76 1632.54 126.129 1634.02 126.497C1635.5 125.391 1635.5 123.916 1637.35 123.179C1636.61 122.81 1635.5 122.81 1634.39 122.81C1635.13 122.073 1636.61 121.335 1639.21 120.967C1639.21 122.073 1641.06 121.335 1639.58 122.81C1641.43 122.442 1641.8 121.704 1641.06 120.598C1643.28 120.598 1643.28 121.335 1641.43 122.442C1641.43 123.548 1644.76 122.073 1646.24 121.704C1644.39 121.335 1644.76 119.492 1644.39 118.017C1646.61 118.017 1647.35 119.123 1649.58 119.123C1651.8 117.28 1660.32 116.542 1664.77 114.33C1666.99 114.33 1663.65 115.805 1665.88 115.436C1668.47 114.33 1664.4 114.699 1666.62 113.592C1669.95 112.486 1669.95 113.961 1671.8 113.961C1672.92 113.592 1673.29 112.855 1674.4 112.486C1673.29 111.011 1670.32 113.592 1668.47 112.855C1668.47 111.38 1675.51 111.011 1675.88 109.537C1678.1 109.537 1677.73 111.011 1679.21 111.38C1678.47 109.905 1680.69 108.062 1687.36 106.956C1687.36 107.693 1685.14 107.693 1683.66 108.431C1686.62 109.168 1690.33 106.587 1689.96 105.112C1697.36 103.269 1698.85 104.006 1705.51 101.056C1705.51 99.5814 1702.18 100.688 1702.92 98.844C1709.22 97.7378 1706.63 95.5256 1711.81 93.3133C1715.15 92.5759 1714.4 94.0507 1717.74 92.5759C1718.48 91.101 1714.4 92.5759 1713.66 92.2071C1712.55 91.101 1715.89 90.7323 1716.26 89.9949C1717.37 90.7323 1719.59 90.3636 1719.59 91.8384C1720.33 92.2071 1722.18 91.101 1724.41 91.101C1724.04 89.9949 1719.59 91.4697 1719.96 89.6262C1723.67 88.52 1726.26 88.52 1727 89.2574C1727.37 89.9949 1726.26 90.3636 1725.15 90.7323C1725.52 91.8384 1729.22 89.9949 1731.07 89.9949C1732.56 94.7881 1747.74 82.9893 1752.19 87.4139C1758.12 85.5703 1760.34 86.3077 1763.3 86.6764C1764.04 86.3077 1764.04 85.939 1765.16 85.939C1765.53 84.4642 1760.71 87.4139 1761.08 85.939C1761.08 84.0955 1763.67 85.2016 1765.9 84.0955C1767.01 87.0452 1771.45 87.0452 1778.49 85.2016C1778.49 83.358 1774.42 84.4642 1773.68 82.9893C1778.12 81.8832 1779.97 82.2519 1784.79 81.1458C1785.9 82.9893 1791.09 82.2519 1794.42 82.6206C1793.68 83.7267 1794.05 85.2016 1791.09 87.0452C1798.5 86.6764 1806.64 85.939 1814.42 84.4642C1810.72 86.6764 1815.54 85.5703 1817.02 86.6764C1818.87 85.939 1821.09 85.5703 1821.83 84.8329C1816.28 85.2016 1811.83 81.1458 1805.16 85.2016C1805.9 82.2519 1800.72 86.6764 1800.72 83.7267C1802.94 82.9893 1803.31 83.358 1804.79 83.358C1801.09 82.6206 1798.12 81.5145 1797.38 78.5648C1801.09 77.8273 1803.31 78.1961 1804.79 78.9335C1806.64 78.1961 1806.27 77.4586 1809.61 77.0899C1808.5 77.8273 1808.13 78.1961 1808.13 78.1961C1809.24 78.1961 1809.98 78.1961 1810.72 78.5648C1812.57 78.5648 1815.16 78.9335 1814.42 80.4083C1820.35 79.3022 1823.69 79.6709 1828.5 77.8273C1828.5 78.9335 1827.02 79.6709 1829.98 79.3022C1832.95 77.0899 1825.54 78.196 1828.13 75.6151C1832.58 75.6151 1840.36 73.4028 1841.84 75.6151C1852.95 71.1905 1865.55 68.6095 1869.62 73.7715C1875.18 73.4028 1872.95 71.1905 1876.29 70.0844C1874.07 68.9782 1871.47 69.3469 1868.88 69.7157C1871.1 67.8721 1879.25 67.8721 1883.33 67.1347C1880.36 64.9224 1881.84 63.8163 1881.1 61.604C1885.18 61.9727 1888.51 64.185 1889.62 67.8721C1888.14 67.5034 1887.4 67.1347 1885.18 67.1347C1882.96 68.6095 1887.4 68.2408 1887.77 69.3469C1892.96 66.0285 1895.92 69.7157 1903.33 67.8721C1898.14 68.2408 1898.51 65.6598 1894.44 66.3972C1895.18 65.2911 1895.92 64.5537 1899.26 64.185C1898.88 61.9727 1898.14 60.1291 1894.44 60.1291C1899.63 56.8107 1905.18 59.7604 1905.55 62.7101C1909.63 64.5537 1917.04 63.8163 1917.04 67.8721C1919.63 67.8721 1920 67.5034 1920 67.5034V162.999C1920 162.999 1196.76 163 1197.5 163C1198.24 163 1199.12 162.263 1200.23 162.263C1199.12 161.894 1197.64 161.525 1196.16 161.525C1196.53 161.894 1196.16 162.263 1196.53 162.631C1195.42 162.263 1194.67 161.894 1193.56 161.894C1192.08 162.263 1191.34 162.263 1190.6 163H0.370361V102.162C3.33386 102.162 -0.00012207 99.9501 0.370361 98.844ZM1738.11 149.726C1739.22 149.726 1740.34 149.358 1741.08 148.989C1739.97 148.989 1738.85 149.358 1738.11 149.726ZM1697.73 110.274C1701.07 109.905 1701.81 108.799 1702.18 108.062C1699.59 108.431 1696.99 109.168 1697.73 110.274ZM1692.55 105.85C1692.55 107.693 1696.25 106.218 1697.36 105.112C1694.77 105.85 1694.77 104.006 1692.55 105.85ZM1688.47 119.861C1688.84 120.967 1689.21 122.073 1691.81 121.335C1691.81 120.598 1692.18 120.229 1692.55 119.861C1691.07 119.861 1689.96 119.492 1688.47 119.861ZM1681.44 124.285C1684.4 123.179 1684.03 124.285 1685.51 124.285C1686.99 122.442 1685.51 122.81 1684.03 121.335C1684.4 121.335 1685.14 120.598 1684.03 120.967C1681.81 122.442 1683.29 122.81 1681.44 124.285ZM1677.36 125.023C1677.36 125.76 1676.99 126.129 1676.62 126.497C1679.21 126.129 1678.84 127.972 1682.18 127.972C1679.95 126.497 1682.18 124.654 1677.36 125.023ZM1672.54 120.967C1676.62 120.229 1672.92 121.335 1672.92 121.704C1678.1 120.967 1674.03 122.442 1673.29 123.548C1675.14 122.81 1681.81 120.967 1679.95 120.967C1675.88 122.073 1675.88 121.335 1676.62 119.861C1674.77 120.229 1672.54 120.229 1672.54 120.967ZM1668.1 124.654C1668.47 123.916 1674.03 120.967 1669.58 122.073C1670.69 122.81 1664.02 124.285 1668.1 124.654ZM1647.35 126.497L1646.98 125.023C1643.65 125.391 1644.02 126.497 1643.28 127.235L1647.35 126.497ZM1656.62 127.604C1658.84 126.497 1661.43 127.972 1662.54 126.497C1659.95 126.866 1658.47 127.235 1661.43 125.391C1659.95 125.76 1659.21 125.76 1658.47 125.76C1659.21 126.497 1656.25 126.497 1656.62 127.604ZM1654.39 130.553C1654.76 130.553 1655.5 130.553 1655.87 130.553C1656.25 130.185 1656.62 130.185 1656.99 129.816C1655.87 129.816 1655.13 130.185 1654.39 130.553ZM1324.33 124.654C1322.85 125.023 1321.37 125.023 1321.74 126.129C1318.77 125.023 1316.92 126.497 1315.44 124.654C1314.7 125.023 1315.07 125.023 1314.7 125.391C1317.66 125.76 1321 126.129 1323.96 126.497C1325.07 126.497 1325.81 126.497 1326.18 126.129C1326.92 125.391 1324.33 125.76 1324.33 124.654ZM1597.35 145.302C1596.23 145.302 1595.12 145.302 1594.38 145.302C1595.49 145.67 1596.23 145.67 1597.35 145.302ZM1621.79 146.408C1618.83 147.145 1619.57 145.67 1616.61 146.408C1617.72 149.358 1612.16 146.408 1611.05 148.62C1612.9 148.251 1613.27 148.62 1612.16 149.358C1617.35 147.883 1621.42 148.251 1621.79 146.408ZM1629.2 143.458C1628.83 143.458 1628.46 143.458 1627.72 143.827C1628.09 143.827 1628.09 144.196 1628.46 144.196C1628.83 143.827 1628.83 143.458 1629.2 143.458ZM1624.02 142.352C1625.13 142.352 1625.87 142.721 1626.24 143.09C1626.98 143.09 1628.09 143.09 1628.83 143.09C1629.2 141.615 1626.24 140.14 1624.02 142.352ZM1618.09 142.721C1618.46 142.721 1618.83 143.09 1619.2 143.09C1619.2 143.09 1619.57 142.721 1619.94 142.721C1619.94 142.721 1620.31 142.721 1620.31 143.09C1620.68 143.09 1621.05 142.721 1621.79 142.721C1621.42 142.721 1621.05 142.721 1620.68 142.352C1621.42 141.983 1623.65 141.246 1624.02 140.877C1623.65 140.509 1623.28 140.509 1622.91 140.509C1623.28 140.509 1623.28 140.509 1623.65 140.509C1622.54 140.14 1621.42 140.509 1619.94 140.877C1620.31 140.877 1620.68 140.877 1621.05 140.877C1620.68 141.246 1618.09 141.983 1618.09 142.721ZM1611.79 143.827C1613.27 144.564 1614.39 144.933 1615.87 144.933C1616.24 144.933 1616.98 144.564 1617.35 144.564C1616.61 142.352 1613.64 143.827 1611.79 143.827ZM1606.24 132.028C1607.72 133.503 1609.57 131.659 1611.42 130.922C1610.31 129.816 1605.12 131.291 1606.24 132.028ZM1599.57 144.564C1599.94 144.564 1599.94 144.196 1600.31 144.196C1599.57 145.67 1604.75 144.196 1609.2 143.827C1609.57 143.827 1609.94 143.827 1610.68 143.458C1610.31 143.458 1610.31 143.09 1609.94 142.721C1611.79 142.352 1612.9 142.352 1614.02 141.983C1614.39 141.246 1613.27 140.877 1611.05 140.509C1607.35 142.352 1603.64 141.615 1599.94 143.458C1601.79 143.458 1602.53 143.827 1601.42 144.564C1600.68 144.564 1599.94 143.827 1599.2 144.196C1599.2 144.196 1599.2 144.196 1599.57 144.564ZM1599.2 148.251C1600.68 148.251 1602.53 148.62 1602.16 149.358C1602.9 149.358 1603.64 149.726 1604.38 149.726C1605.12 149.358 1605.87 149.358 1606.61 149.358C1605.87 148.989 1604.38 149.358 1604.38 148.62C1609.2 147.514 1606.98 148.62 1608.46 148.989C1611.79 147.883 1612.53 146.408 1615.13 145.302C1615.13 145.302 1614.76 145.302 1614.76 144.933C1614.39 145.67 1613.64 146.039 1611.79 146.039C1608.83 145.302 1611.42 144.933 1610.31 144.196C1609.57 144.564 1608.83 144.196 1608.46 144.564H1608.09C1607.35 144.933 1609.2 145.67 1607.35 146.039C1606.24 145.67 1604.75 145.67 1603.64 145.67C1602.53 145.67 1601.79 146.039 1600.68 146.408C1598.83 146.777 1600.31 147.883 1599.2 148.251ZM1572.53 142.352C1574.38 142.721 1576.23 142.721 1578.45 141.615C1576.6 140.877 1574.38 141.615 1572.53 142.352ZM1541.41 140.14C1543.26 141.615 1546.59 141.246 1546.59 140.14C1545.11 139.034 1543.26 139.771 1541.41 140.14ZM1510.29 140.877C1511.4 141.615 1512.51 141.246 1513.63 141.983C1515.48 141.246 1513.63 140.14 1517.7 139.402C1520.66 140.14 1516.22 140.877 1516.59 141.615C1521.78 141.983 1525.85 140.877 1529.18 139.771C1524 138.665 1522.89 138.665 1518.07 136.084C1515.85 137.928 1512.88 138.296 1510.29 140.877ZM1492.51 139.402C1494.73 141.615 1497.7 140.14 1500.29 140.877C1501.03 140.509 1499.55 140.14 1500.29 139.771C1501.4 139.402 1502.51 140.509 1503.62 140.877C1505.85 139.034 1506.22 139.771 1508.44 138.665C1504.36 137.559 1500.66 137.19 1496.21 137.559C1499.55 139.771 1494.73 138.296 1492.51 139.402ZM1468.06 136.453C1469.91 137.559 1471.77 137.928 1473.62 136.821C1472.14 136.821 1470.28 135.715 1468.06 136.453ZM1431.76 132.028C1432.13 133.872 1438.06 133.872 1441.02 133.134C1438.43 131.659 1435.09 132.028 1431.76 132.028ZM1368.78 126.129C1368.41 127.235 1370.26 126.866 1372.12 127.604C1374.34 126.866 1371.01 125.023 1368.78 126.129ZM1309.88 123.548C1309.88 124.285 1312.85 123.916 1312.48 125.023C1313.59 125.023 1312.85 124.654 1312.48 124.654C1316.92 123.916 1322.48 123.179 1327.66 125.023C1326.55 125.391 1325.81 126.129 1326.18 127.235C1339.52 129.078 1352.48 130.553 1365.82 132.397C1396.57 136.084 1426.94 139.771 1457.32 142.352C1487.69 145.302 1517.7 147.514 1548.45 148.989C1557.71 149.358 1570.67 148.989 1576.6 150.464C1581.42 149.358 1586.23 150.095 1591.05 149.358C1590.31 148.251 1590.31 148.251 1594.75 146.408C1594.75 145.67 1592.53 146.039 1592.53 145.67C1591.42 145.67 1589.94 145.302 1587.71 144.564C1589.57 143.827 1595.86 144.933 1591.42 143.09C1593.27 141.983 1598.46 143.827 1598.09 141.983C1595.86 141.615 1593.27 142.721 1591.05 140.877C1588.45 142.721 1586.23 140.877 1583.64 141.983C1585.12 143.09 1586.6 141.983 1588.08 142.721C1585.49 143.458 1588.08 143.827 1588.08 144.564C1585.86 145.67 1583.64 145.67 1581.42 144.933C1582.53 144.564 1584.38 143.827 1583.64 143.458C1582.53 143.827 1581.79 143.09 1580.68 143.458C1577.71 144.196 1581.05 144.933 1578.45 145.67C1571.41 144.196 1561.41 146.408 1556.97 142.352C1555.86 142.721 1551.41 142.352 1552.52 143.458C1553.63 144.564 1558.08 143.09 1556.6 144.933C1552.52 143.827 1540.67 145.67 1544 141.983C1542.89 141.615 1542.15 141.615 1541.04 141.983C1538.07 142.721 1541.41 143.458 1538.44 144.196C1526.96 143.827 1511.77 141.983 1502.51 142.721C1489.92 140.509 1476.58 140.509 1463.99 139.034C1464.36 139.402 1465.1 139.771 1464.36 140.14C1460.28 138.296 1453.98 137.928 1447.32 137.559C1440.65 137.19 1433.61 136.821 1427.68 135.715C1426.57 136.084 1427.31 136.821 1426.57 137.19C1418.42 135.347 1410.27 135.347 1402.12 133.503C1402.86 133.872 1403.6 134.609 1401.75 134.609C1398.05 132.397 1391.75 130.922 1389.53 132.766C1381.01 129.447 1371.01 131.659 1362.11 128.341C1362.48 129.816 1355.08 128.341 1358.04 127.235C1359.15 128.71 1364.34 127.972 1363.23 126.866C1359.52 125.76 1361 125.391 1359.52 123.916C1352.85 123.916 1353.96 126.866 1354.34 127.604C1347.67 126.129 1340.63 126.129 1333.96 125.76C1332.48 125.023 1333.22 124.654 1332.11 123.916C1326.55 124.285 1321 123.916 1315.07 123.179C1313.96 123.179 1310.99 122.81 1309.88 123.548ZM1289.88 120.598C1290.99 121.335 1293.21 121.704 1295.44 122.073C1295.44 121.704 1293.95 121.704 1292.84 121.335C1295.81 120.598 1298.4 120.598 1300.99 120.598C1297.66 119.861 1293.95 119.492 1290.62 119.123C1290.25 119.492 1289.88 120.229 1289.88 120.598ZM1203.57 111.011C1202.45 110.643 1199.86 110.643 1198.01 110.274C1199.49 110.274 1201.34 110.643 1203.57 111.011ZM1282.84 118.386C1284.32 119.123 1285.8 119.123 1287.29 118.754C1285.8 118.754 1284.32 118.386 1282.84 118.386ZM1279.88 118.754C1281.73 118.754 1282.1 119.123 1283.58 119.492C1284.32 118.386 1282.1 118.754 1281.73 118.017C1281.36 118.017 1280.99 118.017 1280.62 118.017C1280.25 118.386 1280.25 118.754 1279.88 118.754ZM1225.79 110.643C1223.57 110.643 1221.72 111.011 1220.24 112.118C1222.09 113.224 1226.16 113.224 1228.01 114.33C1240.98 116.173 1253.95 117.648 1267.28 119.492C1266.91 119.123 1266.91 118.754 1266.91 118.017C1269.5 118.017 1268.76 119.123 1269.13 119.861C1270.24 119.861 1271.36 120.229 1272.84 120.229C1272.1 119.861 1271.73 119.492 1271.36 119.123C1273.95 119.123 1274.32 119.861 1275.06 120.229C1276.91 120.598 1278.77 120.598 1280.62 120.967C1281.73 118.754 1278.02 118.754 1276.54 117.648C1273.95 116.542 1273.21 116.542 1270.99 115.436C1269.87 115.805 1270.62 116.173 1269.13 116.542C1257.28 114.33 1245.8 113.224 1234.68 111.749C1236.16 112.486 1238.39 113.224 1240.98 113.224C1240.61 115.436 1230.61 113.961 1229.87 112.118C1232.09 112.118 1231.72 113.224 1234.31 112.855C1233.57 112.118 1232.46 111.38 1230.61 111.011C1229.87 111.011 1228.01 111.011 1225.79 110.643ZM1221.35 110.274C1221.72 110.274 1221.72 110.274 1222.09 110.274C1221.72 110.274 1221.35 110.274 1221.35 110.274ZM1190.97 105.85C1193.56 108.431 1206.9 106.956 1205.79 111.011C1211.72 111.749 1217.64 112.486 1223.94 113.224C1222.46 112.855 1220.61 112.486 1218.75 112.486V110.643L1221.35 111.011C1220.24 110.643 1219.86 110.274 1219.49 109.905C1210.23 108.799 1200.97 107.693 1190.97 105.85C1191.34 105.85 1191.34 105.85 1190.97 105.85ZM1188.75 109.168C1191.71 109.537 1194.67 109.905 1197.27 110.274C1196.16 110.274 1195.42 109.905 1195.42 109.168C1192.82 109.537 1190.6 108.431 1188.75 109.168ZM1182.08 106.956C1186.9 106.956 1185.41 107.324 1189.49 108.062C1189.12 106.956 1190.23 106.587 1190.23 105.85C1189.49 105.85 1188.75 105.481 1188.01 105.481C1187.27 105.85 1186.15 105.85 1184.67 105.85C1185.04 106.956 1180.6 105.112 1182.08 106.956ZM1171.71 104.375C1173.93 104.375 1176.15 104.743 1177.26 105.112C1177.63 104.743 1177.26 104.006 1176.89 104.006C1176.52 103.637 1175.78 103.637 1175.41 103.269C1173.93 103.269 1171.71 103.637 1171.71 104.375ZM1153.56 101.794C1155.41 103.269 1157.26 103.269 1155.04 104.743C1156.15 104.743 1156.89 105.112 1158 105.112C1157.63 104.743 1157.63 104.375 1158.74 104.006C1160.22 104.375 1161.71 105.112 1163.56 105.481C1165.04 105.481 1166.15 105.85 1167.63 105.85C1167.26 105.481 1167.26 105.112 1167.26 104.743L1170.97 105.112C1170.97 105.481 1170.6 105.481 1170.23 105.481C1169.48 105.481 1169.86 105.85 1170.23 106.218C1173.56 106.587 1177.26 106.956 1180.6 107.324C1182.82 107.693 1185.41 108.062 1187.64 108.062C1184.67 106.956 1180.23 106.587 1177.63 105.481C1176.15 105.481 1178.01 106.218 1177.63 106.956C1173.19 106.218 1171.34 104.743 1170.23 102.9C1169.48 102.9 1169.11 102.9 1168.74 102.531C1168.37 102.9 1168.37 103.269 1168.37 104.006C1166.89 103.637 1166.15 103.269 1164.67 102.9C1165.04 102.531 1166.15 102.531 1166.52 102.162C1166.15 102.162 1165.41 101.794 1165.04 101.794C1163.19 101.794 1160.96 102.9 1159.48 102.9C1158 102.9 1157.63 102.162 1157.26 101.425C1155.41 101.794 1154.67 101.794 1153.56 101.794ZM1112.44 98.844C1112.81 98.4753 1112.44 98.1065 1113.18 98.1065C1116.88 99.2127 1118.36 98.4753 1121.7 98.844V100.319C1124.66 99.5814 1125.77 101.056 1129.11 101.794C1125.4 99.5814 1133.18 101.056 1130.96 100.319C1127.62 100.319 1125.03 101.056 1125.4 98.844C1123.18 98.844 1120.96 98.4753 1118.73 98.1065L1112.44 97.7378C1113.18 98.1065 1109.47 98.4753 1112.44 98.844ZM1102.06 98.844C1102.43 98.844 1102.43 98.844 1102.81 98.844C1105.4 98.844 1108.73 99.2127 1109.47 98.1065C1108.36 98.1065 1107.99 95.5256 1106.51 97.0004C1109.84 98.4753 1100.58 97.0004 1102.06 98.844ZM1089.84 95.1568C1088.36 95.8943 1086.14 96.6317 1083.91 97.0004C1088.36 97.3691 1092.8 97.7378 1097.62 98.4753C1096.51 98.1065 1095.77 98.1065 1094.66 97.7378C1093.91 96.6317 1099.1 98.4753 1098.36 97.0004C1096.51 95.8943 1090.95 96.6317 1089.84 95.1568ZM1077.62 93.682C1077.62 95.5256 1079.47 96.263 1082.43 96.6317C1083.17 95.8943 1084.65 95.8943 1084.28 94.7881V94.4194C1082.06 93.682 1079.84 93.682 1077.62 93.682ZM1057.98 92.5759C1063.54 93.3133 1070.21 94.7881 1075.76 96.6317C1076.5 96.6317 1077.24 96.6317 1077.99 97.0004C1077.99 95.1568 1073.54 95.5256 1075.76 93.682C1073.54 94.0507 1070.95 93.682 1068.35 93.3133C1068.35 93.3133 1067.98 93.682 1067.24 93.682C1066.5 93.3133 1065.39 92.9446 1064.28 92.9446C1062.06 92.2071 1059.83 91.8384 1057.98 92.5759ZM1050.57 92.9446C1054.65 92.5759 1053.17 92.9446 1056.13 93.682C1056.87 92.5759 1049.83 91.101 1050.57 92.9446ZM1035.76 73.4028C1038.72 73.7715 1041.31 74.1402 1044.28 74.1402C1041.31 73.4028 1038.72 72.6654 1035.76 73.4028ZM1025.38 72.6654C1026.12 72.6654 1027.24 72.6654 1027.98 72.6654C1027.98 72.2966 1027.61 72.2966 1027.98 71.9279C1026.12 71.9279 1026.12 72.6654 1025.38 72.6654ZM988.339 70.8218C990.191 70.8218 991.673 71.1905 993.525 71.1905C991.673 70.8218 989.08 70.4531 988.339 70.8218ZM974.262 70.0844C977.966 70.4531 982.041 70.4531 985.746 70.8218C982.782 69.7157 978.337 69.7157 974.262 70.0844ZM743.106 78.1961C746.07 78.9335 744.958 77.4586 747.922 76.7212C748.292 77.0899 748.663 77.8273 750.145 77.0899C749.774 75.6151 743.847 77.0899 743.106 78.1961ZM723.473 77.0899C723.102 78.1961 729.77 78.1961 728.289 76.7212C725.695 77.4586 725.696 76.3525 723.473 77.0899ZM713.841 81.8832C713.471 84.0955 717.546 82.9893 720.139 82.9893C719.768 81.1458 716.805 81.1458 713.841 81.8832ZM665.684 91.8384C667.907 91.4697 669.388 90.7323 670.129 89.9949C668.647 89.6261 663.832 90.3636 665.684 91.8384ZM573.814 92.9446C579 91.4697 582.334 91.8384 586.78 91.101C585.298 89.2574 579.741 89.9949 576.037 91.101C577.519 90.7323 579 90.3636 579 91.101C577.519 90.7323 573.444 91.8384 573.814 92.9446ZM517.137 92.2071C518.619 91.8384 520.841 91.101 520.1 89.9949C518.248 89.6261 516.025 90.7323 517.137 92.2071ZM390.816 94.4194C390.446 96.263 396.743 95.1568 395.261 93.682C392.668 94.0507 393.78 94.7881 390.816 94.4194ZM378.221 74.1402C381.184 74.1402 380.073 72.2967 380.814 71.1905C378.221 71.5592 377.48 73.0341 378.221 74.1402ZM235.231 76.7212C234.49 75.9838 231.156 76.3525 231.896 74.8776L228.562 74.5089C228.562 75.6151 230.044 75.9838 229.303 77.4586C234.119 78.1961 232.637 76.3525 235.231 76.7212ZM243.38 75.6151C241.528 75.6151 239.305 75.6151 239.305 77.0899C241.528 76.7212 243.38 76.7212 243.38 75.6151ZM303.392 82.2519C301.169 82.9893 298.206 81.1458 298.576 83.7267C300.799 83.358 303.762 83.7268 303.392 82.2519ZM243.01 114.699C240.787 116.173 237.824 114.699 237.083 116.542L241.157 116.911C242.269 116.173 242.269 115.067 243.01 114.699ZM248.196 115.805C245.973 116.173 245.973 115.067 244.121 115.067V116.542C245.973 116.542 247.455 116.542 248.196 115.805ZM257.457 108.062C256.346 108.431 250.789 108.431 253.382 109.537C254.123 109.168 259.68 109.168 257.457 108.062ZM233.749 100.688C236.342 101.056 238.564 100.688 239.676 100.319C235.971 100.319 237.083 98.4753 234.49 98.1065C234.49 98.844 233.008 99.2127 233.749 100.688ZM231.156 97.7378C231.156 97.0004 231.526 96.6317 231.896 96.6317C229.674 96.263 227.451 96.263 225.229 96.263C227.081 96.6317 228.562 97.3691 231.156 97.7378ZM221.154 110.274C222.265 110.643 225.599 110.274 225.599 111.38C223.006 112.486 228.192 112.118 226.34 115.067C228.933 114.699 233.008 115.067 234.119 113.592C234.86 115.067 233.008 114.699 233.378 115.805C236.712 115.805 232.637 116.911 235.971 117.28C236.342 116.173 238.194 115.436 238.564 114.33C234.119 113.961 237.083 112.855 234.49 112.118C233.378 112.855 231.526 113.224 229.303 113.224C226.34 110.643 233.008 111.749 229.303 109.168C237.453 108.799 242.269 110.643 251.9 110.274C252.641 109.168 250.048 109.168 250.048 108.431C254.123 108.799 255.605 107.693 255.975 105.85C253.753 105.112 249.307 105.112 250.789 103.269C247.455 103.269 248.196 101.794 245.603 101.425C244.862 102.9 247.085 102.9 247.455 103.637C241.528 102.9 235.601 104.743 231.526 102.531C231.526 101.794 232.637 102.162 232.267 101.425C230.785 100.688 229.674 101.425 228.192 101.425C229.303 101.056 228.933 100.319 227.451 99.9501C227.451 100.319 227.451 101.056 226.71 101.056C225.969 100.319 225.969 99.2127 223.376 99.2127C225.599 101.425 221.524 99.9501 220.783 101.056C223.006 101.794 225.229 102.162 227.451 101.794C225.969 102.531 227.822 102.531 227.451 104.006C225.969 104.006 223.376 102.9 224.117 104.375C228.563 104.743 228.562 106.587 230.785 107.693C227.451 107.324 225.229 106.587 223.006 106.956C223.376 108.062 226.34 108.062 227.081 108.799C225.599 109.537 224.117 108.431 221.895 108.062C222.265 109.537 221.154 109.537 221.154 110.274ZM222.635 111.38C221.524 111.38 220.783 111.011 220.042 110.643C220.413 111.38 218.931 112.855 220.783 112.855C221.154 112.118 223.376 112.855 222.635 111.38ZM146.324 102.9C145.213 101.794 141.879 101.056 141.138 102.531C142.62 102.531 145.954 103.637 146.324 102.9ZM149.658 99.5814C149.658 98.4753 148.177 98.1066 148.917 96.6317C146.695 96.263 146.324 95.5256 143.731 95.5256C144.843 97.3691 141.509 96.6317 139.286 96.263C140.397 99.9501 146.324 98.4753 149.658 99.5814ZM42.9712 99.9501C45.5643 100.319 50.38 102.162 51.1208 100.319C49.639 99.5814 44.8234 99.5814 42.9712 99.9501ZM23.7083 76.7212C27.0422 77.4586 27.0421 78.5648 30.7466 79.6709C31.4874 78.5648 32.2284 77.8273 31.8579 76.3525C28.1534 75.9838 24.8196 75.6151 23.7083 76.7212ZM25.5604 65.6598C22.2264 65.2911 20.0038 63.4475 19.2629 65.2911C22.9674 65.2911 25.1899 67.8721 25.5604 65.6598ZM16.2993 92.2071C17.0402 94.7881 17.7811 94.4194 17.7811 97.0004L21.4856 97.7378C20.7448 95.5256 16.6697 94.4194 20.0037 92.9446L16.2993 92.2071ZM12.9655 87.0452C10.7428 86.6764 9.26099 86.6764 8.52014 87.0452C9.26099 87.4139 9.63147 87.7826 9.26099 88.1513C11.8541 88.8887 13.3359 88.52 12.9655 87.0452ZM192.259 102.531C193.371 102.162 194.111 99.5814 191.518 99.2127C191.518 101.425 189.666 101.425 192.259 102.531ZM532.695 86.6764C534.547 86.3077 535.288 87.0452 537.141 86.3077C537.141 85.2016 538.252 84.0955 535.659 84.4642L536.029 85.2016C534.918 85.939 532.695 86.3077 532.695 86.6764ZM541.215 66.3972C542.697 63.8163 544.549 64.9224 547.883 64.9224C548.254 63.8163 550.477 62.3414 551.958 63.4475C553.811 60.1291 547.142 63.8163 541.956 64.5537C543.438 63.0788 541.586 64.185 540.475 63.4475C533.807 65.2911 524.175 68.2408 520.471 68.9782C526.768 69.3469 536.77 63.0788 540.475 66.0285C540.845 66.0285 540.475 66.766 541.215 66.3972ZM261.902 91.8384C264.495 92.2071 264.866 94.0507 267.829 94.4194C265.977 92.2071 271.534 94.0507 271.904 92.9446C270.793 92.5759 270.422 92.2071 269.311 91.8384C268.941 94.4194 263.384 90.3636 261.902 91.8384ZM471.943 86.6764C473.795 85.939 477.87 85.939 478.24 84.8329C476.388 84.4642 472.313 84.8329 471.943 86.6764ZM1624.76 125.023C1622.54 126.497 1619.57 125.391 1618.09 126.866C1623.28 126.129 1622.91 126.866 1625.13 127.235C1624.39 126.129 1626.61 125.76 1624.76 125.023ZM283.018 93.3133C281.165 94.0507 278.943 94.0507 278.202 95.5256H283.018V93.3133ZM253.382 88.52C251.53 88.1513 249.678 89.2574 251.9 89.6262C253.012 88.8887 253.753 88.1513 255.975 88.1513C259.68 88.52 264.495 91.4697 266.718 89.9949C261.532 88.52 255.975 87.0452 251.16 86.6764C249.678 88.1513 253.012 87.7826 253.382 88.52ZM353.772 70.0844C353.031 73.7715 356.735 71.5592 355.995 74.1402C360.44 73.7715 354.883 70.8218 353.772 70.0844ZM166.328 79.6709C164.476 78.1961 157.808 76.7212 157.808 79.3022C163.365 81.1458 164.106 81.5145 170.774 82.6206C168.18 81.1458 163.735 81.1458 166.328 79.6709ZM135.952 79.6709C136.323 81.5145 133.359 80.4083 133.359 81.8832C135.211 83.7267 138.175 80.777 135.952 79.6709ZM167.069 97.0004C168.551 98.4753 173.737 96.6317 169.662 95.5256C170.774 97.3691 167.069 95.8943 167.069 97.0004ZM135.582 84.4642C136.322 85.5703 138.916 87.0452 134.47 86.6764C133.729 88.1513 137.063 88.52 139.656 88.8887C141.138 87.4139 142.25 86.6765 142.25 85.2016C140.027 84.8329 139.656 84.0955 137.804 83.7267C139.656 86.3077 138.175 84.0955 135.582 84.4642ZM344.511 74.5089C344.511 74.1402 345.622 74.1402 346.733 74.1402C346.733 73.0341 345.252 73.4028 346.363 72.2966C344.511 72.2966 344.14 73.0341 341.918 73.0341C341.918 74.1402 343.77 73.7715 344.511 74.5089ZM894.987 65.2911C892.394 67.1347 890.913 64.5537 889.431 66.3972C891.283 66.766 894.247 66.766 896.469 67.1347C896.469 66.3972 894.987 66.3972 894.987 65.2911ZM122.616 69.3469C121.134 68.9782 122.246 68.2408 122.616 67.8721C121.505 67.5034 120.394 66.766 119.282 66.3972C118.541 67.8721 121.875 70.0844 122.616 69.3469ZM216.708 92.5759C216.338 91.8384 216.338 90.7323 214.856 89.9949C214.486 90.7323 213.374 90.7323 212.263 89.9949C213.004 91.4697 214.856 91.8384 216.708 92.5759ZM108.91 63.4475C109.28 61.604 105.576 61.2353 103.724 59.7604C104.094 61.604 105.946 62.7101 108.91 63.4475ZM62.9751 98.1065C55.5663 96.6317 64.8271 95.1568 59.641 92.9446C55.5662 93.3133 62.6046 96.263 56.6775 95.5256C56.307 97.0004 56.3071 98.1065 58.1593 98.844C57.4185 95.1568 62.2343 99.9501 62.9751 98.1065ZM47.4165 85.939C51.8618 87.0452 49.2687 82.6206 52.9731 85.5703C52.6027 84.8329 54.0844 83.358 52.2322 83.358C49.2687 85.5703 44.453 81.5145 40.7485 81.1458C40.7485 82.9893 51.8618 83.7267 47.4165 85.939ZM110.762 57.9168C111.503 57.9168 112.614 58.2856 113.355 58.2856C114.096 57.1794 110.762 55.3359 109.28 56.0733C110.762 56.8107 111.133 57.1794 110.762 57.9168ZM37.0442 81.8832L38.8964 82.2519C38.8964 81.8832 39.6372 81.8832 40.0077 81.5145C38.8964 81.1458 38.5259 80.777 38.1554 80.4083C38.5259 80.4083 39.2668 80.4083 38.8964 80.0396L37.0442 79.6709C36.6737 79.6709 35.9327 79.6709 35.9327 80.0396C38.8962 81.1458 37.0442 80.777 37.0442 81.8832ZM70.3839 77.8273C70.7544 75.9838 65.1978 75.9838 66.3091 73.7715C70.7544 75.2464 72.2361 77.8273 75.9406 79.6709C75.1997 75.9838 81.8676 80.0396 83.3494 77.8273C79.6449 76.7212 76.3109 77.8273 74.4587 76.3525C74.8292 75.6151 77.0519 75.9838 77.0519 74.8776C74.4587 73.7715 72.2361 72.2967 69.2726 71.1905C65.5681 70.8218 68.5316 72.6654 65.5681 72.6654C60.382 71.9279 61.8638 68.9782 58.9003 67.5034C57.0481 69.347 60.382 69.3469 60.382 71.1905C56.6775 71.9279 55.9368 69.7157 53.3436 70.8218C56.6776 72.2967 59.2706 72.6654 65.5681 73.7715C64.4568 75.9838 67.0499 77.0899 70.3839 77.8273ZM109.651 105.85C105.946 105.112 102.612 103.269 100.019 104.375C102.242 105.481 108.91 106.218 109.651 105.85ZM94.0922 103.269C91.8695 101.794 87.7947 102.162 87.7947 102.531C90.0173 102.162 91.8695 104.375 94.0922 103.269ZM351.549 70.8218C350.438 70.4531 349.697 70.0844 348.956 69.7157C351.179 67.1347 354.513 70.0844 357.847 67.8721C358.588 68.9782 355.995 69.3469 358.958 69.3469C360.069 68.6095 358.958 68.6095 358.588 67.1347C361.922 68.2408 360.81 65.6598 359.329 66.3972C362.292 64.9224 365.256 64.9224 368.59 63.0788C365.256 62.3414 365.996 61.604 360.81 61.2353C360.44 60.1291 365.996 59.7604 362.662 58.2856C361.551 59.7604 354.142 60.4978 360.069 61.2353C351.549 60.8666 352.661 63.0788 347.474 64.5537C350.068 64.5537 352.29 64.5537 353.772 65.2911C353.401 67.8721 347.845 65.2911 346.363 66.3972C347.104 66.766 348.215 68.9782 344.511 68.6095C347.474 68.9782 345.993 72.6654 351.549 70.8218ZM698.653 76.3525C700.135 75.6151 703.469 75.2464 704.21 74.1402C699.765 74.5089 699.394 74.8776 697.172 74.1402C700.876 73.7715 696.801 71.5592 700.135 70.8218C698.653 71.1905 697.912 71.1905 697.172 70.8218C697.172 72.6654 694.949 74.8776 698.653 76.3525ZM843.866 24.7327C843.866 23.9953 844.237 23.6266 844.607 23.2579C841.644 23.2579 839.421 23.6266 838.68 24.7327C840.903 24.364 842.385 24.364 843.866 24.7327ZM882.392 66.766C884.245 66.3972 888.319 67.1347 888.319 66.0285C886.838 65.6598 882.392 65.6598 882.392 66.766ZM845.719 66.766C847.941 66.766 848.312 65.6598 851.646 65.6598C852.387 66.766 853.498 65.6598 854.98 67.1347C854.239 66.0285 859.055 67.8721 858.684 66.3972C856.832 66.3972 857.573 64.9224 855.35 65.2911C855.35 65.6598 855.35 66.0285 854.609 66.3972C854.239 65.6598 854.609 64.9224 853.127 64.5537C851.646 66.0285 845.719 63.8163 845.348 65.6598C845.348 64.9224 843.866 64.5537 843.125 65.2911C844.607 65.6598 845.719 66.0285 845.719 66.766ZM856.091 28.4198C856.091 27.6824 856.461 27.3137 856.832 26.945C854.239 27.3137 853.868 28.0511 851.646 27.3137C851.646 28.7885 853.127 28.7885 856.091 28.4198ZM860.536 66.766C869.427 66.766 868.316 67.1347 874.243 66.766C870.909 65.2911 868.686 66.0285 864.982 64.5537C869.427 67.5034 860.166 63.4475 860.536 66.766ZM820.158 68.9782C819.047 66.0285 827.938 68.2408 827.567 66.3972C824.604 66.766 824.233 66.3972 825.344 65.6598C819.788 66.0285 820.158 65.2911 819.788 67.1347C815.342 67.5034 817.195 66.3972 814.602 66.0285C815.342 66.766 811.638 69.3469 813.12 68.6095C815.343 67.1347 818.676 68.2408 820.158 68.9782ZM885.726 18.0959C879.058 17.7272 872.02 17.3584 864.241 17.3584C864.611 18.8333 858.314 18.0959 859.425 19.9394C864.241 16.621 877.947 19.5707 885.726 18.0959ZM876.836 19.9394C880.17 20.6769 881.281 19.5707 886.097 19.5707C884.985 18.8333 877.577 19.202 876.836 19.9394ZM613.822 54.5984C618.267 52.0174 624.194 54.2297 625.676 51.6487C622.342 51.6487 616.045 53.861 614.193 52.7549C614.563 53.4923 613.452 53.861 613.822 54.5984ZM595.67 79.6709C595.3 79.6709 594.559 80.0396 594.929 80.4083C596.411 80.0396 597.893 79.3022 598.264 78.5648C594.93 80.0396 593.818 77.0899 591.596 79.3022C593.077 79.3022 595.3 78.9335 595.67 79.6709ZM376.739 60.1291C374.517 60.1291 377.48 59.023 376.369 58.2856C374.517 58.2856 374.517 59.3917 374.517 60.1291C375.257 60.1291 378.591 60.8666 376.739 60.1291ZM587.891 79.3022C587.521 81.1458 584.187 78.1961 583.446 80.4083C584.187 80.4083 584.557 80.4083 584.557 81.1458C583.446 81.5145 581.964 81.8832 581.964 82.2519C585.668 80.777 590.114 80.4083 587.891 79.3022ZM381.925 59.7604C381.925 59.023 382.296 58.6543 382.296 58.2856C380.073 59.023 379.333 59.023 377.851 58.2856C378.221 59.3917 380.073 59.3917 381.925 59.7604ZM40.0077 76.3525C42.2303 75.9838 42.9712 74.8776 42.9712 72.6654C41.8599 72.2966 41.119 72.6654 40.3782 72.6654C40.7487 71.9279 39.2667 71.1905 38.5259 71.9279C40.7485 73.4028 38.8964 75.6151 40.0077 76.3525ZM718.657 65.6598C715.694 67.1347 712.73 66.766 711.248 67.5034C713.1 68.6095 717.546 67.5034 718.657 65.6598ZM741.625 70.4531C740.143 70.0844 739.402 69.7157 736.438 70.4531C736.438 71.5592 741.625 71.1905 741.625 70.4531ZM681.243 75.6151C681.983 75.6151 682.354 75.2464 682.354 75.9838C681.613 76.3525 680.502 76.3525 680.502 76.7212L685.317 75.6151C685.688 74.1402 681.243 74.5089 681.243 75.6151ZM9.26099 12.5652C9.63147 12.1965 10.7428 11.8278 10.3723 11.0903C6.29749 8.87805 6.29749 11.459 9.26099 12.5652ZM1226.16 78.5648C1226.16 77.8273 1227.27 78.1961 1226.9 77.4586C1225.05 77.4586 1225.05 76.7212 1223.94 76.3525C1222.83 76.7212 1224.31 78.1961 1226.16 78.5648ZM47.046 81.1458C46.6755 78.1961 46.6755 79.6709 48.8982 78.9335C48.1573 78.5648 47.787 78.1961 48.1575 77.8273C43.7122 76.7212 43.3416 80.4083 47.046 81.1458ZM1229.13 48.699C1229.5 47.5929 1227.27 47.5929 1228.01 46.4868C1219.86 45.7493 1225.05 46.4867 1229.13 48.699ZM1132.44 66.3972C1132.44 66.766 1132.44 67.5034 1133.55 67.8721C1133.18 66.0285 1137.26 67.8721 1137.26 68.6095C1142.44 68.2408 1149.48 70.0844 1155.04 70.8218C1153.93 69.7157 1156.89 68.9782 1155.04 68.6095C1154.67 69.3469 1153.19 68.9782 1152.44 69.3469C1152.81 66.766 1149.48 67.1347 1149.48 64.9224C1148.74 66.766 1139.11 63.4475 1140.22 65.6598C1138.37 65.2911 1139.48 64.185 1138.37 63.8163C1130.59 63.4475 1121.33 63.8163 1115.03 61.604C1116.51 63.4475 1117.25 62.3414 1114.29 63.4475C1119.1 63.0788 1126.51 68.2408 1132.44 66.3972ZM1264.69 53.4923C1267.65 54.2297 1266.54 52.3862 1269.13 53.1236C1269.87 55.3359 1274.32 54.5984 1275.43 56.0733C1273.58 53.861 1278.02 56.8107 1280.99 56.442C1276.17 53.1236 1266.54 53.1236 1259.87 51.6487C1259.87 53.861 1263.95 51.6487 1264.69 53.4923ZM1032.79 59.023C1031.31 59.023 1029.46 59.023 1027.98 58.6543C1027.24 60.4978 1033.16 60.4978 1032.79 59.023ZM1033.9 63.8163C1030.94 63.8163 1029.83 64.5537 1027.24 64.9224C1030.57 65.2911 1022.05 66.0285 1026.49 67.1347C1026.49 66.0285 1032.79 63.8163 1030.2 66.3972C1033.53 66.3972 1032.05 64.5537 1033.9 63.8163ZM1151.7 60.4978C1148.74 60.1291 1147.26 60.4978 1147.26 61.9727C1149.48 61.9727 1151.7 61.9727 1151.7 60.4978ZM1402.12 103.637C1405.83 104.006 1412.87 105.481 1419.16 106.218C1422.13 106.587 1428.05 107.324 1428.79 105.85C1427.68 105.85 1426.57 105.481 1426.94 104.743C1424.35 104.375 1425.83 106.218 1422.5 105.481C1422.5 105.112 1423.98 104.375 1422.5 104.006C1417.31 105.112 1408.42 103.269 1402.12 103.637ZM1447.32 106.956C1444.35 106.956 1440.28 105.112 1439.54 106.956C1441.76 106.956 1446.2 108.062 1447.32 106.956ZM1515.48 96.6317C1515.11 98.1066 1513.63 96.263 1512.14 96.6317C1511.03 98.844 1518.81 97.3691 1515.48 96.6317ZM1438.43 106.218C1435.09 106.587 1436.57 105.112 1433.98 105.112C1429.91 106.218 1438.43 108.431 1438.43 106.218ZM1573.27 90.7323C1574.75 90.3636 1576.97 90.3636 1577.34 89.6262C1575.49 88.52 1573.27 88.8887 1573.27 90.7323ZM1415.83 81.8832C1411.01 81.1458 1400.27 78.9335 1394.71 80.4083C1402.49 80.0396 1412.12 83.358 1415.83 81.8832ZM1051.68 54.2297C1045.02 51.6487 1035.01 49.0677 1024.64 50.9113C1021.31 49.8052 1027.98 50.1739 1024.64 49.0677C1020.2 50.1739 1009.82 48.3303 1009.45 49.4365C1021.31 51.28 1040.2 55.7046 1051.68 54.2297ZM1371.75 79.6709C1379.15 80.0396 1368.78 78.1961 1368.04 79.3022C1370.26 80.4083 1369.89 79.3022 1371.75 79.6709ZM1196.9 50.9113C1198.75 51.28 1198.75 50.5426 1199.49 50.1739C1199.49 52.0174 1203.94 54.5984 1206.16 53.1236C1210.97 56.442 1220.61 60.1291 1230.98 59.7604C1236.16 61.604 1243.57 64.9224 1249.13 63.4475C1249.87 65.2911 1256.17 64.5537 1258.39 65.6598C1258.39 65.2911 1258.76 64.5537 1260.24 64.9224C1272.84 68.9782 1285.43 68.6095 1298.4 71.9279C1298.77 69.7157 1304.7 72.2967 1306.55 71.1905C1303.21 70.4531 1301.36 68.9782 1298.4 68.2408C1298.4 68.6095 1298.77 69.3469 1297.66 69.3469C1296.18 68.9782 1294.69 68.6095 1295.06 67.5034C1294.69 66.0285 1299.51 67.8721 1298.77 66.0285C1283.21 68.2408 1272.47 57.1794 1258.02 59.023C1258.02 58.2856 1257.28 57.9168 1256.17 57.5481C1252.83 59.7604 1246.91 54.9671 1244.31 56.8107C1244.68 54.5984 1237.65 54.9671 1235.05 54.9671C1229.13 51.28 1219.49 52.7549 1212.09 49.8052C1211.34 50.1739 1209.12 50.1739 1208.38 50.9113C1208.75 49.0677 1205.42 49.0677 1207.64 50.9113C1206.16 50.9113 1204.68 50.9113 1203.94 50.9113C1203.2 49.4365 1205.79 49.8052 1203.94 48.699C1201.34 47.9616 1201.71 50.5426 1201.34 48.3303C1198.01 48.699 1195.05 49.8052 1196.9 50.9113ZM1255.43 52.7549C1256.91 52.7549 1257.65 52.7549 1258.02 52.0174C1255.06 52.0174 1256.91 50.1739 1253.58 50.1739C1252.83 51.6487 1256.17 51.6487 1255.43 52.7549ZM897.21 66.766C899.062 66.766 899.803 67.5034 902.396 67.5034C901.655 66.3972 897.58 64.9224 897.21 66.766ZM4.07471 86.3077C0.370239 84.8329 2.96338 84.4642 1.48157 82.6206C4.81555 83.7267 0.740845 81.1458 5.927 82.6206C5.18616 80.777 2.9635 81.1458 0 79.3022V85.2016C2.59314 85.939 4.81555 87.0452 4.07471 86.3077ZM909.435 20.3082C914.621 19.9394 917.214 20.3082 918.325 19.202C914.621 19.202 911.287 19.5707 909.435 20.3082ZM918.696 65.6598C916.844 68.2408 910.175 64.185 907.953 66.766C914.991 67.1347 923.882 68.2408 933.513 68.2408C929.439 66.3972 922.4 68.2408 918.696 65.6598ZM1579.19 90.3636C1595.86 88.8887 1609.2 90.7323 1626.61 88.8887C1628.09 89.6262 1636.98 89.9949 1636.24 88.52C1633.28 88.1513 1631.8 86.6764 1627.72 87.0452C1614.76 88.52 1591.79 88.1513 1577.71 88.8887C1578.45 89.2574 1580.3 89.2574 1579.19 90.3636ZM7.03821 8.87805C8.14954 9.24677 8.8905 9.61548 9.63135 9.98419V7.77191C7.40869 7.03448 7.40869 8.14062 7.03821 8.87805ZM33.3397 67.8721C34.0806 66.3972 30.3762 66.0285 28.8944 65.2911C27.4126 67.1347 32.5989 66.766 33.3397 67.8721ZM1021.31 68.9782V67.5034H1017.6C1017.23 68.9782 1019.46 68.9782 1021.31 68.9782ZM7.40881 1.87251V3.34735C10.3723 4.45349 8.8905 2.24123 9.26099 1.5038C6.29749 1.87251 5.18616 -1.44592 4.81567 0.766357C4.81567 1.13507 7.40881 1.13509 7.40881 1.87251ZM1062.8 26.5763C1060.95 26.5763 1056.5 25.4701 1056.13 26.5763C1058.35 26.945 1062.43 28.0511 1062.8 26.5763ZM1057.98 53.4923C1055.39 53.4923 1052.05 53.4923 1050.57 53.861C1052.43 54.5984 1057.98 54.5984 1057.98 53.4923ZM165.587 99.9501C167.069 100.319 169.292 100.688 168.921 101.794C172.255 101.794 174.108 103.637 174.108 101.794C169.292 102.162 165.217 97.7378 165.587 96.263C164.106 96.6317 161.142 95.8943 160.401 96.263C161.142 98.1065 168.181 98.1065 165.587 99.9501ZM960.556 19.9394C957.963 19.9394 954.999 20.3082 953.517 19.5707C953.888 21.4143 959.074 21.0456 960.556 19.9394ZM949.813 65.6598C947.961 66.0285 950.924 63.4475 948.701 64.9224C948.701 65.2911 948.702 65.2911 947.961 65.2911C946.849 65.2911 946.849 64.5537 945.738 64.5537C942.774 65.6598 948.702 67.1347 949.813 65.6598ZM950.924 66.3972C953.517 66.0285 957.963 64.185 957.592 64.185C955.37 64.5537 951.295 64.185 950.924 65.6598C952.035 65.2911 951.295 66.0285 950.924 66.3972ZM930.92 64.185C931.661 63.0788 935.366 64.185 935.736 64.5537C935.366 63.4475 937.218 63.8163 935.366 62.7101C932.402 63.0788 932.402 63.0788 929.439 62.7101V63.4475C930.179 64.185 930.179 64.5537 930.92 64.185Z" fill="black" fill-opacity="0.25"/>
</svg>
