<svg viewBox="0 0 375 55" preserveAspectRatio="none" fill="none" xmlns="http://www.w3.org/2000/svg"><path d="M363.97 20.8c.5.1 1.3-.2.57-.48-.29.48-.14-.2-.36-.3.15.4-.86-.28-.72.1.72.2.8.39.5.68ZM366.86 19.26c-.58.1-1.74-.3-2.03.1.87.09 1.38-.3 1.81.38-.22-.29.8-.2.22-.48ZM209.62 31.1c.44 0 .65-.1.8-.29-.3-.2-.87-.1-.8.29ZM169.52 39.67c.65-.1.87.77 1.23.48-.22-.29-.8-.87-1.23-.48ZM171.25 40.83c-.29-.3-.86-.2-1.15-.1.21.29 1.22.58 1.15.1ZM361.44 19.64c-.3 0-.22.2-.36.3.21.18.94.67 1.08.28-.5-.1-.15-.58-.72-.58ZM148.7 37.07c0 .29.08.58.73.67.14-.38-.14-.57-.72-.67ZM359.34 10.88c-.07-.2.15-.2.36-.1.22.1.5.2.5.2-.14 0-.2 0-.2.1.43.09.57 0 .57-.2-.29-.48-2.1-.67-1.23 0ZM201.67 34.37c0-.38-.86-.57-.86-.19.5-.1.36.29.86.2ZM210.49 31.58c.07-.29 1.66-.58 1.95-.1.65-.1.94-.57 1.37-.38.22-.29-.21-.38.22-.58-.65 0-1.16.2-.58.48-1.08.2-2.74 0-3.68.68.36-.2.43-.1.72-.1ZM186.5 39.28c.07.77 1.01.58 1.59.77.07-.28.65-.28.43-.67-.36.58-1.37-.2-.65.48-.8 0-1.08-.29-1.37-.58ZM183.18 38.03c-.73.1-2.1-.29-2.03.1.87-.1 1.6.38 2.03-.1ZM185.56 38.23c.14.1.94.28 1.01 0-.07-.3-.58-.87-.72-.68.72.58-.58.68-.29.68ZM189.39 39.77c-.43 0-.8 0-.8.28.51-.1.66.2 1.02.2 0-.3-.08-.39-.22-.48ZM190.47 40.44c-.5 0-.72.1-.65.48.73.1.44-.38.65-.48ZM209.26 29.85c-.72.1-1.16-.2-1.66-.29-.22.2 0 .48.22.58 0-.1-.08-.3.14-.39.22.2.5.3.72.48-.14-.29.58-.1.58-.38ZM207.38 30.43c-.22 0-.36.1-.43.19-.07-.1-.22-.2-.36-.29 0 .2.07.39.21.48.3-.1.8-.1.58-.38ZM205.07 31.49c.5 0 .94-.1 1.08-.39-.21-.1-1.08.1-1.08.39ZM210.63 32.45c.65.1 1.3-.2 2.1-.39 0-.19-.14-.19-.22-.29l-.29.1c.3.67-1 .2-1.22.39.07 0 .21 0 .14.1-.22 0-.5 0-.5.09ZM183.54 38.61c.43 0 .94 0 1.15-.2-.21-.09-1.08-.09-1.15.2ZM1.73 39.19c-.5.1-.93-.2-1.37-.2v.3c.44.1.94.1 1.37-.1ZM14.16 39.48c-.58.29-.8.19-1 .67.64 0 1.58-.29 1-.67ZM5.08 39.8c.58.1.73-.08 1.02.38.15-.1-.07-.19-.14-.19.29-.37.58-.18.88-.46-.59-.09-1.18-.18-1.76.28ZM34.76 31.39c-.22.2 1.88.48 2.6 0-.22-.1-1.16.29-.87-.1-.5-.19-1.16.48-1.73.1ZM44 32.45c-.14-.68-1.58 0-1.44-.77-.65.2.36.29-.29.48.58.2.8.77 1.74.29ZM36.49 32.74c.29-.2-.07-.39-.14-.58.43-.2 1 .1 1-.29-.35-.1-.72.29-1 0-.3.58-1.09.2-1.81.58.65.29 1.3-.1 1.95.29ZM78.62 34.47c-.15.1-.22.29-.15.29.3.1.44 0 .5-.1 0 .1 0 .2-.14.2.37 0 .51-.2.58-.3h.44s.07.1.14 0c0 0 0-.09.07-.09.22 0 .36-.1.58-.2-.14 0-.22 0-.36-.09l.14-.1c.22 0 .44.1.37-.19-.73.2-1.09.1-1.52.2-.07-.1-.3-.1-.5.1 0-.1 0-.3.14-.4-.8.4-.5.58-.3.68ZM81.07 44.39c.22.1.51-.1.73-.2l-.65-.48c-.36.3-.58.1-.94.3.14.19.36.09.58 0 .21.19.43.28.28.38ZM79.63 43.81c-.43 0-1.88.29-1.08.67.14 0 .07-.1 0-.19.21-.1.36.1.57.2.36-.1.22-.58.8-.4.5-.18-.8 0-.3-.28ZM75.73 44.77c-.65.1-.44.58-.87.77.58 0 .58-.29 1.16-.38a.69.69 0 0 0-.3-.39Z" fill="#1C153F"/><path d="M141.09 54.79c.36-.1.36-.2.5-.49.22.3.5.39.87.2.14.1.07.29 0 .38H375V24.37c-1.23 0-3.74-.22-3.67-.99-.21-.1-.43 0-.57 0-.66 0 .5.2.14.39h-.36c-.22-.2-.65-.87-.87-.68-.43.39-3.25-.29-4.34-.1-.14-.28-1.23-.76-1.44-.67.14 0 .5.48.14.39-.43.1-.72-.48-.94-.2.07 0 .22.1 0 .1-.72-.29-.72-.77-1.08-1.15-.08-.39.94-.39.43-.78-.44.3-2.1-.86-2.53-1.34.72.1 1.37-.39 2.24.1.29-.4.58-.4 1.3-.3-.36.1 0 .39.36.58-.14-.58.07-.67.22-.29 0-.58.8.1.72-.29-.94-.48-1.15.1-1.88-.38.94-.3 2.32.38 2.82-.39 1.09.2 1.38.39 1.96.68-.51-.48.94 0 1.08-.1.22-.38-.5-.48-.29-.87-.43 0-1.01 0-1.08-.38 1 0 1.73.58 2.53.48-.36-.29.72-.29.94-.39-.22-.1-.07-.19 0-.19-.44-.2-.58-.38-.87-.58.8 0-.14-.28-.14-.57.14-.2.86.19.72-.2-.36-.19-1.38-.77-1.45-.38.94.29.07.87-.43.96-.5-.67-2.03-.58-2.32-1.54-.21.1-.28.29-.57.39-.87-.39-1.45-.68-.87-1.16-.44-.1-.58-.29-.73-.48.22-.1 1.45.2 1.45.58.44.1.58-.1.94.19.29-.1.5-.39.72-.48.87.48.94 0 1.67.38v-.77c-.44-.29-.8.2-.94-.2.58 0 1.01-.38.58-.76.29-.1.43 0 .72.2-.29-.4-.5-.78.07-.97-.5-.1-.8-.2-.72-.48-.36-.1-.44 0-.73-.1 0-.2 0-.39-.14-.48.58.1.72-.39 1.16-.77-.15-.1-.22-.2-.15-.3-.72.2-.8-.57-1.3-.18-.29-.58-.14-.68.07-.97.22.2.65.3.73.1-.73-.1-1.38-.29-1.88 0-.22-.2-1.16-.58-.51-.68.07.1 0 .2.14.3a1.19 1.19 0 0 0-1.44-.68c.14-.39-1.16-.58-.5-.87-.66-.29-.15.48-.8.3-.94-.78-3.7-1.26-5.64-1.17.07 0 .43.1.36.2-1.66-.39-3.76-1.83-5-.97-.43-.28.37-.28-.2-.48 0 .1-.37.1-.37-.1.14 0 .22-.09.22-.19.5.2.72.39.8-.1-1.31-.28-2.76-.67-4.2-.96-.72-.19-1.38-.28-2.1-.48-.65-.1-1.3-.29-1.88-.38-.5-.1-1.08.19-1.37-.3-.08.2.29.3.36.4-.36.09-.58.19-1.01.19-.3-.49-1.81-.58-2.75-.39-2.39-.87-4.12-.29-5.79-1.06-1.52.2-5.13-1.15-6.87-.48-.21 0-.5-.1-.43-.29-.87-.2-.36.48-1.16.39-.43 0-.21-.39-.65-.39-.58.29-1.08.2-.8.39-.57-.2-.72-.49-1.3-.68-.36.58-1.22-.1-1.66-.2-1.3.1-2.9.1-4.56.1h-2.53c-.86.1-1.73.2-2.6.39.65.1 2.02 0 1.08.48.44-.29.94-.38 1.38-.38.5 0 .94-.1 1.23-.39.72.48 1.95.29 2.67 0 .58.29.65.2 1.45.2-.07.19.29.28.43.38-1.15.67-2.82 0-4.7.2 2.32.57 3.55.47 5.79.47-.07.3.07.49.43.49.44-.39 1.6-.39 2.75-.2a7 7 0 0 1 2.75.77c1.44-.1 2.82-.48 3.83.3-.29-.3 2.46-.49 2.6.19 0 .19-.57 0-.57.19.5.19 1.51-.2 2.02.48.65-.87 3.33.67 4.56 0 .5.2.57.48.43.77.87-.1 1.08 0 2.31-.1.87 1.35 4.78.68 5.64 1.83-1.15-.19-2.81-.38-4.62-.57-1.81-.2-3.62-.3-5.14-.2 1.16 0 2.32.77 3.11.3-.22.67 1.52.47 1.6 1.05-1.6-.48-4.49-.2-5.07-1.25 0 .38.65.48.8.87-1.52-.1-2.39-1.26-3.9-.58.2-.39.06-.29-.23-.58-1.66 0-3.61-.38-4.62-.58-.65-.1-1.38-.58-2.03-.67-.58-.1-1.01.2-1.59.1-.22 0-.72-.2-1.08-.3-.37-.1-.65-.19-.37-.19-.86-.19-2.1-.38-2.89 0 .07-.48-1.73 0-1.66-.57-.72 0-.8.38-1.8.28-.23-.28-.59-.57-1.31-.67-.8 0-1.6.2-2.46.2-.87 0-1.88.09-3.1-.1 0 .1.06.29-.15.38-1.74.1-3.19.77-4.2 0-.65.68-1.66 0-2.53.1-.5 0-1.3.19-2.02.29-.73.1-1.3.19-1.38-.2-.29.2-.14.49-.8.58.08-.38-.57-.29-.93-.38-.5.86-2.82.29-3.55.77-2.02-.58-3.97.58-6.14.58-.07-.2-.07-.39-.5-.3.13.3.57.4-.08.58-.94.2-1.3 0-1.95 0 .07.3.5.3-.15.49-.5-.1-2.82-.1-2.9.38-1.3.2-2.45.39-3.54.58-1 .2-2.02.48-2.96.77-.43-.48-2.24.39-3.25.58-.58.1-.87-.3-1.52-.2-.58.1-1.81.58-2.75.68-2.03.38-2.53.77-4.63 1.16-.07-.2.58-.3.5-.49-.64.2-.57.58-1.22.87-.44-.2-2.24.68-1.8 0-1.1.29-.8.87-1.75 1.16-.43.1-.43-.3-1 0-.08.29-.37.57-1.02.67-.14-.1-.29-.1-.07-.29-2.24 1.25-2.82.68-5 1.25.15.3.22.49-.43.58.08-.48-1.44-.1-2.17-.1 0 .49.95-.19.87.3-.65.1-.87-.1-1.01.48-.29-.2 0-.48-.65-.39.14.3.22.58-.36.68.07-.39-.36-.2-.36-.49-2.46 1.55-6.22 1.83-9.55 3.38-1.59.38-4.05.57-5.2 1.54-1.96.29-3.26.96-5.21 1.54-.44-.2-.8-.2-1.16.1.22 0 .07.19-.07.28-.3-.1-.58-.19-.87-.19-.07.2-.29.29-.58.39-.72-.77-1.44 1.06-2.75.48-.72.67-2.02.87-3.25 1.06-1.23.2-2.31.48-2.9 1.25.66 0 .66-.77 1.16-.48-.43.67-1 .96-1.73 1.15-.72.1-1.52.2-2.39.68 0 .2.15.2.22.29-.58.38-2.03.67-2.53.19-.44.48-1.23.58-2.03.67-.86.1-1.73 0-2.45.2-.15-.48-.44-.39-.51.1-.15-.2-.15-.58-.44-.68-.36.77-2.1-.1-2.6.77-.87-.58-2.02 0-2.9-.29-.2.58-1.65.58-2.38.48 0 .2.22.2.22.48-.5-.1-.29.3-.58.39-.94.2-1.01-.29-1.59 0 .22 0 .14-.67-.07-.39.07.78-1.45.97-2.32.87.15.48-.57-.1-.8.29.08.39.44.39.73.58.07-.1.15-.3.3-.39.64.2 1 .58 1.65.68-.43 0-.94 0-.94.29 1.45-.1 1.81-.2 3.26-.39 0 .39.5.29.58.58.58-.1.72-.39 1.23-.58.36.29.94.29 1.51.29.66 0 1.3 0 1.81.2.65-.3 1.38-.87 1.74-.2.5 0 .36-.39.72-.48.29 0 .07.67.43.67 0-.29.44-.19.73-.58.36.39 1.16.3 1.44.78-.43.19-1.59.48-1 .96.35-.68 1.22-1.06 2.02-1.06.8-.1 1.59.2 1.88.67.58-.1-.37-.29.07-.38.5.1.87.2.94.77-.22 0-.43.1-.65.1.07 1.15 1.08.67 2.1.67-.44 1.06-1.81.67-3.33.87-.22.48.07.38.43.48-1 .87-2.74-.3-3.68.77.43 0 .86 0 1.51.2-2.89.18-4.26.09-7.23.47 0-.19.22-.19.3-.38-.73.1-.88.48-1.6.58-.07-.1 0-.3-.22-.3 0 .2-.36.1-.5 0-.07.4.58.1.58.4-1.02.57-2.25.09-3.62.57-.29-.29-1.08-.29-1.52-.48-.14.48.22.67-.43.96-.36-.48-1.16-.96-.15-1.35-.29 0-.14-.29-.36-.29.07.58-.94.49-1.8.49.14.48-1.02.57-1.16.28-.15.3-.36.39-.94.39-.73-.58.43-.58.43-.87-.43.1-1.3-.1-1.52.2 1.01.1-.8.19.07.67.37 0 .15-.29.66-.39.14.49-.15.58-.58.68-.58-.1-.65-.87-.73-1.06-.36.2-1.15-.29-1.66.29.8-.3 1.95.1 1.6.67-.73 0-.3-.48-.52-.48-.28.2-1.51.39-1.22-.29-.73.2-.58.48-.3.77-.79.1-.72-.38-.36-.58-.43.1-.36-.19-.72-.28-.36.28.36.67.07.96-.36 0-.36-.29-.57-.48-.58.1-.8.38-1.67.29-.36-.77-1.08 0-1.73-.77.07.28.36.38-.15.48-.36 0-.21-.48-.5-.48.07.28.07.57-.3.57 0-.1 0-.1-.14-.1 0-.19.44-.09.3-.38-2.1.3-2.54.39-3.91-.58-.22.49-1.23.3-1.74 0 .15.39-.22.39-.29.58.8-.1.44.39.36.58.65.2.87 0 1.52.29-.07-.39.58-.29.8-.39.14.3.43.39.72.58.07-.29 1.23-.38 1.37-.2-.14.3-1.23-.09-1 .5.79-.2.71.18.2.38 2.18.1 2.03.19 3.91.1.08.28-.36.47-.14.67.29-.68 1.44.19 2.24.29-.29 0-.65-.1-.65.1.29.38.5 0 .72.38-.29 0 0 .19.22.19.22-.39.14-.48.29-.67 1.45.1 3.76.28 4.34 1.44-.73-.29-1.38.29-2.24-.2.07.3-.3.3-.15.59 1.09.19 1.74.19 2.9.38-.15.2-.15.29.21.39 0-.1 0-.3.3-.2-.15.2-.15.3.2.39-.06-.2.73-.39.88-.1-1.02.1-.08.68-.8.97-.8 0-.5-.68-.87-.49.22.1-.14.39.36.49-.29.1-.86.48-1.15.1.36-.3 0-.68-.44-.68.44.38.22.67.07.96-.79 0-1.73.2-1.88-.29.22-.1.3-.29.3-.48-.66-.2-.08.39-.51.39-.22 0-.65 0-.65.1.36.28.72-.2.86.19-.36 0-.5 0-.65.1-.21-.2-.5-.3-.86-.4-.08-.09-.08-.09-.08-.19.51.1.15-.48.15-.48.07.2-1.23.1-.5.39 0-.1.28-.1.35 0-.21 0-.14.1-.21.29l-1.02-.3c0-.19.51-.09.51-.19-.22-.19-.58 0-.94.1-.14 0-.36-.1-.5-.1h-.3l-.07-.1c.22-.09.87.2.87-.09-.58-.38-1.16 0-1.88-.38.07.19 0 .38-.22.48h-.14c-.07-.3-.58-.39-.94-.3-.07 0-.15-.09-.22-.09-.07-.19.22-.29-.07-.48 0 .2-.29.2-.5.2a5.62 5.62 0 0 0-2.18-.3c0-.1.08-.28-.14-.38-.22.29-.22.29-.44.48-.36-.1-.43-.2-.28-.48-.3-.1-.51-.1-.66-.1-.14-.19-.43-.29-.65-.38 0 .2.08.38.22.48-.14 0-.29.1-.5.1 0-.2.14-.2.21-.3-2.53-1.05-4.7-.28-5.93-1.05 0-.2.5.1.58-.1-.29-.29-.72-.2-1.16-.29-.07.3.37.48.3.77-.73-.1-.8-.58-.51-.77a7.4 7.4 0 0 1-1.09-.58c-.14.1-.29.2-.43.39.29.2.94.29 1.08.58-.87-.3-1.23-.1-1.88-.48-.14.67-2.1-.39-2.24.28.87.1 1.23.3 1.74.49v.1c.21.09.65.19.87.28v-.1c.21.1.5.1.79.2-.29.38.8.86.94.48-.36-.1-.94-.2-.72-.48.5.29 1 .2 1.88.48-.08.1-.08.2-.08.2h-.14c.36 0-.14.38-.14.57.28 0 .43.1.65.1-.44.1-.87.29-.73.67.5.1.94 0 1.52.29.07 0 .15 0 .15-.1v.2l-.22.19c.8.1.8.38 1.3.58l.65-.3c-.07.4-.65.4-1.08.3-.15-.1-.3-.2-.36-.2h-.08c-.21 0-.43.1-1-.1 0-.18.5 0 .42-.38-.28-.1-.43-.19-.57-.29.14.49-.73 0-.8.3-.36-.1-.43.28-.65.38h-.29c-.22-.1-.43-.3-.72-.3l-.07.1H169c.07-.1-.07-.38-.5-.38 0 .2-.08.29-.08.29h-.58c.07-.1.15-.29.3-.29-.52-.48-1.17-.2-1.46-.77.51.2.44-.1.8 0 .29.2.5.38.87.58v-.2c.14 0 .22 0 .22-.1a4.47 4.47 0 0 1-1.52-.67c.36.1.43 0 .57-.1-.21.4 1.38.68 1.3.4a4.65 4.65 0 0 0-2.3-.49c-.15-.2-.73-.2-.51-.48.65.2 1.8.67 2.31.38-.43 0-.65-.57-.36-.48.43.2.5.2 1.3.48.07-.19 0-.28-.15-.48.15-.1.3-.1.51 0 0 .2-.07.3-.14.3.72 0 .43-.2.14-.49h-.65c-.22-.2-.5-.2-.65 0 .22-.38-.07-.58-.5-.77.07.87-.58-.39-1.02 0 .15.2.65.2.5.48-.06 0-.14-.1-.2-.1v.1c-.95-.48-1.02.1-2.1-.67l.79.19.07-.48c-.58-.1-.43-.3-.94-.39-.07.1 0 .3-.22.3-.21-.3-.72-.49-.86-.68-.15.19-.58.19-1.02.1.37-.3-.65-.3-.5-.49.65.1.87.3 1.3.48.07-.1.29-.1.29-.38-.8-.1-1.45-.2-1.88-.68-.72.2-1.45-.1-1.95-.57.14.38-.08.29.07.57.36.1.43 0 .8.1-.08.2-.37.1-.44.2.5.09 1.37.57 1.6.28-.15-.19-.73-.19-.52-.48.37.29.87.58 1.09.87-.65-.2-.8.1-1.38 0 0-.1 0-.2-.14-.3-.5.3-1.8-.47-1.66.2-.3 0-.58-.1-.87-.2.07 0 .14-.09.22-.18-.22-.2-.44-.2-.73-.1-.07 0-.07-.1-.14-.1-.15.1-.36.2-.44.39.51.29 1.09-.1.95.38h.07c-.15.2-.44.3-.65.39h-.3c0-.1-.14-.2-.35-.2.07-.09.28-.09.28-.38-.21-.38-.72-.1-.72-.29.94-.1-.29-.1-.29-.58.3 0 .44-.19.65-.28-.5.1-1.44.19-1.95-.39-.36.67-2.02-.58-2.46.1.8.19.44.19.36.48.94.2 1.74.38 2.46.96.07-.2.36-.1.44-.2-.15-.09-.37-.09-.37-.18.15 0 .22 0 .22-.1.65.39.44.39.07.58.3.1 1.02.19.94.38-.28-.1-.21.2-.43.1-1.8-.29.07.1 1.01.38l-.07.1c-1.01-.1-1.95.1-2.9-.67-.2.38-2.09-.2-2.96-.58-.29.2-.58.29-.07.58-.94-.39-1.37-.48-1.95-.3-.5-.47-2.1-.67-2.46-1.24-.87.1-1.3-.2-2.39-.39.15.2.36.39.65.48-.36 0-.65 0-.8.1.44-.1.88.48 1.1.1-.15 0-.15-.1-.15-.2 1.3.58 3.47.58 4.41 1.64-.07.1 0 .29-.22.29-.07-.2-.14-.3-.36-.48.22.38-.65-.1-.43.38.43.3 1.08.48 1.52.77h-.3l.08-.1c-1.09 0-1.66-.57-2.82-.38.14.39.14.39 0 .68.29 0 .58.1.87.1.29-.3-.22-.4.14-.59.29.1.44.3.36.49h.3c0 .19-.08.38.14.67.65 0 .65.2 1.37.38-.14-.38.36-.28.65-.28.72 1.15 2.9.96 3.4 1.54h-.07c-.5-.1-.65 0-.5.1-.15-.1-.37-.1-.59.09.22.1.44.1.73.2-.58.19-1.96-.1-2.1-.2.07.2.72.29.5.58-.07 0-.21-.1-.21-.1.07-.1.29-.1-.07-.29h-.51c-.43-.19-.87-.29-1.37-.29-.08-.29-.58-.19-1.02-.19-.21-.1-.5-.2-.86-.29v-.1l-.15.1c-.58-.2-1.08-.29-1.23.1.22 0 .36.1.44.1.07 0 .07.1.14.1 0 .09-.22.18-.36.18l-.22-.29c-.36.2-.65.2-1.01.1.22-.38.43-.77 1.3-.67.15-.1-.22-.39-.14-.39H147.59c-.21.29.37.29.37.1-.73-.68-1.96-.58-2.9-1.25 0 .48-1.08-.49-1.23.19.36.29 1.01.2 1.6.29.28.19.21.48.5.67 0-.2.14-.2.29-.29-.07.1 0 .2.29.39.14-.1.36-.1.5-.1.15.1.22.2.15.29-.87-.29-1.37.1-1.6.48-.2-.1-.35-.2-.57-.29h-.07c-.07 0-.15-.1-.3-.1l-.14-.19c.22-.1.58-.19.58-.57-.72-.3-.58.28-1.37-.1 0 .2-.15.2-.22.29.15.1.36.1.36.2-.5-.1-.65-.3-.5-.59-.3-.1-.44-.19-.58-.29-.07.1-.3.2-.3.39.73.1.52.29.52.48-.44-.1-.94-.29-1.38-.38a4.97 4.97 0 0 0-1.59-.97c.07.39-.43.1-.43.39.29.1.72.29.94.38h-.36c-.08.3.21.3.57.3-.14.09-.36.18-.65.18-.14-.19-.36-.28-.5-.48-.08 0-.08 0-.15-.1-.07-.09-.21-.09-.29-.19-.07-.1-.14-.1-.21-.19.36-.1.72-.2.94-.38-.44 0-.8.1-1.09.19-.14 0-.36.1-.58.2-.07-.3-1.23-.68-1.15-.3.43.1.5.3 1 .39-.28.1-.57.29-.79.38-.65 0-.5-.48-.8-.67.22 0 .37 0 .37-.2-.22-.19-.87-.19-1.09-.38 0 .1 0 .2.15.29-.3-.1-.5-.29-.72-.39.36 0 .72.2 1.15 0-.58-.28-1.3 0-1.8-.57-.3.29.07.29.28.48h-.43c-.07.2 0 .29.07.38-.94 0-1.8-.19-2.67-.48-.65-.38.58-.38 0-.77-.87.1.14.48-.58.68-.65.1-.65-.58-1.01-.87-.44.1-.73-.2-1.16-.2.14-.19.07-.38-.44-.76-.07.1-.21.28-.5.19-.36.2.43.1.5.38-.43.2-.8-.1-1.15-.19-.36.2.5.39.65.39 0 .1 0 .19-.07.29-.22 0-.36 0-.44.1.15 0 .22 0 .3.09v.1c-.59-.1-.52-.4-.88 0-.58-.49.22-.3.22-.58-.58-.3-.58.1-.8.29-.72 0-1.37-.3-2.02-.39 0-.29.5-.39.58-.67-.65-.2-1.16-.97-1.95-.87-.51-.58-.58-.87-1.88-1.16.36.2.86.3.8.68-.51.19-.88 0-1.31-.2-.29.1.14.39-.36.39.58.1 1.59.67 1.73.29.08.2.15.38-.21.58-.5 0-.3-.49-1.02-.1-.65-.29.44-.29-.21-.58.07.48-.72.39-1.38 0-.43.3.15.39.51.39-.29.1-.5 0-.8.1-.14-.2-.94-.58-.65-.68-.21-.1-1.3.2-1-.29-.44-.2-.88.58-1.53.2-.14-.2.3-.2.5-.3-.71-.19-2.02-.86-2.3-.38-.22 0-1.23-.29-.51-.39-1.3-.19-3.04.1-3.62.97-.36 0-.65-.2-1-.1-.59-.38.57-.48-.15-.87.72-.19.72 0 1.15.2.73-.2.94-.39.44-.77-.15.1.07.19.14.28-.5.1-.94.2-1.37-.1-.3-.28.43 0 .65-.18.36 0 .72-.1 1.01-.1.36.2.72.1.94-.1.5 0 1.01 0 1.52.1-.07.1-.14.1-.14.2-.15 0-.37 0-.66-.1.87.48 3.04.86 4.49 1.05-.5-.57-1.23-.19-1.38-.77-.14.39-.58.1-1.08 0 .29-.1.5-.19.58-.38-1.45-.29-2.97-.68-3.9-.68.06-.28.43-.48 0-.67-.59 0-.59.39-1.02.48-.22-.2-.5-.29-.8-.48-.14-.38.3-.38.66-.48.43.1.65.58 1.23.2-.15-.78-1.6-.1-2.03-.59 0 .39.22.87-.65.87-.15-.38.58-.2.43-.58-1.08-.19-.58.58-1.23.58-.29-.29-.43-.2-.21-.58-.94 0-.65-.29-1.67-.1-.43.3.08.2.22.49-.29 0-.65 0-.8.1-.28 0-.65-.1-.8-.1.37.1.8.19 1.24.29-.65 0-2.1-.58-3.11-.2.07-.19-.29-.19-.44-.28.58-.2.37-.39 0-.58h1.02c-.07.1-.5.48 0 .48.07-.2.43-.1.58 0 .14-.29-.44-.2-.44-.48 1.16.1 1.67-.77 2.9-.3-.22.1-.44.1-.58.3.57-.3 1.15.19 1.66-.2-.14-.19-.8 0-.8-.19.3 0 .22-.2.44-.2.72.3.87.3 1.88.3 0-.1-.07-.3.22-.39.14.39 1.3-.19 1.23.1-.22.2-.73.38 0 .48.07-.38.86-.48 1.22-.67.3.19-.14.48.44.67.58-.1-.36-.48.22-.58.43.2.86.39 1 .77 5.07 0 7.46.39 12.52 1.06.07-.1 0-.29.21-.29.87.1 1.02.3 1.81.58.36-.86 2.97.48 3.33-.48-1.23-.1-.87.29-2.31.1-.15-.3.65-.3.07-.48-2.32-.3-4.7-.78-7.16-1.64-.3.19.5.48 0 .48-.07-.29-1.52-.48-1.88-.2.36 0-.08.4-.22.49-1.52-.39-2.82-.1-5.78-.1.43-.38-.44-.2-.58-.48 0 .58-.73-.2-1.02.2v-.4h-2.67c-.8 0-1.45.1-1.88.49-.43-.2.29-.29-.22-.39-.21.2-.72.2-1.01.39.07-.2.22-.2 0-.39-.8.2-2.1.1-2.68-.19-.14.77-1 0-1.88.2 0 .09.08.28-.21.38-.44-.39-1.02 0-2.03 0 .07-.2-.29-.58.22-.58.5.29 1.66-.58 2.46 0-.08-.29-.22-.48-.65-.58-.07.1 0 .2-.22.2 0-.2-.58-.1-.43-.49.36 0 .5-.1.58-.28-1.02-.1-1.23.1-2.25.1-.07.47.58.09.65.28 0 .29-.5.29-1 .29-.15-.2-.15-.48-.44-.58-.3.1 0 .48-.36.48-.3-.1-.51-.1-.8.1a.51.51 0 0 1-.22-.58c-.36.1-.86.1-1 .29.28.1.42.39.42.67-.57-.1-1-.48-.65-.86-.94 0-1.15.29-1.44.58v-.39c-1.23.1-2.39.2-3.62.39-1.15.19-2.38.38-3.76.57.5.68 3.69-.77 3.76.77.3 0 .73-.19.8 0-.3.3-1.23.2-1.6.3h-.35c.07-.1.21-.2.28-.2-.57.2-.5-.1-1 0 0 .1 0 .1-.08.1-.94-.1-2.03-.2-3.04-.39 0-.38-.8-.48-.87-.29.22 0 .3.2 0 .2-.57 0-.86-.2-1.44-.3-.07 0-.07.1-.15.1-.14.1-.29.1-.5.1-.07 0-.07 0-.15-.1 0 .1-.07.1-.07.1-.5.1-.94.1-.94.2h-.14a.23.23 0 0 0 0-.4c.07 0 .21-.09.29-.09-.15 0-.3.1-.44.1H81c-.58 0-1.23 0-1.8.1 0 0-.08-.1 0-.1-.15.1-.3.1-.44.1s-.22 0-.36.09c-.15 0-.22-.1-.22-.2-.5.1-.43.3-1.01.3v.28c-.07 0-.15.1-.22.1h-.14c-.07-.1-.07-.2-.07-.2.07 0 .14-.09.28-.09-.28-.2-.5-.48.37-.29.36-.19-.44-.1-.58-.38-.07.29-.22.1-.65.29.07 0 .07 0 .14.1l-.5.09c.07-.1.28-.29-.08-.39-.58.2-.43.39-.36.68-.72-.1-.58.2-1.23.29-.43-.48.58-.97 1.3-.97-.29-.1-.14-.29 0-.19-1-.48-2.38-1.06-4.05-.2-.5-.18.73-.38.08-.67-.58.49-2.03-.1-3.04-.1-.29.1-.22.2-.36.4h-.07c0-.1.14-.2-.15-.3-.43 0-.29.1-.43.2h-.15c.07-.1.07-.1 0-.2-.36-.19-.8-.19-1.01-.1-.65-.09-1.3-.18-2.02-.18a7 7 0 0 0-2.46 0c-.3 0-.51 0-.8.1-.87-.2-.72.18-1.37 0-.15.09-.22.18-.36.28-.3 0-.58.1-.87.2-.22-.2-.87-.2-1.16-.4-.72.3-2.17.1-2.96.2-.22 0-.51 0-.8.2-.07.09-.14.19-.29.19-.07-.3-.5-.3-.94-.3-.36.1-.72.2-.87.4-1-.1-2.1-.2-2.82.09 1.74.1 3.47.1 5.2.29-.57.19-1.15.1-1.8.1-.22.38.8.09 1.01.19-.29.19-.57.38-.94.48-.29-.1-.14-.3-.43-.39-1.23.3-1.23 1.06-2.68.77-.14-.29 1.02-.38 1.38-.57-.07-.2-.36-.39-.15-.58-.29.1-1.08 1.15-2.24.86-.21-.19-.07-.28.3-.48-.59-.29-1.17.77-2.1.58-.58-.2.43-.48-.3-.67-.14.1-.07.1 0 .19 0 .2-.8.1-.65.48-.29-.1-1.23-.1-1 .29-.37-.1-.73.2-1.02 0 0-.29 1.01-.67.8-.96-.37.1-.87.29-1.38.48-.43-.1-.07-.3-.58-.48-.87.19-1.73.1-2.67.1-.3-.2.58-.1.72-.49-1.16-.2-1.37.96-2.53.39-.29.1-.58.57-.87.38-.36.3.43 0 .58.3l-.43.28c-.87-.29-1.74.1-2.6-.2 0-.38 1.15-.57 1.58-.19.44-.19.8-.38 1.16-.38-.5.1-1.6-.48-2.39.1-.57-.2.15-.49-.43-.68-.58.58-2.31.68-3.69.77-.36-.29.44-.1.58-.38-.65 0-.36-.3-.87-.49-.8.3-1.59.1-2.38.49-1.09-.49-1.09.19-2.68.86.65-.1 1.3-.29 1.88-.19.29-.1.15-.2 0-.29.36-.2.8-.2 1.16-.1.36.1-.44.3-.58.2.22.29 1.59.87 2.31.38.44.49 2.1.3 3.04.1.36.2.15.39.72 0 1.52.48 3.04.48 4.56.2 0 .57 1.6 0 1.16.57.21-.2.72-.2 1.37-.29-.22-.1-.5 0-.72-.2.29-.09.58-.09.87-.18.14.1.07.29-.15.38.36.29.8 0 1.16.29.29-.1.14-.2.29-.38.36.19.65.38 1 0 .23.1.52.28.73.19.44.19-.8.38 0 .48.58-.67 3.11-.48 3.69-.1.5.2.22-.29.58-.38.14-.1.29 0 .43-.1.58.2.15.39.73.58 1-.58 2.89-.2 4.26-.1.36-.29.73-.19 1.09-.48-.73-.38-.58.29-1.38.1.36-.3.3-.2-.14-.58 1.01-.58 1.8-.29 2.1.1-.44.29-.8-.39-1.16 0 .65 0 .94.48.43.77.94 0 1.88.19 2.82.19-.29.48-.14.29.58.48-.5.1-1.01 0-1.44-.29-.3.2.36.3 0 .48.57-.1 1.08.1 1.59.1.36-.2-.15-.39-.58-.67.87-.1 1.66.1 2.53-.3.14-.19-.15-.47.07-.67.87-.1 0 .39.72.58.15.2-.21.1-.43.29.65.48 2.02.29 3.04.48 0 .39-.36 0-.8.1 0 .19-.22.1-.43.1v.09c-.07 0-.07 0-.15-.1-.07 0-.07 0-.14.1 0-.1 0-.2-.36-.2.07.2.07.3-.08.4-.07-.2-.21-.4-.28-.49-.08.2-.15.29-.22.29-.36.1-.94-.48-1.66-.39-.08.2-.22.3-.58.2 0 .29 1.23.19 1.73.29v.1c-1.08.28-1.52.28-2.6.57.29-.29-.07-.1-.07-.48-1.02.38-.15.58-1.09.87 0-.3-.14-.39-.43-.39-.36.2-.87.39-1.45.48-.29 0-.58-.1-.8-.19-1.37.39-2.16 0-3.25.58.5 0 .15.1.58.29h-.14c-.22 0-.58 0-.87.19h-.36c-.58-.2-.8-.67-.87-1.16-.36.39-.07.68-.36.97-.65-.1-1.3 0-1.88-.2-.22-.19.65-.19.94-.38-.44 0-2.17-.2-2.53-.1-.37-.1-.3-.48 0-.29 0-.38-.58 0-.87 0-.15.1.14.2.29.3-1.23.09-3.04-.78-4.7-.3l-.73-.38c-.28.2-.57-.1-.86.2-.58-.4-1.16-.4-1.81-.3.14-.1.22-.2.29-.38-.58.1-1.38.1-1.74.29-.21 0-.36-.1-.5-.2-.15.1-.37.1-.51.2-.07 0-.07-.1-.14-.1 0 0 0 .1-.08.1-.58.1-1.08.1-1.66 0l.43-.3c-.07.1-.43.2-.72.3-.43-.1-.87-.2-1.23-.39.8-.29.87-.48 1.52-.77-1.45.1-2.96.77-3.69.29 0 .48-.43.77-.65 1.15-.65.2-1.52.2-2.17.39-.14 0-.22.1-.36.1.14 0 .22 0 .36-.1.3.58 2.6 0 2.53.87-.29.19-.58-.2-.87-.3-.14.49-1.15.1-1.73.59.07-.3.14-.58-.58-.77.07.38-.43.48-1.01.77-.44-.3-1.3-.68-1.3-.2-.5-.19-.22-.48-.87-.48-.29-.29.07-.2.43-.48-.65 0-1.23-.1-1.88.2-.5-.2.58-.59 0-.87-.29.19-.5.86-1.01.48-.07.19-.43.38.14.58-.79.28-.72.19-1 .67-.3.29-.59-.39-.88-.1-.65.39.37.3.58.48-.36.1-.8-.1-1.15.1-.3-.2.65-.48 0-.67-.22.38-1.02.19-.73 0-.86.67-2.38.48-3.61 0-.07.19-.44.38-.44.57.58.1.37.2.87.49.36-.2.07-.3-.14-.39 1.23-.2 2.38.2 3.61.29-1.01.39-2.02-.2-3.03.1.5.1 1.08.1 1.59.29-.58.19-1.16-.2-1.74.48-.29-.2.22-.48-.29-.68-.22.2-.5.1-.72.3-.36-.1-.07-.3.14-.4-.29-.09-.58.2-.87-.09-.14.48-1.08.29-1.15.77-.8-.2 0-.58-.58-.77-.58.29-1.95.1-2.03-.2-.94.4-.86-.19-1.73.1-.36-.29.43-.1.58-.38h-.15c.22-.1.5-.2.65-.3-.43.1-1.51.1-2.24.3-.21 0-.5 0-.72-.1-.29.3-.36.39-.43.77-.51 0-1.45.2-1.45.58-.65-.1.36-.38-.29-.48-.43-.1-.87.29-1.3 0-.58.29-.36.38-.87.48v1.35c.36.1.87.1 1.16 0 .5.67 1.44.1 1.88.77.72-.2.65-.58 1.44-.58.15.1-.21.3-.43.48.58.49 1.23.1 1.88.3.22-.2.07-.3-.29-.3.43-.48 1.01-.1 1.01-.48.08.1.22.48.58.3.3.28-.07.18-.43.47.8.3 1.52-.19 2.31.3.3-.88 1.09.28 1.74-.49-.15.48.58.2.72.48-.5.1-1.08.2-1.6-.1-.5.68-1.87.3-2.74-.1-.07.3-.14.5-.72.78 1.44-.87 4.12.87 5.5-.67.93 0 1.8-.2 2.74.1.22-.2.07-.3-.29-.3l.87-.58c.29-.1.58 0 .87.1-.44.29-.87 0-1.3.48.43.2.86.1 1.3.3l.58-.4h.72c.29.2-.07.4-.43.58 1.08.1.57-.86 1.73-.57.15-.2.15-.3-.14-.39.29-.2.58-.29.86-.2-.57.78 1.67.78 2.46 1.07-.72.2-2.53 0-2.82.38-.29.1-.65.1-.94.2-.58 0-1.15-.1-1.73 0-.07.28.43.28.87.19l-.94.29c-.3-.1-.58.1-.8-.39-.58.3-.5.48-.36.77-.15 0-.22.1-.36.1-.15-.1-.22-.29-.36-.29-.37.2-.66.2-1.02.48-.5-.1-.14-.29-.58-.48-.65.48-.36 0-1 0-.66.29-1.38.1-2.03.48-.58-.2.07-.38-.15-.58.73-.19 2.03.1 1.88-.57-.36 0-.8.28-1.15.38 0-.1-.08-.2-.3-.29-.64.39-.79.48-1.3.2-.86.38.08.57-.72.96-.14.1-.29 0-.43.1-.5-.2 0-.49 0-.68-.36-.39-.8 0-1.16-.29-.29.1-.14.2 0 .29-.87.29-1.73-.48-2.6.39-1.45-.2-2.75.19-3.98-.2v.77c.5 0 1.08 0 1.6-.29.35.3-.66.68-.73.97.36.2 1.44-.2 1.3.29.94.1 1.95-.58 2.9 0-.59.29-1.16.19-1.74.48.36 0 .8-.1 1.15.29.15-.39.3-.39.58 0 .94-.58 1.88-.1 2.9-.1-.3.29-.44.39-.58.39 0 0-.08-.1-.15-.1-.43.48-.87.29-1.3.48.07 0 .14.1.22.1-.8.38-1.67.77-2.39 1.15-.36 0-.58-.19-1.01-.1-.73.49-1.81.97-2.75 1.16v8.87h141.09Zm225.1-37.86c.51.1.51.48.88.67.07.39-.87-.1-.94.1-.3 0 .21-.39.07-.77Zm-2.81-5.59c.8-.1-.36-1.16.94-.77.07.48 0 .96-.94.77Zm1.44 2.02c-.57 0-.14-.38-.72-.38.15-.1.44-.1.72-.1v.48Zm1.67-.19c-.73-.48-.94-1.16-1.6-1.64.73-.1 1.02-.19 1.67.3.22 0 .5-.1.22-.2-.44-.39.58.2.72.29-.43.58-.36.96-1.01 1.25Zm1.08-3.37.58.1c.07.28-.58.38.15.48-.08.1-.44 0-.73-.1.37-.1 0-.2 0-.48Zm0 .77c-.36.2-1.08.1-1.3.39-.36-.2.15-.58.22-.78.5.1.65.3 1.08.39Zm-1.66-1.93c.36.1.22.39.72.39-.36.1-.65.2-1.15.1-.08-.3.72.1.43-.49Zm-2.24-.67c.21.2 1.44.2 1.66 0-.07.67-1.52.58-2.1.38.08-.28.94 0 .44-.38Zm-3.26 13.49c1.67-.49 1.23.96 1.23.86 0 .1-.07.1-.21.1v.2c-.51-.2-.58-.59-1.09-.88.07-.1.87-.19.07-.28Zm-.14-1.06c-.58.1-.72-.58-.94-.3-.5-.19.43-.09.22-.38.36.1.72.3.72.68Zm2.1-1.45c-.73-.1-.65 0-1.09-.38 0-.39 1.3 0 1.09.38Zm.14-9.92c.5.38-.58.48-1.3.2 0-.49 1.16.09 1.3-.2Zm-2.38-.58c0 .29-.66.1-1.16 0 .29-.29.65-.2 1.15 0Zm-1.3-1.44c0 .28.28.28 0 .48l.36.1c.28.48-1.81-.87-.37-.58Zm3.32 2.98c.58 0 .14.39.72.39-.36.48-.58.67-1.01 1.15-.94-.67-1.88-.19-2.6-.19-.58-.2-.65-.48-1.45-.58.07-.58.58 0 1.16-.1-.22-.86-1.3-.48-1.88-.86 1.66-.48 3.9.87 5.06.2Zm-5.35-3.08c-.44.2-.36-.29-.94-.29 0-.39 1.08-.1.94.29Zm-35.65-5.68c-1.38-.68 1.01-.77 1.59-.58-.22-.1-.15.48.21.1.3.09-.07.19.22.48-.94-.1-1.59-.49-2.02 0Zm4.34 0c1.23.1 2.74-.2 3.83.19-.65.48-3.04.38-3.83-.2Zm5.64.19c0-.3.72-.2 1 0-.2.1-.71.2-1 0Zm17.79 4.14.8.2c.06.47-.95.28-.8-.2Zm-1.74-.29c-.07-.58.87 0 1.38.1-.15.38-.94.1-1.38-.1Zm-5.06.58c.65-.48 2.38.29 3.69.2-.44.67-2.68.18-3.7-.2ZM209.49 47.18c-.07.1-.14.1-.21.1.07-.1.14-.1.21-.1Zm-1.23-.1c.15 0 .3 0 .44-.1.22.1.29.2.36.3-.29 0-.58 0-.8-.1v-.1Zm-1-3.66c-.66.1-.8.2-1.24.2h-.21c.43-.2 1.37-.78 1.44-.2Zm-.95-.39c-.07.39-1.08.2-.94.68-.43-.1-1.01.1-1.37-.1.43-.29 1.44-.29 2.31-.58Zm-27.91-8.09c0 .3-.58 0-.72 0 .07-.1.43-.2.14-.2.15-.18.72-.09 1.01-.18.44.38-.94.19-.43.38Zm4.12 1.06h-1.01c.22-.29.58-.48.94-.67.65 0 .14.38.07.67Zm1.88.1c.3-.39-.5-.1-1.01-.1-.36-.2.22-.29-.22-.38-.07-.3.94.1.87-.2.43-.1.36.2.72.3.36-.1-.21-.2.15-.4.14.1.29.1.5.1-.14.1-.14.3-.14.49.65-.3.22-.39 1.16-.1 0 .29-.58.2-1.02.2.15.09.3.18.51.18-.36.39-.72-.28-1.52-.1Zm2.6.38c-.36 0-.43-.1-.72-.1 0-.09.3-.09.5-.09.3 0 0-.58.66-.29v.39c-.3-.1-.5-.1-.44.1Zm3.11 6.84h1.09c.43.1.87.1 1.23.2-.3.1-.58.1-.65.28-.07 0-.15-.1-.15-.1h-.07c-.07 0-.14-.09-.22-.09-.5-.1-.86-.2-1.23-.29Zm1.45 2.6c-.07 0-.07 0 0 0Zm-.36 1.26s-.07 0-.07-.1h.21s-.07.1-.14.1Zm.94-.1c-.15-.1-.22-.1-.36-.1h-.15l-.58-.38 1.16.2s.07.09.15.09c0 0 0 .1.07.1-.07 0-.15 0-.3.09Zm1.01-2.12c.15 0 .22.1.36.1-.07-.2-.14-.3-.14-.3.29.1.58.3.8.4-.95 0-1.74.28-2.25-.1.3-.2.15-.39 0-.58.15.1.22.1.44.2.07.09.28.18.43.18h-.07c-.07.2.29.2.43.1Zm0 1.54c-.07 0-.14.1-.29.1-.07 0-.22-.1-.29-.1.22 0 .44-.1.58 0Zm1.3.1s-.07 0-.07.1c-.22 0-.43-.1-.65-.1h-.14c0-.1-.08-.2-.08-.3.15.1.15.1.22 0h.36c.07 0 .07.1.15.1.14 0 .28.1.21.2Zm0-2.02v.19h-.21c-.15 0-.22-.1-.37-.1 0-.1-.07-.1-.21-.1h-.07a9.6 9.6 0 0 0-1.74-.38c.65-.1 1.37 0 2.1.1H194.24c-.08.19.07.38.14.19.29.1.15.2.07.1Zm-.21-.87c.36.1.65.2.86.29-.5 0-1-.1-1.37-.3h.51Zm.5 2.98c.07 0 .07 0 0 0Zm0-.19c.07-.1.07-.2-.07-.29h.36s0 .1-.07.2h.29c-.07.1-.3.1-.5.1Zm1.38-1.83h-.37c.08 0 .08.1.15.1-.22-.1-.29 0-.87-.2-.07.1.07.1.15.1-.15 0-.22-.1-.37-.2 0-.09 0-.18.08-.28.58 0 .94.1 1.08 0 .15.2.15.39.15.48Zm.8 2.99c-.15 0-.37 0-.51-.1.14-.2.21-.38.28-.58.08.1.22.2.37.3-.08.09-.08.28-.15.38Zm.5-2.9c.14-.09.29-.09.5 0h-.5Zm1.08 2.7-.07-.1-.07.1H198h.07c.07 0 .07-.1.14-.1.15-.09.3-.09.58-.09 0 .1 0 .2.07.3-.14-.1-.21-.1-.36-.1Zm.87-.19c-.14 0-.36 0-.5-.1h.07c-.22-.09-.22-.38-.58-.38h.36c.29.1.5.39.8.48h-.15Zm-.87-1.64h.65c-.07.3-.58 0-.65 0Zm1.23.39c-.29-.1-.14-.29-.29-.39h.07c.15.1.37.1.58.1-.14.1-.29.2-.36.29Zm.8.29c-.07-.1-.15-.2-.22-.2 0 0 .07-.09.07-.19.22.1.22.2.3.3 0 .09-.08.09-.15.09Zm.36.29c.07 0 .07 0 0 0Zm.07-.48c.15 0 .15 0 .22.1-.07 0-.15 0-.22-.1Zm1.95 1.35h-.21c-.15 0-.3-.1-.3-.2.15 0 .3-.1.3-.1.21 0 .5.1.65.2-.15 0-.3 0-.44.1Zm.37-1.64c-.37 0-.94-.1-.87-.39.5 0 .65.2 1.01.3-.07 0-.14 0-.14.09Zm-.15-.87c-.29.29-.58.29-1.01.29 0 0 .07 0 .07-.1h-.8c.22-.38 1.02-.1 1.74-.19Zm-1.95.77h-.5c.14 0 .2 0 .35-.1.08.1.15.1.15.1Zm-1.01-.96c.36 0 .43 0 .86-.1 0 .2 0 .3-.07.39-.22 0-.43 0-.65-.1 0 .1.22.2.58.2 0 0-.07.09-.15.09-.14 0-.28 0-.43.1-.22-.1-.36-.3-.14-.58Zm-.51.38c-.07-.1-.15-.1-.29-.19.22-.1.36-.1.43 0 0 .2 0 .2-.14.2Zm-.43-.96c-.08 0-.15.1-.22.1h.43c.15.1.3.1.44.19h.07c-.22 0-.15.2-.29.29h-.87c-.8-.3-1.8-.39-2.53-.58 0-.1-.07-.1-.14-.2.07 0 .07-.09.14-.09.29.2.36 0 .8.1 0 0 .07.1.14.1-.07 0-.14.09-.14.09h.29c.07 0 .14.1.21.1.07 0 .07-.1.07-.1h.51c0 .1 0 .2.15.29.14 0 .21-.1.28-.1.15.1.22.2.37.3-.22-.4-.15-.49.29-.49-.08 0-.08 0 0 0Zm-.94-1.35c.28.1.43.2.57.2-.21 0-.36 0-.57-.1v-.1Zm-2.75-8.1c.43 0 .29.5.72.5-.29.28-1.16-.2-.72-.5Zm-.3 7.33c1.31-.2 1.67.29 2.9.1-.43.19.36.48-.07.57 0-.38-1.38-.19-1.38-.1.22 0 .15.1 0 .2.66-.2 1.16-.1 1.3.2-.79-.1-1.59-.1-2.3-.1.28-.1.64-.1.72-.39-.58.1-1.16.2-1.74.39h-.58c.15 0 .3 0 .36.1-.07 0-.07 0-.14.09-.87-.2-1.09-.48-2.39-.58.94 0 1.88.2 2.68.2-.15-.3.72-.49.65-.68Zm-2.09-6.45c-.14-.39.3-.39.07-.77.51.1 1.38-.1 1.52.28-1.37-.19-.94.3-1.59.49Zm-2.02 6.16c.72-.29 1.15-.2.43-.58.65.2 1.74.1 1.52-.29.07.2.58.1.58.3-.07.19-1.01-.1-.8.38.07.29 1.16-.1 1.23.2-.43 0-.07.47-.65.38.36-.39-.29-.39-.72-.2.29-.19 0-.38-.58-.28.5.38.29.48-.29.67h.07c-.21.1 0 .2 0 .29h-.14c-.07-.2-.44-.39-.87-.48l-.07-.1c-.36-.1-.87-.2-1.3-.29-.22 0-.44-.1-.58-.1.58-.48 2.53-.57 2.17.1Zm-3.33.96c.14-.1.36 0 .5 0l.15.2c-.29.1-.5 0-.65-.2Zm.22-1.54c0 .1 0 .1 0 0 0 .1 0 .1-.08.2-.07-.1-.07-.1.08-.2Zm.36-.1h-.36c0-.09 0-.09-.08-.19.15.1.3.2.44.2Zm-.36.1c-.08 0-.15 0-.22-.1.07 0 .14 0 .22.1Zm-14.68-.48c0-.1-.08-.1-.15-.2.07-.18 0-.57.3-.47.06 0 .06 0 .14.1.07.09.07.19.07.19l-.36.38Zm-17.21-4.53c-.8-.1-.22-.57-1.09-.67-.5-.39 1.16.2 1.6.29-.15.2-.66 0-.51.38Zm1.08 13.78c0 .1-.07.2-.22.2.08 0 .08-.1.22-.2Zm.36.58c-.29-.2-.21-.48-.21-.58.72.2.43.58 1.15.1.44.48-.29.57-.94.48Zm0-7.52c.15-.1-.07-.19.08-.29.36.1.72.1 1 .2 0 .1.08.1.08.19-.36 0-.72-.1-1.16-.1Zm1.96 7.61c-.22-.19-.51.1-.73-.19.58-.48.87-.1 1.3-.58.66.3-.07.49-.57.77Zm1.08-8.18c0-.2-.22-.3-.29-.39.15 0 .22.1.36.1 0 .1.07.19.15.29h-.22Zm.36-.77c-.22-.1-.5-.3-.58-.39 0 .1-.07.1-.07.2-.14-.1-.36-.2-.29-.3.36 0 .72.1 1.09.2-.08.1-.08.19-.15.29Zm1.16 10.4c.5-.2.94-.2 1.3.1-.5.1-.94.28-1.3-.1Zm.36-9.06c.07-.1.14-.1.14-.19v.1s-.07.1-.14.1Zm2.53 1.64c-.07-.1.07-.1.36-.1l.87.3c-.36.1-.94.1-1.23-.2Zm6.36 7.9h-.07c-.14-.1-.29-.2-.43-.2-.07 0-.07-.09-.15-.09.15-.1.3-.2.66-.1.21.1.14.2 0 .4Zm-.57-7.13h.36-.07c-.15.1-.22 0-.3 0Zm.43.1c0-.1-.07-.1-.07-.2-.15 0-.36-.09-.5-.09.43-.1.86.1 1.22.29h-.65Zm.14-2.31c.08 0 .22-.1.3-.1h.72c-.08.1-.22.1-.36.2-.3 0-.51-.1-.66-.1Zm.73.77c.14 0 .29.1.43.1a.92.92 0 0 1-.58-.2c.15 0 .36-.1.5-.1.08 0 .15.1.15.1h-.14c-.22.2.43.29.58.2 0 .19-.07.28-.22.38-.22-.1-.43-.2-.72-.1.07-.19.07-.29 0-.38Zm.94-.2h.29-.3Zm.72.68c.07.1.15.2-.07.2-.15 0-.29 0-.44-.1.22 0 .37 0 .51-.1Zm3.54 1.35c-.21-.1-.57-.1-1-.1-.44-.1-.95-.29-1.38-.48l-.07.48c.14 0 .36.1.65.1-.94.1-1.74.19-1.3-.48-.51-.1-1.74.1-1.96-.3.22 0 .36-.09.5-.19.66-.1 1.53.1 1.74.39.44-.58.66.1 1.16.1-.07-.2-.07-.3 0-.39.15 0 .36 0 .5.1-.2.1-.35.29-.06.48.14-.1.07-.29.5-.39.15.1 1.01.48.72.68Zm.58-1.06v-.1h.15s.07 0 .07.1c-.07-.1-.15-.1-.22 0Zm-2.53-.58c-.58-.29.15-.39-.07-.58.72.1 1.52.1 2.24.3.3-.2.3-.4.07-.68-.21.1-.36.1-.5-.1.29 0 .5-.1.65-.2.07.2.07.4.22.4l-.08.38h.3c.06 0 .14.1.28.1-1.08.67-2.53-.1-3.1.38Zm1.74-.96c-.07.1-.15.19-.07.29-.15-.1-.37-.2-.66-.3-.07-.09-.07-.09 0-.28.22.19.44.29.73.29Zm1.01 0 .07-.1c.22.1.5.1.5.29l-.57-.2Zm1.37.19c.3.1.51.2.58.38h-.21s-.08-.1-.15-.1v.1h-.14c0-.19-.08-.28-.08-.38Zm.44 1.06c0-.1 0-.1 0 0Zm-.22.87c.07-.1.22-.1.36-.2h.3l.64.3c-.07 0-.14.09-.21.09h.21c-.07 0-.14 0-.21.1H180.64c-.07-.2-.22-.3-.36-.3-.15-.09-.5.1-.58 0Zm1.3.86c-.14-.19-.36-.19-.5-.19 0 0 0-.1.07-.1.07.1.22.1.29.1.07.1.14.1.21.29 0-.1-.07-.1-.07-.1Zm.3 0c-.08-.1-.15-.19-.15-.29.14 0 .29 0 .43.2-.07.1-.22.1-.29.1Zm0-1.54h.2c0 .1.15.1.3.2-.22-.1-.36-.2-.5-.2Zm4.55.68h-.07c-.08 0-.15-.1-.15-.1.07.1.15.1.22.1Zm-.73.19h.15-.15Zm.22.67c.44.1.8.1 1.3.48.08-.1 0-.19.22-.19.07.2 0 .3-.15.3-.72-.1-1.37-.1-2.1-.4.37 0 .51-.1.73-.19Zm-1.88-.77c.07 0 .22.1.44.2h-.51.07c-.22-.1-.36 0-.43.19 0 0-.07.1 0 .19-.07 0-.15 0-.22-.1.15-.19.29-.38 0-.48h.65Zm-.36-3.66c-.07 0-.07.1-.14.1-.15 0-.3 0-.37-.1h.51Zm.14 4.34h.51c.15.19 0 .19.15.29.28 0 .36-.2.36-.39.07.1.07.29.14.39-.65.19-1.3-.39-1.95-.2v-.19c.36.2.58.2.8.1Zm-.72-4.43h-.36c.07 0 .22-.1.36 0Zm-.65 2.6c.14.1.22.1.36.1h.3c-.08.09-.15.09-.23.19h-.07s0 .1.07.1c0 0 0 .09.08.09-.15 0-.37-.1-.58-.2l-.3-.19c.08-.1.15-.1.23-.1h.14ZM180.79 41c.36.1.28.39.86.48-.21.1-.8-.1-1.15 0 0-.29.21-.29.29-.48Zm-.15 1.35c-.22.48-1.8-.39-2.53-.29v-.1h-.07c.5-.38 1.88.49 2.6.39Zm-1.08-.96c-.15.1-.37.19-.08.38-.36.1-1-.1-1.51-.2.5-.09.57-.57 1.59-.18Zm-1.52 1.06c.07 0 .07 0 .14.1.15.09.22.09.3.18h-.73c-.07-.1-.15-.1-.22-.19 0 .1-.07.2-.22.2v-.1c-.14 0-.36 0-.57.1.5-.2-.15-.3-.15-.58.58.48.94.19 1.38.29h.07Zm-.87-1.26c.22 0 .5.1.65.1l-.07.39c-.3-.1-.44-.2-.65-.2.07-.19.07-.29.07-.29Zm-.43 0c.07.1.07.1 0 0 0 .1 0 .1 0 0-.08.1-.08.1 0 0Zm-2.1-.57c.43 0 .72.1 1.01.19-.14.1-.14.2-.14.29 0-.1.21-.1.43-.1.15.1.29.29.43.39-.14.1-.21.1.08.19 0-.1.07-.1.07-.1.14.1.22.2.36.2-.29-.1-.43 0-.5 0-.44-.2-.73-.39-1.23-.58h.07c-.36 0-.44-.3-.58-.48Zm-.36 1.54c.72.67 1.08.19 1.95 0 .07.19.22.38.22.57-.08 0-.15 0-.15.1-.22-.1-.14-.29-.58-.38.15.48-.36.38-.65.48.36.1.58.1.65.19-.5 0-1.08 0-1.51.2-.22-.4.14-.2.28-.4.08.1.15.1.22.2 0-.39-.72-.87-.43-.96Zm-.87-.3c.5.1.65.49.87.78-.58-.1-1.02-.2-1.23-.39h.07c.22-.1.65-.1.29-.38Zm-.65-.28c-.22 0-.3 0-.36-.1.14.1.29.1.36.1Zm.14.1c.15 0 .36.1.51.1 0 0 0 .09-.07.09-.08.2-.22.29-.44.29h-.14c-.15 0-.3 0-.44-.1.22-.2.51-.29.58-.38Zm-.94.67c.15-.1.15-.2.3-.2.06 0 .06.1.14.1l-.15.2h.3c.06.1 0 .19.06.28-.14-.1-.21-.19-.29-.28-.28.1-.5.1-.72 0l-.07.1c-.15-.1-.29-.1-.15-.3.22.1.3.1.44.1h.14Zm-.36-1.25c.3.1.15.19.07.29-.14 0-.28 0-.36.1 0-.1-.14-.2-.21-.3.21 0 .36 0 .5-.1Zm-.58 1.25c.65 0 .08.38.73.48l.07-.1c.22 0 .5 0 .65.2v.1c-.36 0-.72-.1-1.16-.1-.21 0-.43-.1-.72-.1.07-.29.58 0 .43-.48Zm.15 1.35c-.07 0-.07 0-.15.1l-.14-.2c.07 0 .14 0 .29.1Zm-.5-.68h-.08c-.07 0-.15-.1-.22-.1.07 0 .15 0 .3.1Zm-.88-1.15h.08c.14.1.21.2.43.1h-.07c.07 0 .14 0 .22.1-.08.28 0 .86-.66.76-.65-.48.66-.38.08-.67-.08.1-.22.19-.51.1.14-.2.29-.3.43-.4Zm-.36 0c-.14 0-.22 0-.29.1-.07-.1-.14-.2-.14-.3.14-.1.29 0 .43.2Zm.72 1.06c.08.1.22.19.37.29 0 .1-.08.29-.08.38-.36.1-.65-.38-1-.1.57.4 1.3-.19 1.8.49.14-.1.36-.1.5-.2-.07.3-.72 0-.28.49-.15-.1-.36-.1-.5-.1-.23-.1-.37-.2-.59-.2.07-.09.07-.28-.14-.38-.3.3-1.3 0-1.88.2-.15 0-.3 0-.44-.1.08-.1.08-.2-.14-.3-.15.1-.29.2-.5.3h-.51.07-.07c-.58-.3-.36-.39-1.09-.68 1.01 0 1.6.39 2.9-.1-.37-.28-.22-.38-.3-.47.87.48 1.67.96 1.88.48Zm-2.1-1.83h-.14V41c0 .1.08.1.15.1Zm-.79.1c.15 0 .36.09.58.09-.14.1-.36.2-.58.2 0 0-.07 0-.07-.1 0 0 0 .1-.07.1h-.5c.06 0 .14-.1.2-.2-.5-.1-.93.2-1.15-.1.3-.1.58-.1 1.01-.1.22.1.44.1.58.1Zm-.94.86c0-.1.08-.2-.14-.29.07 0 .22-.1.29-.1h.07c.07 0 .07 0 .14-.1 0 0-.07.1-.14.1.14 0 .22.1.36.1a.88.88 0 0 0-.14.48h-.22c-.07-.1-.14-.19.14-.19h-.36Zm-1.95-.77h.22c-.08 0-.08.1-.15.1-.07 0-.07-.1-.14-.1 0 0 0 .1.07 0Zm.07-.39c.07-.1-.07-.1-.14-.19 0-.29.36-.29.8-.1 0 .3-.15.49-.66.3Zm1.3.68c0 .1 0 .2.15.2-.15-.1-.8-.1-1.3-.3.43 0 .8 0 1.15.1Zm.87-1.83c.15 0 .3 0 .44.2h-.58c0-.1.07-.1.14-.2Zm-.29-.39c-.07.1-.36.1-.43.2.07 0 .14.1.22.1h-.08c.15 0 .22.09.22.18-1.01-.1-1.95-.1-2.75-.77-.07-.28.87.1.58.3.65.28.8 0 1.38.28.21 0-.15-.67.86-.29Zm-.36-.29c-.22-.1-.36-.19-.5-.19.07 0 .21-.1.36-.1.07.1.14.2.14.3Zm-3.76-1.44c.5.48 1.8-.1.65-.29.22-.2 1.23.29 1.74.39-.87.19.43.48 1.08.96-.14 0-.21.1-.29.1-.87-.3-.94.19-2.1-.2.15.48-.14.39.08.87-1.45-.2.21-.77-1.09-.77.44-.1.87-.29.3-.58-.37 0-.15.2.14.29-.5.2-.94-.58-.5-.77Zm1.23 3.66c.22.1.58.2.8.2.21.09.36.19.07.28.58.3.21-.29.8 0 .07.1.07.1.07.2-.37-.1-.66-.1-1.09 0-.07 0-.07-.1-.07-.1h.07-.07c-.07-.1 0-.2-.22-.3 0 .1-.07.1-.14.2l-.44-.29c0-.19-.29-.38.08-.58.07 0 .07 0 .14-.1-.29 0-.07-.28-.36-.38-.15 0-.22.1-.3.3-.14-.1-.28-.2-.35-.4v-.09h-.07c-.08-.1-.15-.2-.3-.2v-.09c.08 0 .22-.1 0-.1 0 .1-.07.1-.14.2-.22-.2-.36-.3-.58-.48 1.3.19 2.97 1.44 2.1 1.73Zm-.5-.29s-.08 0-.08-.1l.07.1Zm-.3-.29h-.14a4.3 4.3 0 0 0-.58-.29h.15c.21.2.43.3.57.3Zm-1.59-3.47c-.65.2.51.2.51.49-.07.1-.22.1-.43.1.07-.3-.37-.4-.73-.59-.29.39.73.39.5.77-.57-.1-.93-.28-1.3-.38v-.1c.3.1.59.1.8 0-.21-.1-.5-.19-.8-.29v-.19c.44 0 .73-.1 1.45.2Zm-2.45 2.8c.28.1.43 0 .5 0h.07c0-.1 0-.1-.07-.2 0-.1 0-.19.07-.28 0 .1.08.19.15.19v.1h.07c.29.28.72.57 1.01.48-.14-.1-.14-.1-.14-.2 0 0 .07 0 .14-.1 0 0-.07 0-.07-.09l.94.29c-.8.2 1.09.39.29.58.07 0 .14.1.22.1-.15 0-.22.1-.15.19.3 0 .8.19 1.01.1.22.09.44.19.44.28-.22 0-.5-.19-.58-.1.22.1.43.2.65.2h-.43c-.37-.2-.08.2.14.1.15.19 0 .28-.14.38-.3 0-.44.1-.15.29.07-.29.3.29.8.2.07-.1 0-.3-.07-.3.28 0 .57 0 .8.2.57-.58 1.15-.3 1.73-.1l.58.2v-.1c.07 0 .14-.1.07-.1.21 0 .8.38.87.38 0 0 .14-.28.21-.28h.3c.06.19.2.48-.44.57-.94-.1-1.88-.48-2.82-.38.36.2.43.38.21.48l1.23.29c-.07.1-.29.2-.5.29-.22 0-.36-.1-.58-.1 0-.1.07-.1.22-.2-.44-.18-.44-.09-.58.1-.15 0-.36-.1-.58-.19l.07-.1c.07 0 .22-.09.36-.09-.14 0-.21 0-.29-.1v-.19c-.14 0-.21.1-.36.1-.14-.1-.29-.1-.43-.3-.07.1-.07.2-.07.3h-.08c-.21-.1-.36-.2-.58-.3l-.07.1c-.29-.19-.72-.28-1.23-.38l-.07-.1c.07 0 .15 0 .22.1.14-.1.14-.2.14-.29.07 0 .15 0 .15-.2-.65-.38-.15-.67-.44-1.05 0 0 .07 0 .07-.1-.28-.1-.21-.48-.86-.38 0 .19-.07.38.22.48.07-.1 0-.2.14-.2.07 0 .07 0 .14.1h-.07c-.14 0-.07.2-.07.39a.86.86 0 0 0-.5-.2c-.15-.48-1.16-.48-1.81-.86Zm.94 1.44c-.08 0-.22.1-.22.2-.07-.1-.07-.1-.15-.1.15 0 .3 0 .37-.1Zm-1.16-3.85c.07 0 .14.1.14.1h-.43c.14-.1.22-.1.29-.1Zm-.07 3.76c.07.1.28.19.5.38h.07c.08 0 .15.1.22.2h.15c.07 0 .21.1.28.1.51.38-1.37-.5-1 .18-.22-.19-.51-.29-.95-.38.22-.1.5-.1 1.02 0-.15-.2-.66-.3-.73-.58.07.1.22.1.44.1Zm-1.67-1.64s0 .1-.07.1c0 0-.07 0-.07-.1h.14Zm.3 1.83c.14-.2-.8-.96.28-.77-.07.2.07.29.36.48-.5.2-.14.87-1.08.29.07-.1.29 0 .43 0Zm.28 1.35c-.14 0-.36 0-.5.1-.08-.1-.08-.1-.08-.2.22 0 .36.1.58.1Zm-1.37-5.1c.29 0 .5.09.72 0-.29.09-.58.18-.94.18-.07-.1 0-.19.22-.19Zm-.5.86c.42.1.5.2.71.29-.21 0-.14.38-.65.2-.07-.1-.07-.3-.07-.5Zm-.66-1.06c.14 0 .36.1.43.2.08.09.08.09.08.18-.22 0-.44-.1-.73-.28.08 0 .15-.1.22-.1Zm-1.74 2.02c-.57-.29-.72-.67-1.51-.86v-.1c.57-.2 2.31.77 1.51.96Zm.51-.38c.36.1.36.29.72.29 0-.1-.21-.2-.36-.2.22-.29.65.2.73.3 0 .28-1.45-.1-1.09-.4Zm-2.31-1.06c.14-.2.94.19 1.37.29-.07-.3-.94-.3-1.37-.49.29-.38.94.3 1.8.39-.14-.1-.36-.29-.57-.39.57-.1 1 .1 1.8 0v.1c-.36 0-.57.1-.86.2.36 0 .8.09 1 0 .15.09.37.19.59.19 0 .29-.73-.1-1.02-.2 0 .3-.21.3-.65.2.3.19 1.3.29 1.3.86-1.88-.67-1.51-.38-3.4-1.15Zm3.9 1.63c-.07 0-.14-.1-.29-.19-.14-.48.94.2.65-.38.22.1.58.1.8.19-.5 0-1.01.1-1.16.38Zm.5 0c.08 0 .15 0 .22-.1.08.1.22.2.37.2.07.1.07.2-.08.2-.21 0-.36-.1-.29-.3-.07.1-.14.1-.21 0Zm-.72 9.64c.15-.3-.36-.39-.36-.68.5.1.87.2 1.02.49.43-.2 1.15.19 1.44.1.15.09.36.09.5.09.08.1.15.1.23.2-.44.28-.73 0-.8.28-.8-.39-1.23-.39-1.52.1-.58-.3-.07-.39-.22-.58l-.8.29c-.2-.2-.28-.3-.28-.39l.8.1Zm-1 1.06h.14c.29.1.65-.1.86.2-.14.09-.43.18-.65.09 0 0-.07 0-.07-.1-.29.1-.36-.1-.29-.2Zm-1.45-8.67c.43.2.8.29.86.1 0 .19-.14.19-.36.28a.94.94 0 0 0-.72 0c-.07-.29 0-.38.22-.38Zm-2.68 6.55c-.07 0-.07 0 0 0l.07.1c-.5.28-.94.19-1.3 0 0-.3.8-.49 1.23-.1Zm-5.57.58c.07-.3.8-.2 1.16.1-.36.19-.72.09-1.16-.1Zm2.68-1.45c-.8.1-.44.1-.8.39h-.21s.07 0 .07-.1c-.5 0-.58-.2-.73-.38.58.38.87-.49 1.67.1Zm-1.74-6.07c-.29-.1-.58-.19-.8-.19a.8.8 0 0 1 .8.2Zm-.14 5.98c0 .1-.07.19-.15.19 0-.1 0-.2.15-.2Zm-.8-6.07c.3.1.36.19.44.29-.22 0-.44 0-.58-.2.07-.1.14-.1.14-.1Zm.44 6.26c0 .1 0 .1 0 0 .07.1 0 .1 0 0 .72.77 1.66.48 2.38.86-.58.39-2.1-.28-3.03-.48.43-.1.07-.29.65-.38Zm-5.35-.77c.07-.2.79-.3 1.15.1-.43.09-.8.09-1.16-.1Zm2.96-4.92c.29.1.5.1.72.2-.29.1-.58.1-.72-.2Zm.36-.38c.07-.1.15-.1.44 0-.15.1 0 .2.14.38-.22-.1-.43-.19-.58-.38Zm.72-.58c-.21 0-.43.1-.57.1 0-.2.07-.39.57-.1Zm-.14-1.16c0 .1 0 .1 0 0h-.07c-.15.1-.3 0-.65-.1.14-.09.36-.09.72.1Zm-1.01.3c.36.19.07.67-.36.57.21-.1.28-.38.36-.58Zm-2.24-.2c.14.1.21.1.36.1h.14c.22 0 .44 0 .58.19-.14 0-.36 0-.8-.1 0 .1 0 .1-.07.1-.21 0-.36-.2-.21-.29Zm.07.58c.29.1.65.2.94.29-.44.1-.72-.2-1.16-.2.07-.1.15-.1.22-.1Zm-.8-1.16h-.21v-.1c.07 0 .14.1.21.1Zm-1.44 5.78c.86.58 2.6.39 2.96.97-.87-.39-3.1-.1-2.96-.97Zm-24.37-12.23c.07 0 .21-.1.21-.1v.3h-.07c-.14-.1-.14-.2-.14-.2ZM68.4 45.54c0-.1 0-.1 0 0h.07c0-.1 0-.1-.07 0Zm.8.48c.07-.39-.3-.39 0-.77.5 0 .65.2.65.38-.3.1-.44.3-.66.39Zm.28-1.64c0-.19 0-.29.08-.38h.07v-.1c.07-.2.22-.29.58-.38-.22.28-.22.67-.73.86Zm.44 4.82c.14-.1.21-.2.36-.29 0 .1-.15.2-.36.29Zm1.15-3.47c-.14 0-.28-.1-.5-.1-.07-.38-.22-.77-.5-.96.35.1.5-.1.93-.2.44.1-.14.4.3.5.57-.1 1.22-.78 1.51-.59-.29.3-.43.68-.87.87-.29 0-.36-.1-.58-.1.08.3-.07.48-.29.58Zm-.94-10.02c.08 0 .15.1.22.1 0 0-.07.1-.14.1 0 0-.08-.1-.08-.2Zm.87.2c.07 0 .15.1.22.19 0 0-.07 0-.07.1-.08 0-.15 0-.15-.1-.14-.2-.07-.2 0-.2Zm.58 6.83c.07 0 .07 0 .15-.1h.07c-.15.1-.15.1-.22.1Zm.58.87c.58-.29.72-.1 1.01 0 0 .39-.8-.2-.8.3-.21 0-.14-.2-.21-.3Zm.58 1.25c.22.2.5.2.8.3-.22 0-.3 0-.44.09 0 0-.07-.1-.14-.1 0 .3-.3.48-.73.58.22-.38.36-.67.5-.87Zm2.17 1.83h-.15c-.36-.1-.5-.38-1-.38.42-.1.79-.2 1.08-.29.5.29.65.48.07.67Zm1.23-.57c-.08 0-.15.1-.22.1-.43-.1-.43-.3-.29-.4.29 0 .65-.19.72 0-.14.1-.21.2-.21.3Zm7.08-.49c-.14-.28.37-.28.37-.48-1.3.1-2.25.3-3.26.58 0-.29-.07-.38-.43-.38 0 .28-.44.48-.73.67-.14 0-.21-.1-.36-.1-.14 0-.14.1-.21.2-.58.19-.58-.2-.87-.2v.2c-.36-.1-.65-.1-.73-.3l.94-.19c-.14-.28.37-.28.15-.57-.43.19-.72.48-1.09.77 0-.1-.07-.1 0-.2-.07.1-.21.1-.28.2a1.7 1.7 0 0 1-.15-.58c-.29.1-.5.2-.65.29 0-.1 0-.1-.14-.2-.66.3-1.3.2-1.88 0-.15.3-.73.49-.94.78-.22-.2 0-.3.14-.49.07.1.22.1.36 0 .3-.1.15-.28.15-.48.21 0 .36.1.57.1 0-.2 0-.39.15-.48-.5.1-.8.1-1.01 0 .43-.1-.36-.3.36-.39.36.2.65.39 1.44.3-.14-.2.22-.68.22-.78.3 0 .58.1.87.1-.07.19-.15.38.29.29.07-.1.14-.2.29-.2.14 0 .21 0 .29-.1h-.15c.07-.09.15-.19.07-.28.37.1 1.3-.1 1.74 0 .07-.1-.14-.3.22-.39.43.2.8.1 1.08.58.44-.1.36-.29.5-.38.23 0 .37 0 .59-.1.36.2.65.58 1.3.1.36.19 0 .28.5.48-.36.19-.72.1-1 0l.86.29c-.87.1-1.95.57-2.53.77 1.3-.1 2.02-.58 3.25-.58.73.1 1.45.2 2.24.2v.18c.3 0 .51-.1.66-.1h.43l.07.1c-1.52.3-2.24.39-3.04.77-.14-.19-.36-.1-.65 0Zm-9.18-2.79c.14 0 .36.1.5.1-.07.1-.14.19-.43.29 0-.1-.07-.1-.21-.1-.08-.1 0-.2.14-.29Zm-.14-6.55c.14 0 .21-.1.36-.2 0 .1-.08.2-.22.2 0 .1-.07.1-.14 0Zm.65 6.45h.14-.14Zm1.73.3h.44c0-.2-.15-.4.5-.58.44.48-.43.67.8.86-.44.3-.8.1-1.16.1 0 .1.07.1.07.1-.29.1-.72.1-.94.19-.21-.1-.5-.1-.65.1h-.29c.3-.3.8-.49 1.23-.78Zm-.87-.3c.3 0 .37.1.8 0 .07-.1.07-.1 0-.19.14 0 .29 0 .43.1-.36.1-.8.1-1.23.1Zm1.81-7.03c.15-.1.44-.19.72-.29l-.72.3Zm2.68 1.45h-.44c.15-.1.3-.1.44-.2.43 0 .94-.1 1.15.1-.14 0-.36.1-.5.1-.22-.1-.36-.2-.65 0-.08-.1-.08-.1 0 0Zm-.65-.97c0-.1.07-.19-.08-.28-.21.1-.36.1-.5.19h-.15c0-.2.58-.2.58-.39.22 0 .36.2.58.2.07 0 .14.1.22.1-.15.18-.36.18-.65.18Zm-.58-.86c.29 0 .5 0 .65.1-.22 0-.44 0-.65-.1Zm.21.29c-.28 0-.57.1-.8.1l.08-.1h.72Zm2.32-.97c.43 0 .87.2.43.48-.21-.1-.8-.19-.43-.48Zm1.37 1.83h.58c-.36.1-.5.1-.58 0Zm.65 7.23c.65.2 1.3-.3 1.88.2-.57.28-1.08.09-1.66.28-.29-.2-.43-.39-.22-.48Zm3.84 2.5h-.58c-.15-.19-.07-.29.07-.29.14.1.14.2.5.3Zm-1.88 0c-.15-.1-.22-.29-.3-.48.59-.2.3.39.8.2 0 .09-.29.09-.36.28h-.14Zm.36.58c.58-.1 1.15-.1 1.66.2-.58.09-1.16.09-1.66-.2Zm1.8-1.73c-.14-.1-.14-.3-.14-.3h.36s0 .2-.21.3Zm1.81 5.3c0-.1 0-.1 0 0-.07 0-.21 0-.29.1l-.07-.1c-.07 0-.22.1-.29 0 .3-.39 1.02-.58 1.67-.3-.37.2-.8.1-1.02.3Zm.58-3.38c-.21 0-.36 0-.58-.1-.21-.19-.5-.19-.8-.19-.2-.1-.43-.19-.64-.28.5 0 1.01-.1 1.52-.2-.08.1-.15.2-.37.3.87.28.44-.68 1.52-.2.22.38-.07.58-.65.67Zm.36-8.96c-.21 0-.5 0-.72.1.07-.1.22-.29.5-.29h.22c-.14.1-.14.2 0 .2Zm6.66 9.83c.07 0 .07 0 0 0Zm1.37-.77h-.14c-1.09-.1-2.17-.2-3.26-.1-.14-.1.07-.19.3-.29.2 0 .42 0 .42-.19-.14 0-.21-.1-.21-.2-.3 0-.44.1-.65.2-.5 0-.5.48-.08.77.37-.1.73-.1 1.09-.1-.5.1-.94.1-1.45.2-.29-.1-.58-.2-.72-.39.14-.1.36-.1.5-.19-.57.1-.36-.29-.93-.1.21.3-.44.3-.73.3h-.72c0-.1.07-.3.22-.4-.5-.18-.44.3-.8.3-.58-.3-.14-.58.07-.77-.21-.1-.43-.1-.65-.1.36-.1.8-.1 1.16-.2l2.1-.28c.94.2 1.88.29 2.6-.2h.07c.3.4-.58.2-.5.49.94.1 1.15.1 1.88.29.14-.1 0-.3.21-.39.94 0 2.46 1.06 3.04.48 0 0 .07 0 .07.1.08.38-.21.67-.72.38 0 .1.07.1.07.1h-.22c-.36-.1-.5-.29-.72-.38v.48h-.5c-.15-.2-.51-.3-.58-.48 0 .38-.07.57-.22.67Zm-7.81-8.96c.15 0 .29 0 .43-.1-.07 0-.07.1-.14.1h-.29Zm.65-.48c.15.1.36.2.58.29-.14 0-.36.1-.43.2-.15-.2-.15-.3-.15-.5Zm2.68-.2c.07 0 .21 0 .29.1-.22 0-.3 0-.3-.1Zm4.55-.38h-.14l-.44-.29c.37-.29.66-.1.94 0-.21.1-.43.2-.5.2.07.1.14.1.14.1Zm.15.58-.22.29h-.07c.07-.2.14-.3.29-.3Zm-1.02-.39c-.14.1-.21.1-.36.1 0-.29 0-.48-.21-.58l.07-.1h.58c.14.2-.15.4-.08.58Zm.58.3c-.07.09 0 .19.08.38-.22 0-.37 0-.51-.1.07-.2.14-.38.43-.29Zm-1.44-3.76c.72 0 1.52.1 2.24.38-.72.1-2.1.1-2.24-.38Zm-.22-.1c.07 0 .14-.1.22-.1-.08.1-.15.1-.22.1Zm2.53.58c.44-.3.8-.1 1.23 0 0 .1-.07.1-.14.19h-.73c-.14-.1-.21-.1-.36-.2Zm4.2 5.2.5.38c-.36.3-1.37.2-1.16-.19.37.3.58-.1.66-.19Zm-.08-1.35c.08 0 .22.1.3.1v.1c-.22 0-.3-.1-.3-.2Zm.15-5.1c-.22 0-.36-.1-.58-.1.29-.1.58-.2.94 0-.14 0-.29 0-.36.1Zm-.58 6.35c.07 0 .07 0 0 0h-.44.44Zm-.29-2.02c-.29-.1-.65-.2-.8-.29.22-.2.87.1.8.29Zm-.87 1.73c-.07-.1-.14-.1-.14-.19.07.1.14.1.14.2Zm-1.08-6.35c.36 0 .72-.1 1.16-.1 0 .1.07.1.07.2-.44 0-.87-.1-1.23-.1Zm-1.88 15.02c.72-.1 1.44-.1 2.02-.28 0 0-.07 0-.07.1.07 0 .22.09.36.09-.14.1-.29.1-.29.29 0 0 0-.1.07-.1-.8-.1-1.59.29-2.1-.1Zm2.53.77c.36.49.87.2 1.23.39-.87.1-2.32.2-2.6-.48.36.1.79.1 1.22-.2.15-.19-.14-.19-.36-.28l.65-.1c.08 0 .08.1.08.1-.08 0-.22.1 0 .1.21-.1.29-.2.43-.3.07 0 .14.1.14.1.15 0 .22-.1.22-.2.14.1.36.1.58.2h-.07c.14.1.14 0 .21 0 .73.2 1.52.29 2.03.67-1.23.3-2.46-.1-3.76 0Zm7.45-15.02c-1.3.1-2.82-.1-4.49-.3.73 0 1.52 0 2.1-.18.43.19 1.74.19 2.39.48Zm-2.25-.58c.08 0 .15 0 .22-.1.07.1-.07.1-.22.1Zm.58-.29c0-.1 0-.1 0 0 .22 0 .73-.1.65.2-.21-.1-.43-.1-.65-.2Zm-2.38 5.3c-.08.1-.15.1-.22.2-.36 0-.65-.1-.5-.4.21.2.5.2.72.2Zm.72 10.7h-.22c.08-.3-.5-.3-.58-.5.15 0 .22.01.15-.09.43.1.5.39.65.58Zm0-.5c-.07-.09-.14-.09-.22-.18.15 0 .3.1.51.1l-.29.09Zm2.24.4c.15.1.3.1.44.19-.08 0-.22.1-.37 0 0-.1 0-.1-.07-.2Zm.5.57c-.14-.1-.2-.19-.28-.19.14 0 .29.1.43.1-.07 0-.14.1-.14.1Zm.8.48c-.36-.19-.43-.38-.43-.57.94.19 1.88.29 2.9.57-.73.1-1.96-.19-2.47 0Zm3.98.78c-.5-.1-1.01 0-1.44-.39.86.2.94-.2 1.3-.2-.08 0-.08 0-.08.1.37.1.66.1.94.2-.28 0-.5.19-.72.29Zm-1.16-.78c.44-.1.08-.28.66-.38.65.38-.3.67-.66.38Zm2.03 1.16c-.22-.2.14-.38.22-.58-.15-.1-.22-.1-.37-.1.22 0 .44.1.58.1.08.1.15.2.44.2.21.38-.37.38-.87.38Zm1.66-.67c-.07-.1-.07-.1-.07-.2-.15.1-.29.1-.43.1-.37-.2-.73-.48-1.16-.2.14 0 .29 0 .36.1-.29-.1-.65-.1-.87-.1-.07-.19-.8-.19 0-.38.58-.2-.21.48.36.3.8-.2.15-.2-.21-.59.21 0 .36 0 .58.1-.58-.39-2.53-.29-3.62-.68.22.49-.58 0-.65.39.65.1 1.37.1 2.1 0 .07.29-.08.48-.3.58-.06-.2.37-.2.08-.3-1.45 0-2.24-.09-3.04-.76 0-.1-.07-.1-.14-.2-.08.4-.5.1-.87 0-.22 0-.43 0-.58.1h.07c-.14.1-.14.2-.14.3.22.09.5.09.72.18-.29 0-.58.3-1.3-.1-.14-.09-.14-.09-.22-.19.22.1.44.2.58 0-.14-.1-.36-.1-.58-.19.08-.1.08-.19 0-.29.22 0 .36 0 .51-.1-.29 0-.5-.09-.65-.09.14 0 .22-.1.36-.1.29.1.58.2.65.1-.14-.1-.36-.1-.5-.2H106c-.21-.09-.5-.18-.8-.28.44.1.95.2 1.3 0-.14.1.52.38.23.48.72-.1 1.51-.29 2.17.39.28-.2.65-.2.94-.2 0 .1.07.2.21.39.15-.3.94-.1.58.1.29-.1.72-.1 1.16.1-.07 0-.15 0-.22.09.58.19 1.3.29 2.1.29.5.1 1.08.1 1.59.29-.65.28-.72-.2-1.09.19.44.2.8.38 1.3.29.08.19-.21.19-.43.29Zm-9.54-8.48c.36-.2.72-.2 1 .1l-.64.19c-.07-.1-.22-.2-.36-.3Zm7.23 6.93h.65v.1c-.15 0-.36-.1-.65-.1Zm1.88-7.9c.36.1.8.1 1.16.2-.51.2-.58.48-1.23.29.28-.2-.3-.39.07-.48Zm-.22-.57c.8-.1 1.16.29 1.66 0 .15.19.51.38.37.48-.66-.2-1.38.1-2.03-.48Zm8.03 11.56c-.65-.39.43-.77.8-.39-.15.3-.87-.1-.8.39Zm1.15.19c-.14-.1-.28-.2-.36-.29.58-.2 1.16-.48 1.67-.1-.15.39-.8.1-1.3.39Zm1.52-8.77c-.43 0-1.52 0-.94-.38.22.38 1.23 0 .94.38Zm6.3 10.12c.5-.29.79-.48 0-.77.5-.1.94.1 1.37.38-.5.3-.65.87-1.38.39Zm2.6-8.67c.72.48 1.59-.1 2.31.48-.72-.2-2.75.2-2.31-.48Zm-1.09 0c-.29.1-.43.2-.5.29-.07-.1-.15-.1-.3-.2.37-.38-.06-.57-.72-.77.87-.19 1.02.2 1.52.68Zm-1.8.29c.72.48 1.51.29 2.24.77a4.5 4.5 0 0 1-2.75-.58c.22.2.43 0 .5-.2Zm1.15 1.92c-.58-.1-1.95-.19-1.95-.67.5.29 1.95.1 1.95.67Zm-5.93-4.04v-.29c.8 1.06 2.6.67 3.98 1.25-.94.1-2.39-.2-3.54-.29.21.2.5.48.07.58-.07-.67-.58-.29-1.38-.77.22-.1.37-.1.51-.2.36 0 .72 0 1.3.2a1.21 1.21 0 0 0-.94-.48Zm-.72-5.68c-.07.19-.22.28-.65.38-.29-.48-.8-.2-1.09-.58.08 0 .22-.1.3-.1.36.49.72.1 1.44.3Zm-3.33-1.74c.73.2 1.6 0 2.32.58-.65-.1-.65.38-1.02.38v-.1c-.14 0-.36-.09-.57-.18-.15-.3.29-.49-.22-.49-.22.1 0 .39-.43.49H122.2c-.29-.2 0-.39.07-.68Zm1.3 1.45c-.5.19-1 .1-1.44-.1.43 0 .94-.2 1.44.1Zm-.94 5.1c-.43.1-.94.1-1.37 0 .29-.1-1.16-.29-.5-.58.65.2 1.3.39 1.88.58Zm-1-2.7c-.59 0-1.16-.19-1.74-.19.07-.2 1.73-.2 1.73.2Zm-.8-3.17c-.3.1.29.28.07.38-.36-.2-.8 0-1.16-.38.44-.1.8-.2 1.09 0Zm-.22 5.68c-.22.2-.07.38.14.67.15-.29.15-.38.8-.29.29.2.07.3.07.39.36-.39.36-.1.87 0-.36-.39.58-.29.87 0 0 .29-.65.1-1.09.38-1-.28-1-.48-1.44-.1-.58-.09-.65-.38-.5-.57-1.1.2-2.83-.29-3.26-.96 1.15.58 2.67.58 3.54.48Zm-2.75.87c-.43-.3-.43-.1-.43.1h-.15c0 .09 0 .18.08.28 0 0-.08.1-.15.1-.07 0-.14-.1-.22-.1-.07-.48.22-.67.87-.77.15.1.22.1.36.1-.07 0-.21.1-.29.1.08.09.15.19-.07.19Zm-.58-.49c.08 0 .15-.1.3-.1.06.1.21.2.28.2-.14-.1-.36-.1-.58-.1Zm.22-6.74c.43.2.94.29 1.45.39-.22 0-.44.1-.8-.1 0 .1 0 .1-.07.2l-1.09-.3c.15-.1.37-.1.51-.19Zm4.2 15.41c-.66.49-1.09-.48-1.74-.19.36.29.72.2.36.48-.65-.1-.29-.38-.94-.77-.72.3-1.23-.38-1.88-.1.36.1.8.1 1.08.49-.28.2-.57 0-.86.2-.08-.01-.15-.1-.22-.1-.14-.2.29-.49-.36-.49-.29.1-.07.2 0 .39-.29-.1-.58-.1-.87-.2 0 .2.15.3.3.39-.15-.1-.37-.1-.52-.29.08-.2.73-.38.58-.67-.36 0-.65-.3-.94-.39 2.03.3 4.05.58 6 1.25Zm-4.92-15.4c-.22.09-.3.18-.36.28l-.08-.1h-.07c-.43-.19-1.3-.29-1.08-.57.43.28 1.08-.1 1.59.38Zm-3.62-.88c.65-.1 1.38-.48 2.24 0-.36.3-.72 0-1.08.2.29.19.65.19.43.38 0-.1-.07-.2-.14-.29-.22 0-.44.1-.58.1-.5 0-.94-.1-.87-.39Zm.65 5.6c-.65.18-1.3-.1-1.88-.3 0-.19.65-.29 1.09-.19-.3.2.65.2.8.48Zm-2.89-6.08c.72.48 1.37-.19 1.8-.19.59.48-.35.29-.72.67-.21-.38-.57-.1-.94 0-.28-.19-.36-.38-.14-.48Zm-1.09 5.1s-.07 0-.07.1c-.07 0-.14 0-.14.1-.3.1-.65.1-.44.29.58-.2 1.09 0 1.67-.2-.22-.09-.58-.09-.44-.28.51.38 1.88 0 1.88.58-.65-.39-1.88.1-1.3.57.15-.57 2.03.1 2.03.39-.5-.1-2.1-.58-1.81 0 .29 0 .5 0 .72.2-1.08.18-1.52-.88-2.1-1.07l-.79.3a5.77 5.77 0 0 0-3.33-.78c-.21.39-.65.58-1 .67 0-.67-.59.1-1.17-.38h.15c.87-.2 1.52-.39 2.1-.77h.14c.94.67 2.68.2 3.9.29Zm-1-.28c-.37 0-1.53.1-1.3-.29.35.2.86 0 1.3.29Zm-1.74-7.03c.36.19 1.23.1 1.8.1-.65.67-1.59.28-2.96.47a4.3 4.3 0 0 1-.58-.28c.65-.1 1.6.28 1.74-.3Zm-1.81.29c-.07 0-.15.1-.22.1H105c.14 0 .22-.1.29-.1Zm-.43 0c-.22.1-.58.1-.94.1a5.04 5.04 0 0 0-1.67-.3c.8 0 1.6.1 2.6.2Zm-2.68.19c-.36.1-.65.2-.58.48-.5-.1-1.23-.2-1.95-.2h.07c-.36-.19-.8-.28-1.23 0-.07-.09-.07-.19-.14-.19h1.37c.07 0 .07.1 0 .1a4.36 4.36 0 0 1 2.46-.2Zm-4.34-1.45c-.07 0-.14.1-.14.1-.15 0-.37 0-.51-.1h.65Zm-.58.58c-.07 0-.14 0-.21-.1.21-.19.5-.1.94 0 0 0-.08 0-.15.1-.14 0-.22 0-.22.1.22-.1.37-.1.58-.1.73.2 1.6.48 2.17.39 0-.1-.29-.3-.07-.39-.43 0-.94.1-1.37 0h.72c.22-.2.14-.48.58-.48.58-.1 1.01 0 1.23.2-.15.28-1.23-.3-1.23.28.21 0 .36.29.36.58h-.15c-.14.1.15.2.22.38h-.5c.07 0 .21-.1.28-.1-.36.1-.43-.09-.65-.18.08.48-.29 0-.43-.1-.87.2-1.74-.2-1.8.29.35 0 .43.1.35.2-.21 0-.43 0-.72-.2-.43-.3 1.01-.3.22-.58-.36.29-.58.29-.94.2.43-.3.72-.4.8-.49Zm-.43-1.06c0 .2-.22.3-.58.39-.14 0-.36-.1-.5-.1.21-.1.72-.2 1.08-.29Zm-.87-.48h.22c-.22 0-.36 0-.58-.1.14.1.29.1.36.1Zm.22.29c0 .1-.07.2 0 .29-.36 0-.5-.2-.8-.39.3 0 .58.1.8.1Zm-.3 3.85c-.28.1-.57.1-.86 0h.87Zm-2.23-4.91c-.15.29.5.48 1.15.58a4.84 4.84 0 0 1-1.44-.48c.07 0 .21 0 .29-.1Zm-.36.2c.21.28.86.57 1.59.67-.51 0-.37.38-1.09.29.72-.3-.5-.2-1.44-.1-.22-.1-.37-.1-.58-.1.07-.1.14-.19-.3-.19l1.82-.58Zm-.15 1.73c.36-.39.72-.3 1.52-.39h.07c-.36.2-.94.29-1.59.39Zm.22 2.6h-.07.07Zm-.22-.48c-.07 0-.07 0 0 0Zm-1.01-2.5c-.07.09-.22.18-.22.38-.29-.1-.65-.1-.65-.39.43-.1.58 0 .87 0Zm-2.97 5.1c-.29 0-.58.1-.72.19-.14-.2-.29-.29-.5-.48.14-.2.64-.2 1.22.29Zm-.14.48c-.22-.3-.15-.2.14-.48.08 0 .08.1.15.1-.36-.59.22-.2.94-.59-.22.1-.44.2-.44.39.22 0 .44-.1.66-.1-.15.2-1.09.2-.3.58.3-.58.87-.38 1.24-.67h.07c.65.38-.94.29-.73.58.73.1.87.1 1.38-.3.65.4-.5.2-.36.49.36.2.58.29.86.29 0 0 0 .1.08.1l1-.1c.08-.1.08-.1 0-.1.3-.1.66-.2 1.1-.2.21.1.21.3.28.4a.5.5 0 0 0-.36.19c.3.1.72 0 .8.29l-.08.1c-.21 0-.5 0-.94-.1.3.1.66.28.94.38 0 0 0 .1-.14.1-.72-.1-1.66-.1-1.8-.68-.08.2-.08.3-.15.39h-.07c-.3.1-.51.1-.73 0-.07.38-.29.38-.58.38-.07-.19 0-.48.15-.86-1.23-.49-2.03.29-3.18 0v.19c-.15 0-.3.1-.37.1-.21-.1-.57-.1-.65-.3.3.1.73 0 .8-.19-.36 0-.8.1-1.16 0a.28.28 0 0 0-.07-.38c.5-.2.8 0 1.52 0Zm-1.95-1.06c-.08 0-.22-.1-.3.1.22 0 .59.38.22.38-.14-.2-.43-.29-.65-.48.08-.1.08-.2.22-.2.36 0 .43.1.5.2Zm-.65-2.7h-.66c.3-.1.51-.2.66 0Zm-1.45-2.02c-.15.1-.36.2-.58 0h.58Zm-.15 6.16c.51-.19 0-.86.94-.86-.57.48 1.23 0 1.23.48h-.07c-.36-.1-.07.2.15.1.07.1 0 .19-.08.28-.07 0-.21 0-.21.1h.07c-.07 0-.07.1-.15.1h.37c.07.1.07.19.21.19-.29 0-.36.1-.5.2h-.3c0-.2-.2-.2-.2-.4.14 0 .35-.09.35-.19-.36 0-.65.1-.8.2.08-.3 1.02-.58.15-.58-.07.2-.22.29-.43.38-.07-.1-.15-.1-.3-.19-.43.39-.57.29-1.08.2h.65Zm-1.73-5.97c.22 0 .36 0 .58-.1v.3h-.58v-.2Zm.07 3.66c0 .2 0 .39.15.48h-.22l-.43-.29c-.08 0-.08 0-.15.1-.14-.1-.36-.2-.36-.29.36.1.65.1 1.01 0Zm-.5 2.8c-.08 0-.08.1-.08.1-.07 0-.07 0-.14.09-.07-.1-.15-.1-.3-.2.15-.1.37-.19.52 0Zm-.66-2.8c-.21.1-.36.2-.5.2-.15-.1-.3-.1-.44-.1.3-.2.58-.2.94-.1Zm-3.25-2.89c.87 0 2.1-.1 2.53.2-.07.09-.22.09-.36.09-.14-.29-.36-.2-.58 0h-.87c-.43 0-.86 0-1.08-.2.14-.09.29-.09.36-.09Zm-2.02-.38c.21 0 .36 0 .57-.1.08 0 .15.1.22.1-.14.1-.29.1-.36.19-.15 0-.22.1-.36.2h-.15c-.14-.2-.29-.2-.5-.2.14 0 .36 0 .58-.2Zm-1.38 0c.07 0 .15 0 .15.1h-.08l-.07-.1Zm.5 3.08c-.14 0-.28 0-.35.1v-.1c.14-.1.21-.1.36 0Zm-1.08-3.18c.15.1.22.29.22.39-.36.1-.72.19-.36.48h-.07c-.73-.3-.37-.87.21-.87Zm-2.17 1.73c-.07-.1 0-.1.08-.1.21 0 .5.1.72.1.14.1-.07.2-.22.3h-.43c-.07 0-.15-.1-.15-.1.22-.2.87-.3 0-.2Zm-1.66-2.7c.8.2-.65.4-.22.58.36.2.8-.28 1.23 0-.87.39-1.59.2-2.38.1.14-.29.94-.2 1.37-.67Zm1.66 3.47h-.21c-.3 0-.8.1-1.16.1-.58.1-1.09.2-.8-.29-.65.1-.36.39-.94.48.15-.38-.65 0-1 0 .64-.48 3.39-.86 4.11-.29Zm-1.08.3c.07.09-.07.09-.22.19.07.29.87-.1 1.23-.1-.29.29-.43.29-1.01.29-.22.1-.15.29-.58.38.43-.28-.14-.77.58-.77Zm-3.18.67c.65-.1.86 0 .58-.39.21 0 .57 0 1-.1-.2.3-.72.49-.93.78-.22 0-.15-.1 0-.1.07-.29-.87.29-.65-.2Zm.21 1.25c.15-.1.37-.1.51-.2.07 0 .07-.09.14-.09h.37c-.08 0-.08.1-.08.1l.73-.2c.29 0 .36 0 .21-.19-.07-.1-.07-.1-.21-.2.43-.18.86-.18 1.23 0 .5-.28 1.23-.47 1.95-.76h.5c.08.1.3.2.44.29.22-.1.36-.2.58-.3.21 0 .36 0 .5.1-.14.1 0 .2.15.3-1.6.28 0 0 .07.48.72-.39 1.52.1 2.39-.49-1.16.2.94-.57.14-.57 0 .19-.29.29-.8.38.08-.1.08-.2.08-.29.22-.1.58-.19.72-.38.44.1 1.6.58 2.53.19.5.29 0 .48-.07.67.07 0 .22.1.29.1-.29.39-.72.29-1.45.58 0-.2-.21-.3-.43-.3 0 .2-.43.2-.58.4-.43-.1-.65-.3-1.23-.2-.14.1-.36.2-.58.3-.07 0-.14-.1-.21-.1-.15.1-.22.19-.22.28-.15 0-.22.1-.36.1.21-.2 0-.48-.3-.58.08.2-.06.2-.28.3.14-.2.22-.3-.15-.5-.14.1.08.2.15.3-.22.1-.43.1-.72.1v-.2c-.15 0-.22-.1-.22-.2-.36.1-.72.2-1.01.3-.51-.1-1.02-.2-1.52-.2-.36.2-.22.4 0 .49-.58.1-1.16.1-1.74.1-.14.09-.36.19-.5.28.07-.1.07-.1.21-.19-.8-.39-.8.67-1.52.29-.07-.1.15-.2.3-.29Zm-.21 10.6h-.15.15ZM51.42 28.97c.28-.1.28-.2.57-.29 0 .2.08.29.15.39-.22 0-.44-.1-.72-.1Zm1.08 0c.07 0 .14-.1.29-.1-.07.1-.15.1-.29.1Zm-22.78 1.25c-.65 0-.5.2-1.45.1.22-.3.51-.48.87-.58-.29.39.58.1.44-.1.43.2.29.39.14.58Zm8.39-.29c.58 0 1.88-.29 1.88.2-.65 0-1.3.1-1.88-.2Zm4.12.48c-.29-.1-1.37-.1-1.16-.48.3-.1 1.3.2 1.16.48Zm8.9.68c.57-.29 1.15-.77 1.66-.48-.5.29-1.09.58-1.66.48Zm2.74-.87c-.21-.38-.57-.2-1.15-.48 1.01-.1 1.88-1.06 2.38-.39-.86.2-.8.49-1.23.87Zm1.52-1.06c.65.2.3.39.87.68-.43.19-.8.19-1.23.19.36-.29 0-.58.36-.87Zm.08 1.93c.21-.2 1.15-.2.94-.48-.3-.3-1.38.1-1.16-.3.58 0 1.08-.09 1.59.2-.29.1-.22.29.14.39-.5.19-1 .29-1.51.19Zm.94-1.16c.36-.48 1.44.1 1.3.2-.44 0-.87 0-1.3-.2Zm1.66-.48c-.44.29-.87-.1-1.38.1-.14-.1.15-.2.3-.3-.95 0-1.89-.38-2.83-.38-.07 0-.07-.1 0-.1 1.3-.09 2.9 0 4.49-.09-.5.2-.94.29-1.67.48.44.3.8.2 1.09.3Zm6.43 8.67h-.14c.07-.1.22-.1.36-.2.36 0 .07.2-.22.2Zm.73-1.44c-.36 0-.5-.1-1.01 0 0 .1.07.19.07.19-.07.1-.07.1-.36 0 0-.1.07-.2.21-.29.15-.1.3-.2.5-.2.23.1.37.1.59.1.07.1.14.1 0 .2Zm-.36-2.03c.14 0 .21.1.29.2-.15 0-.3.1-.44.1-.07-.1-.14-.2.15-.3Zm.8 1.83c.2 0 .5-.1.71-.1-.21.2-.86.3-.72.1Zm.35-1.54c.15 0 .22 0 .36.1-.14 0-.28 0-.36-.1Zm.87 10.12c.07 0 .07.1.15.1-.15.09-.22.19-.3.28-.07 0-.21 0-.43-.1.22-.09.44-.19.58-.28Zm.87 1.06h-.07c-.08-.3-.65 0-1.02-.1.08 0 .08 0 .15.1-.3 0-.58 0-.87-.1 0 0 .07-.1.15-.1.21.2.5.1.94-.1.28 0 .65.1.94.2-.08.1-.15.1-.22.1Zm-.5-1.16-.08-.1c.07 0 .14-.1.14-.1-.07.1-.14.2-.07.2Zm.06 0h-.07l-.07-.1c.07.1.07.1.14.1Zm.8-10.7c-.22 0-.43 0-.8.1v.2c-.07.29.87-.3.66.19-.3 0-.58.1-.87.2-.07-.1-.22-.2-.36-.3.36-.19.65-.38.36-.48.29-.48 1.15-.29 1.01.1Zm-.43-1.82.07.1c-.22 0-.44-.1-.65 0 0 0 .07-.1.14-.1.15-.1.3-.1.44 0Zm-.65-.58-.44-.29c.36-.2.65 0 .94.1-.14.1-.36.1-.5.19Zm-.44-2.6c.36 0 .22-.1.3-.2.2 0 .42.1.64.2h-.94Zm.36 5c-.14.1-.29.1-.43.1-.36-.1-.8-.1-1.16-.1.07-.09.15-.09.22-.18h.22c.14-.1.07-.1 0-.2.07-.1.14-.1.21-.1.15 0 .22 0 .3-.09 0 .58.28.29.64.58Zm-.94-5.3h.36c0 .1-.07.2-.07.3-.21 0-.43 0-.58-.1l.3-.2Zm-.72-.28c.07 0 .22 0 .29.1-.07-.1-.07 0-.07 0h-.15c-.14 0-.07-.1-.07-.1Zm.43 2.02c-.21.1-.29.2-.29.3-.28 0-.57-.1-.86-.3.36-.19.8-.19 1.15 0Zm-1.59 1.83c-.14.1-.36.2-.5.3-.08 0-.08-.1-.15-.1.07-.1.36-.2.44-.2.07-.1.14 0 .21 0Zm-1.08-1.63c-.65-.1-.65-.58-1.45-.2-.07.3.87.2.44.58-.58 0-.94-.1-1.16-.48.87-.48 2.46-.67 2.67-.2-.36-.09-.21.2-.5.3Zm2.02 3.37c-.72.1-1.37.19-1.95.29h-.07c.87-.3 1.66-.48 2.02-.3Zm-2.02 11.46c0 .1-.07.2-.15.29h-.43c.14-.1.29-.2.58-.29Zm-1.16-13h.29c0 .1 0 .19-.14.19-.15 0-.15-.1-.15-.2Zm-5.06 1.25c0 .1-.07 0-.07 0h.07Zm-.87 14.16c.07 0 .15 0 .22-.1 0 .1 0 .1-.07.2h-.22c0-.1 0-.1.07-.1Zm-5.86-13.4h.08c-.08 0-.08.1-.15.1.07 0 .07-.1.07-.1Zm-10.05 1.74h.15c-.08 0-.15.1-.22.1 0 0 .07 0 .07-.1Zm-12.8-2.5c.22-.1.36-.1.58-.1 0 .1 0 .1.07.2-.29 0-.5 0-.65-.1Zm6.58.48c.3 0 .87.29.44.58-.44-.2-.8-.39-.44-.58Zm-4.48-1.25c-.29.2.36.29 0 .48h-.29c0-.2 0-.29-.07-.39 0-.1.14-.19.36-.1Zm.14.58c.3.1.08.29.15.38.22-.2.5.2.72 0-.29-.1-.43-.29-.43-.38.5-.3.94 0 .72-.49.36 0 .72-.1 1.01.2-.21.19-.57.1-.43.29.5 0 .94 0 1.45.1-.58.28.07.09.29.28-.37.39-.66-.1-1.02.1.5.38.94.19 1.45.38.14.1.65.68-.15.58.3-.29-.57-.1-.72-.38-.58.48-1.16 0-1.73.28-.44-.38-.73-.48-1.45-.38-.22.2.29.29.14.38-1.37-.28-.65-.67 0-1.34Zm-1.88 3.37c.8.29 1.6-.2 2.32 0-.58 0-1.16.38-1.74.38l.07-.1c-.07 0-.07 0-.14.1-.14 0-.29 0-.43-.1.07-.09-.22-.19-.08-.28ZM.94 36.77c.14-.19.07-.29.43-.48.22.2.51.1.73.2-.36.38-.8.57-1.16.28Zm3.76-.1c-.22-.57-.58.1-1.16-.09-.07-.48 2.1-.39 1.16.1Zm3.76.58c-.43-.19.07-.57-.72-.48 1.01-.67 1.15.39 2.02.39-.43.38-.87-.39-1.3.1Zm4.92.97c0-.39-.58-.1-.87.19-.5-.39.94-1.16 1.6-.87 0 .39-.44.68-.73.68Zm8.68-.39c.36-.29 1.44-.2 1.3.2-.44-.2-.87 0-1.3-.2Zm.21-1.06c.36.1.65 0 1.02.2-.44.28-1.52.19-1.02-.2Zm2.32.2.58-.39c.28.1.14.29.43.39-.36.19-.72.19-1.01 0Zm.5.77c0-.2.5-.58.87-.58.65.1-.36.38.29.48-.36.2-.72.2-1.16.1Zm1.52-2.12c.72-.1 0 .38.72.48-.21.2-.5.29-.72.48-.14-.2-1.01 0-.72-.39.36-.1.65.1 1.01 0 .22-.19-.94-.28-.29-.57Zm-6.36.29c-.07-.2.29-.39.43-.58.36-.1.8-.1 1.16-.1.14.2-.07.48-.15.77.73-.67 1.38-.48 2.03-.67.58.58 1.16.38 2.17.58-.44.48-2.03.19-2.9.19.3.1.22.29.15.38-.87.1-1.08-.1-.72-.38-.65.1-2.75.58-3.33-.2.72.3.5 0 1.16 0Zm-3.11 2.4c-.15-.1-.44-.19-.3-.29.3.1.37-.38.88-.1-.22.2-.44.3-.58.4Zm2.6-.48c-.58-.2-1.95.39-2.02-.2l.29.1c.29-.28.14-.48.14-.76.29.1.58-.2.87.1-1.16.76 1.08.28.72.76Zm.73 0c.14-.1-.08-.2-.3-.29.73-.29 1.45.2 2.18-.1-.58.4-1.02.4-1.89.4Zm-7.1 3.28c-.2.1-.35.29-.57.38-.14-.1-.29-.1-.43-.19.36-.39.72-.2 1-.2Zm-4.04 1.25c.07.1 0 .1 0 .2-.3.09-.65.18-.94.28-.07 0-.15-.1-.22-.1 0-.1.07-.28.15-.38.29-.1.65 0 1 0Zm-.44-.67c-.5.1-1 .38-1.44.1.5-.49.94-.4 1.44-.1Zm-2.74-.87c.21.48.43.1 1 .2-.2.18.3.28.15.38-.72 0-.5-.3-1.15.1l-.44-.2c.15-.2.08-.39.44-.48Zm-1.88 0c.36.1 1.3-.3.86.29-.21-.3-1.15.19-.86-.3Zm.86 1.73c.94 0 1.96-.29 2.9-.19-.94.48-2.53.48-2.9.2Z" fill="#1C153F"/><path d="M45.23 31.58c-.72.1-1.37.39-2.1.1 0 .38 1.96.48 2.1-.1ZM31.8 34.18c-.22-.1-.51.2-.73.29.36.2.65.1 1.01.2.44-.2-.8-.3-.29-.49ZM98.78 46.7c.29 0 .43-.1.58-.2.07-.28-.3-.38-.8-.28 0 .29.07.48.22.48ZM56.8 33.31c.14-.1-.22-.28-.44-.38-.21.1-.43.2-.58.38.3 0 .65-.19 1.02 0ZM121.18 31.49c.72.1 1.23.38 2.02.48-.22-.39-2.1-.87-2.02-.48ZM124.65 33.99c0 .2-.15.29-.51.2v.38c.5.1 1.01-.3.5-.58Z" fill="#1C153F"/><path d="M120.96 32.06c.65 0 1.52.2 1.66-.19-1.08-.1-1.37-.38-1.66.2ZM113.3 32.06c-.58.3-.43.39-1.08.1-.08.48 1.23.29 1.73.48.36-.38-.5-.29-.65-.58ZM119.8 31.3c-.07.09-.14.09-.43.09-.29.38.58.29.36.58.36 0 .72 0 .8-.2-.15-.19-.8-.1-.8-.28.3 0 .36-.2.08-.2ZM150.88 40.44c.07-.1.14-.2.36-.29-.58-.48-1.23-.29-1.8-.38.06.77.86-.3 1.44.67ZM151.24 40.44h.36c.29.2.58.2.87.2.21.09.5 0 .65-.2-.15-.29-.8-.39-1.09-.67-.07.57-.29.28-.8.67ZM51.95 32.64c-.5-.1-.94-.2-1.44 0 .43.1.94.29 1.44 0ZM59.1 33.12c.22-.19-.86-.58-1.15-.1.36.2.8-.09 1.16.1ZM122.55 32.93c.72.1 1.37.1 2.1-.1-1.02-.29-2.24-.38-3.33-.48-1.08-.1-2.1-.1-2.6-.2.36.4.07.78-.07 1.16.72.1 1.01-.1 1.44-.19.3-.29-.8-.38-.21-.48 1.15 0 1.95.2 2.67.29ZM49.35 31.87c-.36-.2-1 .1-1.23.29.37-.1 1.23 0 1.23-.29ZM148.28 39c.5.19 1.08.28 1.22-.1-.5 0-.94 0-1.22.1Z" fill="#1C153F"/><path d="M116.7 32.16c.07.58-1.38.2-1.88.48 1.37.77 2.38.2 3.68.29-.07-.58.08-.58-.57-.96.65.1 1.3-.48.86-.77-.07.1-.36.1-.65.1-.07.19.3.28 0 .38-.65.1-.29-.39-.8-.39 0 .68.15.68.59 1.16-.58 0-.58.38-1.02.38 0-.1 0-.1-.21-.1-.08-.28.8 0 .65-.38-.15 0-.22 0-.22-.1l-.43-.1ZM195.53 44.68c.15 0 .3 0 .36.1-.14-.1-.29-.1-.36-.1ZM117.2 33.99c1.02.38 2.03.67 3.04.77-.36-1.06-2.1-.77-3.04-.77ZM108.1 28.79c-.07.2.22.29.22.48 1.44.1 1.87 0 2.67-.38 0-.2-.65-.58-.8-.3.58.2-1.15.1-2.1.2ZM171.18 33.8c.72 0 2.02.29 2.53-.1-.8 0-1.3 0-2.02-.2.21.49-.65 0-.51.3ZM176.82 34.76c0 .58-1.3.2-1.66.48.72.2-.44.48-.66.1 0 .19-.07.29-.14.38.29.2.58-.1 1.23.1-.07-.58 1.15-.2 1.52-.48-.15-.3-.08-.58-.3-.58ZM176.96 36.78c-.72 0-.65.48-1.16.48.73.1.8-.19 1.16-.48ZM173.06 34.57c0 .38-.58.29-.8.57.66.1 1.16-.38.8-.57ZM173.78 35.34c-.8.1-1.08-.2-1.52.19.66.1 1.23.1 1.52-.2ZM148.56 33.9c1.38.67 3.62 1.34 4.7 1.24-.87-.67-1.23-.77-1.88-1.05-.5.38-1.8-.2-2.6-.49 0 .2-.29.1-.22.3ZM188.3 30.04c-1-.2-.79 1.54-.72 1.35.22-.48.22-1.06.73-1.35ZM175.16 34.86c-.8 0-1.3-.58-1.74 0 .8 0 1.16.19 1.74 0ZM178.48 33.5c.8-.09 1.73.49 1.88-.09-.73.2-1.6-.2-1.88.1ZM189.6 33.6c-.21.1-.86-.1-.79.1.36.1.8.48.8-.1ZM190.84 30.9c0 .49-1.02.3-1.09.68.5 0 1.6-.38 1.09-.67ZM189.97 27.92c-.15.3-.87 0-1.16 0 0 .2-.07.3-.14.39.58-.2 1.66.1 1.3-.39ZM168.22 33.03c-.72-.1-.72.19-1.01-.2 0 .1 0 .1-.15.1v.2c.58.09 1.01.38 1.16-.1ZM157.52 20.9c1.6-.1 2.39.86 3.47.67-.94-.58-2.6-.96-3.47-.68ZM163.74 35.53c-2.68-.96-.94.29 0 0Z" fill="#1C153F"/><path d="M175.3 34.66c-.22-.1-.36-.1-.5-.29 0-.1.28-.28 0-.38-.08.29-.51.2-.66.38.65-.1.73.68 1.16.3ZM166.27 33.03c-.44-.1-.5-.39-1.02-.39 0 .2.8.67 1.02.39ZM159.11 23.69c.22.1.36.19.5.29l1.24.1c.29-.1-2.17-.59-1.74-.4ZM148.85 33.12c0 .77 1.66.77 1.95.77-.14-.1-.21-.19-.14-.29-.65 0-1.09-.29-1.8-.48ZM176.38 33.41c-.72.1-1.88-.2-2.02.39.8-.39 1.59.19 2.02-.39ZM170.24 33.7c.07-.39-.87-.2-.87-.58-.21.2-.14.48-.65.39-.14-.3.37-.2.37-.48-.94 0-.66.57-.15.77.07-.2.65-.2 1.3-.1ZM177.1 30.33c-1.87-.39-1.37.2 0 0ZM169.45 36.78c-.44-.1-1.38-.48-1.52-.29.36.39 1.23.48 1.52.3ZM187.94 34.18c.44-.2.8.1 1.02-.1-.58 0-1.09-.77-1.74-.38.58 0 1.16.2.72.48ZM370.54 18.4c0 .18.07.28.36.28-.07-.67-.86-.48-1.08-.48.22.2.43.2.72.2ZM268 6.93c1.16-.38 2.1-.67 2.97-.86.87-.2 1.59-.39 2.24-.68-1.88.2-3.18.68-5.13 1.16.07.1-.22.19-.07.38ZM290.33 2.5c.8-.77.87.1 1.38-.77-1.38.2-3.25.3-4.48.58.5-.1 1-.2 1.08.1-1.16.19-2.38.29-3.54.48-1.23.2-2.46.48-3.68.96-.58-.1-1.16.2-1.3-.1-1.38.58-2.82.39-3.98 1.16-.07-.29-2.89.39-2.17.58.8-.1 1.67-.39 2.6-.68.94-.19 1.81-.38 2.53-.1-.21.2-.57.3-.72.49.58-.2 2.38-1.35 2.17-.77 2.74-1.16 7.15-1.45 10.11-1.93ZM263.38 7.9c-1.3.38-2.31.48-2.89.57 0-.1-.07-.1-.22-.1.08.3.44.2.15.58.29.1 1.01-.28 1.37-.19-.43-.77 1.52-.1 1.6-.86ZM294.67 1.54c0-.29-1.08-.38-1.16-.2.37.1.65.4.08.49-.44-.1-1.81-.58-1.74.1.58-.1 1.3-.3 1.16.19.94-.1 1.08-.48 1.66-.58ZM194.01 30.9c.65.1.51-.47.15-.57.07.29-.29.29-.15.58ZM300.3 1.35c-.57-.58-.79-.48-.79-1.06-.14 1.06-3.4 1.06-4.4.96 1.22.1.07.48-.08.96 1.52-.38 3.33-.48 4.12-1.34.07.19.8 0 .94.29-.29 0-.8 0-.87.19.58-.2.58.1 1.09 0ZM367.29 7.9c-.58 0-.58-.3-1.08-.39a.51.51 0 0 1-.22.58c.58.19.36-.2.94 0 0 .1.14.19.22 0-.15 0-.22-.1-.22-.2.14.1.36.2.36 0ZM257.31 9.34c-1.73.38-3.9 1.54-5.85 1.54-.94.96-2.96 1.16-3.9 1.16.72.1 1.73.48.58 1.34 1.51-.86 3.32-1.34 4.62-1.92-.14 0-.36.1-.36 0a76.2 76.2 0 0 1 3.76-1.25c-.15 0-.22 0-.22-.2 1.44-.67 3.18-.29 4.05-1.15-1.01.1-2.24 1.06-2.68.48ZM374.88 22.24c-.44-.29-.73-.96-1.16-.77.22.1.43.3.15.3-.66-.4-2.17-.68-1.6-1.26-.5-.1-.43.2-.72.29.08.19.73.19.73.38-.08.1-.3.1-.58 0 0 .2.07.39.36.58-.07-.58.8.1 1.3-.2.07.3.22.49-.22.59-.21-.1-.21-.2-.5-.3.5.68-.58.2-.72.49.36.29.64.1.93 0 .58.29 1.02.58 1.23.96-.29-.1-.43 0-.58.1.3.19.37.48.87.58.07-.3-.29-.3-.14-.58.43.48.86.1.5.58.07 0 .2.05.27.05v-.53c-.14 0-.27-.1-.41-.1.22-.3-.36-.3-.72-.39 0-.19-.08-.29-.15-.38.5.1.94.19 1.23.1-.58-.2-.36-.4-.07-.49Zm-1.45.39c-.5-.3 0-.58.58-.3.14.3-.5 0-.58.3ZM310.13.58c-.57-.1-.8-.48-1.3-.58-.07.39 1.16.67 1.3.58ZM306.95 0h-.86l.07.48c.5 0 .8-.2.8-.48ZM266.42 7.22c.21.2.8.1 1.37-.2-.14-.18.07-.76-.43-.67l.07.3c-.36.38-.87.09-1.01.57ZM215.19 20.03c.28-.3 1.37-.2 1.59-.48-1.02-.1-1.81.38-2.6 0 0 .19-.22.19-.3.29.37.48 1.09-.39 1.3.19ZM209.26 21.18a3.64 3.64 0 0 1 2.24-.57c.8-.1 1.59-.1 2.46-.3-.44-.38-.65-.38-1.3-.57.07.48-.3.1-.44.1.07.38-.36.57-1 .67-.22-.2-.3-.48-.59-.48.15.77-1.3.19-1.51.48.94-.1.36.38.14.67ZM205.14 20.8c.36-.1.73-.1.94 0 .07-.58-.94-.39-.94 0ZM203.12 20.7c-1.3.48-1.6.2-3.04 0 .08.29 0 .48-.07.58.87.1 1.66-.29 2.53-.1-.14-.38.8-.1.58-.48Z" fill="#1C153F"/><path d="M248.5 11.84a6.5 6.5 0 0 1 2.45-.67c-.28-.2-2.24.2-2.45.67ZM203.4 23.3c.37 0 1.67-.1 1.24-.2-.3.1-1.67.1-1.23.2ZM246.33 12.71c-.22-.1-.8.2-1.01.48.29.1.94-.2 1-.48ZM241.63 14.54c1.16-.39 3.33-.77 3.04-1.64-.87.97-2.82.87-3.47 1.35.22 0 .36.1.43.29ZM217 19.64c.35.1.86.2 1.08-.19-.37 0-1.02-.2-1.09.2ZM219.88 19.35c.58.3.87 0 1.09-.29.07.1.21.2.36.3.29-.3.8-.1 1.15-.49 1.16-.29.8-.29.15-.19-.58.1-1.38.29-1.09.38-.65 0-1.08-.19-1.66.3ZM219.67 19.16c-.36.2-1.09.1-1.16.39.5 0 1.16.28 1.16-.39ZM176.89 35.53c-.36.1-1.08 0-1.16.29 1.95.2 2.82.58 4.48.58 0-.1 0-.3.36-.2-.28-.1-1.66-.29-2.24-.29.22 0 .44.2.22.2-.72-.2-1.08-.48-1.66-.58ZM84.18 28.02c.29 0 .15.29.58.2 0-.1 0-.2.14-.2.22 0 .22.1.37.1 0-.49-.87-.2-1.09-.1ZM73.49 17.72c.43 0 1.08.19 1.15-.2-.43-.1-.57-.28-1.15-.19v.39ZM104.78 28.89c-.58 0-1.45.1-1.45-.2.36 0 .5-.1.65-.29-.94-.19-1.59 0-2.31-.1 1 .4.86 1.07 2.89.97-.58-.58.07 0 .22-.38ZM107.67 27.54c-.58-.39-2.17-.2-3.33-.3.58.68 2.31 0 3.33.3ZM45.16 29.56c.44-.1.72-.1.94 0 .22-.48-1.08-.29-.94 0ZM43.43 28.7c-.5.09-1.01 0-1.52.19.5.19 1.01.1 1.52-.2ZM153.33 33.31a4.64 4.64 0 0 0-2.53-.67c2.24.96 5.13 1.73 7.16 2.22-.8-.77-3.11-1.35-4.63-1.55ZM114.9 29.08c-.88.1-1.45-.2-2.68-.2-.15-.28.29-.28.21-.57-.36-.1-.43.1-.86.1.21.48 0 .28-.22.67.5 0 .65.2 1.01.29.15-.48 2.39.29 2.53-.3ZM111.42 27.34c-.43-.1-1.59.1-.86.2 0-.1 0-.1.21-.1 0 .2.15.29.44.39.07-.2.29-.3.21-.48ZM114.75 27.15c.5.48-.44.3-.44.77 1.38.39 2.17-.77.44-.77ZM113.52 27.54c-.58-.2-1.3-.2-1.66 0 .43.1 1.22.58 1.66 0ZM117.28 27.92c-.08-.57.86 0 1.44-.38-1.23 0-2.24-.2-2.53.1.65-.1.3.38 1.09.28ZM25.36 30.14c-.58.1-1.66.1-1.73.48.5.1 1.15-.1 1.73-.48ZM21.9 30.14c-.37-.1-.8 0-1.16-.1-.15.1.07.1.14.1.22.1.44.19.3.29.2.1.43-.1.71-.3ZM370.47 20.22c0-.2.07-.39.22-.39-.73-.28-1.09.2-.22.39ZM.65 35.38c.36-.28.65.49 1.01 0-.14-.28-1.01-.28-1.66-.1v.68c.22-.2.72-.38.65-.58ZM369.96 19.26c-.14 0-.21 0-.21.1l.57.09c-.5-.67 1.16 0 .58-.29-1-.48-.72-.1-.94.1ZM48.2 33.99h-.08c0 .1.08.1.08 0Z" fill="#1C153F"/><path d="M368.8 20.03c.87.38 2.1 1.35 2.9 1.35-.87-.3-.5-.97-1.23-.68-.29-.29-1.37-1.35-1.66-.67ZM371.05 10.6c0-.2.57.09.57-.2-.43-.2.3-.39-.36-.68-.14.58-1.15-.48-1.3-.19.73.39 1.23.68 1.09 1.06ZM18.28 32.93c.72-.1 1.23 0 1.6-.2-.3-.38-1.74 0-1.6.2ZM4.2 35.82c-.59.2-1.74.1-1.74.48.65-.39 1.51 0 1.73-.48ZM372.93 14.44c-.44-.1-.8-.48-.94-.1.21.2.86.4.94.1Z" fill="#1C153F"/><path d="M373.58 15.3c.36-.09-.22-.57-.5-.86 0 .2-.51 0-.37.39.72.1.36.48.87.48ZM119.3 29.27c.07-.2-.22-.29-.22-.48-.14.1-.36.1-.5.1a3.7 3.7 0 0 0-1.74-.1c-.22 0-.36 0-.5.1-.44-.2-.94-.3-1.45-.39-.07.48 1.23.58.58.96.8.2.36-.38 1.08-.29.08.2-.21.3-.21.49h.8c.06-.2-.08-.39.2-.49.08.1 0 .2.22.3.44-.1-.21-.3.22-.3.3.1.94.1 1.52.1ZM137.3 38.13c.2 0 .35 0 .57-.1 0-.1-.15-.29-.36-.48-.44.1-.65.29-.22.58ZM137.87 37.94c.22.19.07.29.36.48.29-.1.22-.3.5-.2.15-.1-.21-.28-.35-.48l-.51.2ZM133.97 37.36c-.44.29-.8-.1-1.23.1.43.19.87.1 1.59.19l-.36-.3ZM128.48 35.43c-.37-.1-.73 0-.94-.38-.87.29-1.6-.1-2.03-.39-.07.3.58.68-.29.87.58.38.65-.29 1.3.2.22.38-.57.09-.79.28.58.29 1.08.2 1.37-.2-.36-.09-.5-.18-.5-.38.65-.38 1.15.39 1.88 0ZM133.75 36.68l-.36-.28c-.14.1-.29.1-.43 0-.08.28.14.19-.51.28.22.2.07.3.36.49 0-.2.58-.3.94-.49ZM140.25 38.03c-.43-.19-.86-.58-1.37-.58-.14.1.94.87 1.37.58ZM151.96 22.24c.65-.1.5.39 1.08.39.08-.58-.94-.68-1.08-.39ZM155.5 23.1c.58 0 .8.2 1.23.2.22-.38-1.37-.67-1.23-.2ZM127.4 29.66c-.51 0-1.16-.1-1.45 0 .21.19 1.22.28 1.44 0ZM141.84 38.23s.08 0 0 0c.22-.1.3-.1.44-.2-.58.1-1.02-.38-1.38-.19.08 0 .15.1.22.1l-.87.29c.65.19.8-.49 1.6 0ZM130.79 33.41c-1.45-.2-2.17-.58-2.9-.2-.2-.09-.2-.18-.14-.38-1.15-.29-1.51 0-1.59.2-.21 0-.43 0-.58-.1v.2c0 .09 0 .09.22.09.3-.39.3.38.94.2-.14-.2 0-.3.07-.3.22.1.5.2.8.39v.1h.14c1.16.38 2.68.57 3.04-.2Zm-4.55-.48s.07 0 0 0h.14-.14ZM145.46 36.69c-1.96-.97-1.67-.97-3.9-1.35l.07-.58c-.73-.29-.44.38-.87.38-2.67-.57-5.13-1.25-8.02-1.34-.22-.58.22-.3.29-.77-.5-.1-.5.19-.87.19.29.1.22.29.36.38-.5-.1-1.01-.19-1.01.2-.07 0-.07.1-.07.1.07 0 .22 0 .29.09.8.48 2.96 1.06 4.12.87 3.18.86 6.28 2.5 9.25 2.4-.08.2.14.3.57.39 0-.2.08-.39.3-.39h-.08.29v.48c.22 0 .43.1.65.2-.72-.1-1.37-.1-1.88-.48-.5.28-1.88-.1-2.31.19.87.1 1.88.38 2.82.29.43.19-.44.48.36.48 0-.3.94-.48.5-.1.65.3.08-.38.5-.29.23.39.52.2.73.2.07 0 .22.1.3.1l.06.09v-.1c.08 0 .15 0 .22-.1h-.07s.07-.1.07-.19c-.29 0-.5-.1-.8-.1-.43-.09-.86-.28-.86-.76h.07c.29-.1.72 0 .94-.1-.43-.2-.58-.38-.94-.58.29.77-.22-.19-.8 0l.22.3c-.14.09-.29.18-.36.28-.43-.1-.58-.1-.94-.48.36 0 .58.38.8.1Zm-10.7-2.32c.22-.28.87.2 1.23.3-.22.28-.8-.2-1.23-.3Zm7.52 1.74c-.22 0-.22.19-.65.1.29-.2.8-.49 1.22-.1-.07.29-.28.19-.57 0ZM127.1 16.56c.36.48 2.46.68 3.11.68-1.3-.3-2.46-.49-3.1-.68ZM142.42 32.26l.8.19c.21-.39-.3-.58.07-.68-.65-.1-.94.1-.87.49ZM128.9 28.5c.66.2.73-.1.66-.38-.5-.1-.65.1-.65.38ZM127.46 28.5c.3 0 .73.2.87 0-.65-.2-.22-.38-.14-.58-1.16-.19-.15.48-.73.58ZM126.02 28.12c-1.73-.3-3.1-.3-4.55-.68.29.58 2.96.29 2.67 1.16.65-.1.8 0 1.3-.1-.43-.29-1.08.1-1.01-.48.22.2 1.59.38 1.59.1ZM139.03 31.3c.14.09.43.09.36.19-.15 0-.22 0 0 .1.72-.49 2.02.86 2.24.18-.94-.1-.87-.38-.37-.48-.14-.1-.72-.48-.79-.19.43.1-.07.29-.22.29 0-.1 0-.2-.14-.29.22.58-1.09-.2-1.09.2ZM134.4 32.26c-.87 0-1.88-.68-2.02-.3.58.2 1.44 1.07 2.02.58-.14-.1-.43-.1-.36-.19.14.1.36.2.36-.1ZM132.16 36.5c-.5-.4-1.37.18-.87-.3-.36-.29-.57.2-.65.2.15.1.37.28.5.38.66-.2.66 0 1.02-.29ZM131.37 29.17c.5.2.57.49 1.15.58l.07-.48c-.36 0-1.15-.38-1.22-.1ZM135.56 31.2l.8.19c-.23-.39.14-.29-.15-.48-.44.29-.72-.39-.94-.58.29.48-.73-.1-.65.2.21.09.14.19 0 .19.72.28 1.37 0 .94.48Z" fill="#1C153F"/><path d="M135.2 28.7c-.22.38.65.38.29.86.36.29 1.44.38 1.15.87-.87-.1-.72-.39-1.37-.49-.36.39.94.2.58.58 1.08.3 1.59.1 2.02.58-.29.2.07.39-.29.39-.22-.2-.72-.3-.8-.1.73.38 2.17.77 2.68.29-.44-.2-1.37-.2-1.37-.39.36.1.65.1.86-.1-.57-.19-.57-.48-.72-.76-.5-.1-1.23-.2-1.16-.49.37-.1.73-.28 1.09-.48-.94-.29-2.17-.48-2.96-.77Z" fill="#1C153F"/></svg>